<svg width="43" height="36" xmlns="http://www.w3.org/2000/svg" xmlns:xlink="http://www.w3.org/1999/xlink" xml:space="preserve" overflow="hidden"><defs><clipPath id="clip0"><rect x="599" y="1359" width="43" height="36"/></clipPath><clipPath id="clip1"><path d="M277.319 1538.67 503.904 1304.23 797.433 1585.81 570.847 1820.25Z"/></clipPath></defs><g clip-path="url(#clip0)" transform="translate(-599 -1359)"><g clip-path="url(#clip1)"></g><path d="M-26.0072 19.9523C-26.0072 29.5143-35.2925 37.2659-46.7465 37.2659-58.2005 37.2659-67.4858 29.5143-67.4858 19.9523-67.4858 10.3902-58.2005 2.63869-46.7465 2.63869-35.2925 2.63869-26.0072 10.3902-26.0072 19.9523Z" stroke="#000000" stroke-width="1.36146" stroke-linecap="round" stroke-linejoin="round" fill="none" transform="matrix(1.00373 0 0 1 667.421 1357.05)"/><path d="M-55.8199 4.67558C-49.7529 6.07311-42.1032 12.0193-49.1537 23.9335-51.8571 28.8952-63.0976 28.7321-59.7085 14.4897" stroke="#000000" stroke-width="1.36146" stroke-linecap="round" stroke-linejoin="round" fill="none" transform="matrix(1.00373 0 0 1 667.421 1357.05)"/><path d="M-42.4875 3.00903C-35.9719 4.39303-31.4108 12.9357-37.8927 20.3626" stroke="#000000" stroke-width="1.36146" stroke-linecap="round" stroke-linejoin="round" fill="none" transform="matrix(1.00373 0 0 1 667.421 1357.05)"/><path d="M-31.1037 48.0849C-31.1037 51.6863-34.3927 55.2202-40.7238 55.2202-47.0548 55.2202-52.1871 52.3007-52.1871 48.6993-52.1871 45.0979-49.6354 42.3013-40.7238 43.0386-34.4143 43.5606-31.1037 44.4835-31.1037 48.0849Z" stroke="#000000" stroke-width="1.3203" stroke-linecap="round" stroke-linejoin="round" fill="none" transform="matrix(1 0 0 1.06729 669.929 1331.71)"/><path d="M49.9536 109.121C45.1978 108.355 41.8124 106.005 41.4711 103.232 41.379 102.484 41.65 101.077 42.0291 100.334 43.1566 98.1237 46.4404 96.9889 51.121 97.1917 55.6853 97.3895 59.1458 98.0534 60.6599 99.0217 63.0786 100.568 62.971 104.126 60.4287 106.662 59.399 107.689 57.8735 108.52 56.2208 108.955 54.9223 109.296 51.5896 109.384 49.9536 109.121Z" stroke="#000000" stroke-width="1.3203" stroke-linecap="round" stroke-linejoin="round" fill="none" transform="matrix(1 0 0 1.06729 576.353 1273.89)"/></g></svg>