<?xml version="1.0" encoding="UTF-8" standalone="no"?>
<!-- Created with Inkscape (http://www.inkscape.org/) -->

<svg
   width="26.582792mm"
   height="21.429991mm"
   viewBox="0 0 26.582792 21.429991"
   version="1.1"
   id="svg1"
   xml:space="preserve"
   xmlns="http://www.w3.org/2000/svg"
   xmlns:svg="http://www.w3.org/2000/svg"><defs
     id="defs1" /><g
     id="layer1"
     transform="translate(-34.282319,-206.39268)"><path
       d="m 37.133367,226.28275 c -1.611686,-1.65731 -2.544641,-3.61864 -2.817604,-5.92338 -0.18711,-1.57985 0.431077,-2.72007 1.349723,-2.4895 0.489739,0.12291 0.647041,-0.0106 0.928122,-0.78795 0.502482,-1.38959 1.682874,-2.59041 4.131326,-4.20284 2.233638,-1.47097 2.903685,-2.25831 3.719836,-4.37099 0.252973,-0.65485 0.638528,-1.39899 0.856789,-1.65365 0.624837,-0.72904 1.826306,-0.57975 2.747456,0.3414 0.746768,0.74677 0.796504,0.91394 0.693908,2.33232 -0.08153,1.12716 -0.333457,1.89022 -0.960513,2.90931 -0.849995,1.38142 -0.849995,1.38142 0.54251,1.17341 0.765878,-0.1144 2.940318,-0.20378 4.832089,-0.19862 2.998831,0.008 3.613593,0.0869 4.79754,0.61452 2.304682,1.027 3.473948,2.74041 2.643708,3.87401 -0.415185,0.56689 -1.348947,0.61769 -4.828214,0.26266 -1.620298,-0.16534 -1.620298,-0.16534 -1.486624,0.53393 0.08695,0.45486 -0.0538,0.95285 -0.402697,1.42475 -0.335055,0.45319 -0.488802,0.97432 -0.409633,1.38847 0.08729,0.45666 -0.08596,0.91577 -0.556691,1.4752 -0.375887,0.44672 -0.683431,1.09596 -0.683431,1.44275 0,1.58708 -1.819781,2.72736 -3.912708,2.45173 -0.685667,-0.0903 -2.090489,-0.0467 -3.121828,0.0969 -1.031338,0.14358 -2.374769,0.16969 -2.985401,0.058 -0.939361,-0.17178 -1.151036,-0.1268 -1.375294,0.29223 -0.185003,0.34568 -0.557979,0.49526 -1.234951,0.49526 -0.834177,0 -1.179447,-0.21548 -2.467418,-1.53992 z m 3.367937,0.85844 c 0.105302,-0.27442 -0.1581,-0.67909 -0.770688,-1.18404 -0.857589,-0.70689 -1.984828,-2.7875 -1.677001,-3.09532 0.07276,-0.0728 0.328973,0.35926 0.569361,0.96005 0.515728,1.28893 1.619124,2.29255 2.913345,2.6499 0.534569,0.1476 2.570198,0.19052 4.783446,0.10084 3.576863,-0.14493 3.907628,-0.20219 4.617446,-0.79947 1.48022,-1.24552 0.723978,-3.03878 -1.571528,-3.72653 -2.277132,-0.68225 -4.278468,-0.15439 -4.278468,1.12845 0,0.7905 0.477545,1.17119 2.041852,1.62774 1.26544,0.36932 1.26544,0.36932 -0.0078,0.27003 -0.864826,-0.0675 -1.480137,-0.29366 -1.918229,-0.70523 -0.732741,-0.68838 -0.809995,-1.24522 -0.274381,-1.97772 0.226193,-0.30933 0.316126,-0.84253 0.230796,-1.36836 -0.08743,-0.53878 0.0114,-1.09231 0.263829,-1.47756 0.222,-0.33881 0.347863,-0.90778 0.279696,-1.26437 -0.08852,-0.46306 0.07695,-0.83668 0.578991,-1.30733 0.633218,-0.59362 0.918576,-0.65814 2.877308,-0.65058 1.80097,0.007 2.421815,0.12862 3.615223,0.70842 1.156896,0.56206 1.979745,0.73256 4.175391,0.86516 2.911533,0.17584 3.483162,0.0137 3.483162,-0.98782 0,-0.85417 -1.723364,-2.25979 -3.389341,-2.76442 -2.393701,-0.72507 -8.477469,-0.53566 -10.716378,0.33363 -0.346044,0.13436 -0.179789,-0.27775 0.596765,-1.47923 1.18903,-1.83966 1.726117,-3.43244 1.483448,-4.39931 -0.259839,-1.03529 -1.127792,-1.71928 -2.064552,-1.62699 -0.743993,0.0733 -0.895104,0.24572 -1.462977,1.66925 -0.348306,0.87312 -0.925978,1.97379 -1.283713,2.44592 -0.357736,0.47213 -1.592184,1.46253 -2.743219,2.20089 -1.151034,0.73835 -2.442565,1.74084 -2.870069,2.22774 -0.902599,1.028 -1.46948,2.54562 -1.293919,3.46401 0.159055,0.83204 -0.01315,0.8218 -0.333128,-0.0198 -0.315582,-0.83005 -1.256529,-0.88702 -1.549942,-0.0939 -0.311513,0.8421 0.157933,3.31779 0.917988,4.84113 0.719342,1.44174 2.289614,3.23696 3.145496,3.59609 0.838058,0.35166 1.458486,0.29032 1.631795,-0.16131 z m 12.523413,-5.39882 c 0,-1.23519 -1.396378,-2.16193 -4.003809,-2.65722 -1.599794,-0.30389 -3.070175,0.0928 -3.452277,0.93146 -0.157517,0.34571 -0.210949,0.82517 -0.118738,1.06547 0.134046,0.34932 0.377749,0.40141 1.215656,0.25985 1.321264,-0.22323 3.686854,0.43419 4.696215,1.30512 0.67603,0.58332 0.775165,0.6014 1.199932,0.21889 0.254662,-0.22932 0.463021,-0.73493 0.463021,-1.12357 z m 0.47625,-1.64553 c 0.496679,-0.49668 0.372934,-1.72691 -0.230226,-2.28884 -1.251824,-1.16625 -5.572067,-1.62762 -6.592609,-0.70405 -0.29292,0.26509 -0.532581,0.74371 -0.532581,1.0636 0,0.53617 0.100352,0.57197 1.284425,0.45819 1.498134,-0.14395 3.911993,0.47946 4.835648,1.24886 0.744807,0.62043 0.82307,0.63451 1.235343,0.22224 z"
       style="fill:#000000"
       id="path1-1" /></g></svg>
