<svg width="49" height="50" xmlns="http://www.w3.org/2000/svg" xmlns:xlink="http://www.w3.org/1999/xlink" xml:space="preserve" overflow="hidden"><g transform="translate(-537 -1346)"><path d="M-46.0249 109.012C-41.6291 108.867-29.0327 108.138-28.9399 85.8522-29.175 82.5833-29.3642 84.0091-29.4643 82.2064-29.9808 72.8994-39.9049 75.6553-39.9049 75.6553-41.2332 74.4367-44.6899 73.2997-47.9233 74.8419-47.3546 65.791-49.2949 60.1734-55.5166 60.4145-65.5269 60.4823-58.5649 83.1799-60.0726 94.5845-67.9057 92.174-76.2036 89.1719-76.3983 96.4829-77.1358 103-66.6567 104.71-57.7946 107.114Z" stroke="#000000" stroke-width="1.39573" stroke-linecap="round" stroke-linejoin="round" fill="none" transform="matrix(1.00219 0 0 1 614.302 1286.29)"/><path d="M-55.9054 94.3815C-52.476 92.8615-44.4083 93.2436-46.2407 104.046" stroke="#000000" stroke-width="1.39573" stroke-linecap="round" stroke-linejoin="round" fill="none" transform="matrix(1.00219 0 0 1 614.302 1286.29)"/><path d="M-48.0576 75.3204C-49.0286 86.062-47.7674 93.424-42.6164 92.7707-33.5818 93.1273-36.8648 80.9026-39.9318 75.7231" stroke="#000000" stroke-width="1.39573" stroke-linecap="round" stroke-linejoin="round" fill="none" transform="matrix(1.00219 0 0 1 614.302 1286.29)"/><path d="M-38.0592 91.5991C-34.4064 93.9995-29.3722 92.8583-29.4535 82.569" stroke="#000000" stroke-width="1.39573" stroke-linecap="round" stroke-linejoin="round" fill="none" transform="matrix(1.00219 0 0 1 614.302 1286.29)"/></g></svg>