<?xml version="1.0" encoding="UTF-8" standalone="no"?>
<!-- Created with Inkscape (http://www.inkscape.org/) -->

<svg
   width="25.548199mm"
   height="24.568785mm"
   viewBox="0 0 25.548199 24.568785"
   version="1.1"
   id="svg1"
   xml:space="preserve"
   xmlns="http://www.w3.org/2000/svg"
   xmlns:svg="http://www.w3.org/2000/svg"><defs
     id="defs1" /><g
     id="layer1"
     transform="translate(-62.941412,-199.34895)"><path
       style="fill:#000000"
       d="m 103.01563,205.50049 c -1.68035,-0.42268 -3.028296,-0.97247 -3.529818,-1.43971 -0.67017,-0.62436 -0.704849,-0.86932 -0.195218,-1.37895 0.32496,-0.32496 0.27367,-0.5789 -0.37776,-1.87037 -0.924452,-1.83274 -1.181986,-3.69925 -0.845581,-6.12846 0.194541,-1.4048 0.165981,-2.26286 -0.118799,-3.5692 -0.206201,-0.94589 -0.447397,-2.87556 -0.535991,-4.28816 -0.134134,-2.13872 -0.08734,-2.68091 0.279745,-3.24114 0.32766,-0.50008 0.669424,-0.67279 1.331321,-0.67279 0.808596,0 0.906509,-0.0854 1.064601,-0.92804 0.1072,-0.57145 0.42981,-1.0956 0.8396,-1.3641 0.61715,-0.40437 0.7316,-0.40453 1.57514,-0.002 0.50029,0.23858 0.91489,0.58453 0.92132,0.76879 0.006,0.18425 0.24552,-0.1078 0.5313,-0.64901 0.61984,-1.17384 1.32021,-1.60322 2.23894,-1.37263 0.7145,0.17932 1.4514,1.30201 1.4514,2.21122 0,0.64528 0.16507,0.67961 0.69926,0.14543 0.50347,-0.50347 1.78457,-0.51401 2.19616,-0.0181 0.55235,0.66554 0.77665,3.60626 0.59168,7.75735 -0.0989,2.2193 -0.1049,4.035 -0.0133,4.03489 0.0915,-1.1e-4 0.84293,-0.3099 1.66973,-0.68842 3.33419,-1.52644 6.18955,-0.51502 5.27492,1.86847 -0.0907,0.23638 -0.63185,0.668 -1.20254,0.95914 -1.59829,0.81539 -2.95919,2.18493 -4.0864,4.11239 -1.01941,1.74311 -2.77798,3.5378 -3.46661,3.5378 -0.28343,0 -0.29561,0.11762 -0.0581,0.5614 0.24848,0.46429 0.2052,0.65665 -0.25018,1.11203 -0.46728,0.46728 -0.92182,0.56008 -3.00312,0.61308 -1.34887,0.0343 -2.69062,0.003 -2.98166,-0.0707 z m 5.50606,-0.67654 c 0.69889,-0.36786 0.44181,-1.12726 -0.4151,-1.22617 -1.02997,-0.11888 -0.90164,-0.57774 0.16157,-0.57774 1.39204,0 2.55219,-0.99537 4.09949,-3.51723 1.4588,-2.37762 1.88935,-2.81918 4.14172,-4.24769 1.51811,-0.96281 1.80725,-1.74808 0.88223,-2.39599 -1.29327,-0.90584 -4.16853,-0.21249 -6.97403,1.68175 -1.31653,0.88891 -1.31653,0.88891 -0.5845,0.10088 0.73203,-0.78803 0.73203,-0.78803 0.88776,-5.79602 0.11986,-3.85426 0.0731,-5.2518 -0.20308,-6.06632 -0.71021,-2.09482 -2.293,-1.20112 -2.87993,1.62611 -0.16689,0.80391 -0.26313,2.67191 -0.21386,4.15111 0.0896,2.68945 0.0896,2.68945 -2.29167,2.61022 -1.46355,-0.0487 -2.91956,0.0646 -3.77806,0.29398 -1.27955,0.34188 -1.367225,0.33742 -1.04434,-0.0531 0.29494,-0.35669 0.26864,-1.0394 -0.16114,-4.18232 -0.534235,-3.90689 -0.734816,-4.33503 -1.771114,-3.78042 -0.80851,0.4327 -0.912597,1.94582 -0.363106,5.27846 0.336582,2.04136 0.477198,4.00372 0.424708,5.92702 -0.04316,1.58139 0.05607,3.52332 0.220502,4.3154 0.347329,1.67307 1.39832,3.03081 2.69396,3.48021 0.86818,0.30113 0.86818,0.30113 -0.13927,0.1871 -1.259025,-0.14251 -1.77068,0.0452 -1.77068,0.64956 0,0.67872 2.30366,1.6507 4.63021,1.95361 1.11446,0.14509 3.87478,-0.11087 4.44773,-0.41245 z m -5.55634,-14.12535 c 0.74505,-0.13216 0.96858,-0.28166 0.85678,-0.57301 -0.0832,-0.2168 -0.22883,-2.18617 -0.32362,-4.37638 -0.14564,-3.36474 -0.24772,-4.05754 -0.65836,-4.46818 -0.26729,-0.26729 -0.78058,-0.48598 -1.14065,-0.48598 -1.44776,0 -1.814142,2.54832 -1.06512,7.40833 0.21306,1.38245 0.38951,2.61086 0.39212,2.72981 0.003,0.11894 0.21311,0.15506 0.46777,0.0803 0.25466,-0.0748 0.91665,-0.21648 1.47108,-0.31484 z m 3.88523,-1.50303 c -8.3e-4,-0.90951 0.13895,-2.86781 0.31061,-4.35179 0.37624,-3.25257 0.0861,-4.7332 -0.97982,-5.00074 -1.67049,-0.41927 -2.24058,0.84925 -2.2374,4.9784 0.001,1.64179 0.0766,3.6039 0.1675,4.36025 0.16198,1.34834 0.18389,1.37718 1.12218,1.47688 0.52634,0.0559 1.1058,0.1217 1.2877,0.14616 0.23419,0.0315 0.33029,-0.43824 0.32923,-1.60916 z m 29.10567,16.17904 c -1.67688,-0.189 -3.13999,-0.74795 -3.68825,-1.40902 -0.29587,-0.35675 -0.31329,-0.5677 -0.078,-0.94447 0.2385,-0.3819 0.21692,-0.55652 -0.10141,-0.82071 -0.78873,-0.65459 -1.45114,-2.40912 -1.71809,-4.55072 -0.14879,-1.19365 -0.45081,-2.76689 -0.67117,-3.4961 -0.55897,-1.8498 -0.39829,-2.99123 0.51685,-3.67153 0.71021,-0.52795 0.77586,-0.53247 1.52136,-0.10461 0.76533,0.43924 0.77912,0.43648 0.77912,-0.15588 0,-0.62626 0.83679,-1.54944 1.67281,-1.84552 0.2652,-0.0939 0.72974,-0.0383 1.03231,0.12364 0.48182,0.25787 0.5265,0.23312 0.35988,-0.19939 -0.48827,-1.26745 -0.94088,-3.82451 -0.94443,-5.33558 -0.004,-1.75038 0.46238,-3.04573 1.19857,-3.32824 1.32208,-0.50733 2.38224,0.17482 3.15828,2.03215 0.45047,1.07812 0.91308,5.04492 0.92408,7.92381 0.004,1.00969 0.12183,1.78594 0.27141,1.78594 0.14552,0 0.27337,-0.32742 0.2841,-0.72761 0.0107,-0.40018 0.10777,-2.51354 0.21563,-4.69635 0.21588,-4.36905 0.58616,-5.63964 1.80541,-6.19516 0.91303,-0.416 2.00905,0.026 2.44855,0.98752 0.74004,1.61897 0.79009,3.26281 0.22803,7.48887 -0.54973,4.13331 -0.54973,4.13331 0.0786,4.98509 0.53641,0.72724 0.62628,1.14805 0.61463,2.87815 -0.011,1.63255 -0.15536,2.33473 -0.74289,3.61308 -0.40109,0.8727 -0.99026,1.86499 -1.30927,2.2051 -0.34462,0.3674 -0.58003,0.95833 -0.58003,1.45599 0,0.69655 -0.1579,0.91486 -0.93764,1.29636 -1.15584,0.56551 -4.38759,0.92506 -6.3384,0.70519 z m 4.7503,-0.62253 c 1.61815,-0.34687 2.55911,-0.98535 2.23205,-1.51455 -0.0795,-0.12855 -0.58165,-0.16639 -1.116,-0.0841 -0.97156,0.14963 -0.97156,0.14963 0.18268,-0.43212 2.08065,-1.04868 3.47597,-3.76785 3.47597,-6.77388 0,-2.29131 -1.08808,-3.77422 -2.77085,-3.77629 -1.0548,-0.001 -7.46404,2.57581 -7.65707,3.07885 -0.085,0.22152 0.14589,0.68708 0.5325,1.07368 0.65493,0.65494 0.77482,0.67683 2.96074,0.54045 2.54258,-0.15863 2.44133,0.24155 -0.12295,0.48591 -1.18528,0.11294 -1.75524,0.0361 -2.46737,-0.3327 -0.50932,-0.26377 -1.04259,-0.74519 -1.18504,-1.06982 -0.32099,-0.73153 -0.93163,-1.0032 -0.93163,-0.41447 0,0.67088 -0.80366,1.40159 -1.54152,1.40159 -0.36617,0 -0.90108,-0.20836 -1.18868,-0.46302 -0.51593,-0.45685 -0.52055,-0.44185 -0.34641,1.12448 0.25092,2.25692 1.35168,4.3473 2.67974,5.08887 1.02664,0.57327 0.88205,0.87794 -0.15361,0.32367 -0.40331,-0.21584 -0.55156,-0.18253 -0.68025,0.15281 -0.23043,0.60051 0.35135,1.07368 1.89219,1.53895 1.668,0.50366 4.00619,0.52314 6.20551,0.0517 z m -7.71959,-8.49391 c 0.84201,-0.58977 0.75485,-1.82311 -0.27186,-3.84655 -0.76525,-1.50817 -0.94614,-1.6947 -1.6435,-1.6947 -0.56573,0 -0.8895,0.18868 -1.16451,0.67863 -0.33742,0.60117 -0.32559,0.85446 0.10365,2.21913 0.49258,1.56603 1.5034,3.05536 2.0737,3.05536 0.17297,0 0.5791,-0.18534 0.90252,-0.41187 z m 1.91096,-1.42107 c 0,-0.13499 0.47625,-0.45556 1.05833,-0.71237 0.60938,-0.26886 1.05833,-0.64945 1.05833,-0.89716 0,-0.90791 -0.83852,-3.19465 -1.41882,-3.8693 -0.48316,-0.5617 -0.75082,-0.6698 -1.31061,-0.5293 -0.3869,0.0971 -0.90506,0.48425 -1.15147,0.86031 -0.39025,0.5956 -0.40563,0.84221 -0.11927,1.91287 0.45961,1.71844 1.27166,3.48039 1.60405,3.48039 0.1537,0 0.27946,-0.11044 0.27946,-0.24544 z m 5.95312,-2.71177 c 0.9164,-0.36836 1.65521,-0.4869 2.40427,-0.38575 1.08135,0.14602 1.08135,0.14602 1.55973,-3.66659 0.27938,-2.22656 0.4095,-4.39425 0.31279,-5.21079 -0.20582,-1.73782 -0.89411,-2.72861 -1.89554,-2.72861 -1.61197,0 -2.23409,2.21026 -2.24364,7.97125 -0.004,2.56397 -0.0873,3.2768 -0.41341,3.54743 -0.24246,0.20122 -0.50095,0.24122 -0.6369,0.0985 -0.12585,-0.13208 -0.35842,-2.05128 -0.51682,-4.2649 -0.32716,-4.57197 -0.84013,-6.5026 -1.94392,-7.3162 -0.7276,-0.53632 -0.7276,-0.53632 -1.44096,-0.004 -0.39235,0.29293 -0.81483,0.88173 -0.93884,1.30843 -0.36321,1.24975 0.0136,3.88593 1.02983,7.20549 0.5212,1.70244 1.05845,3.48163 1.1939,3.95376 0.24628,0.85842 0.24628,0.85842 1.22644,0.44092 0.53908,-0.22962 1.57547,-0.65679 2.30307,-0.94926 z m 24.16932,12.64418 c -0.67687,-0.18232 -1.55274,-0.54252 -1.94639,-0.80045 -0.57014,-0.37357 -0.68674,-0.61383 -0.57326,-1.18123 0.1018,-0.50899 -0.0733,-1.03359 -0.61363,-1.83807 -0.88308,-1.31488 -1.32444,-3.11941 -1.32494,-5.41722 -4e-4,-1.79552 -0.45327,-4.65769 -1.30323,-8.23649 -0.69315,-2.91853 -0.6909,-3.86735 0.0113,-4.76001 0.43071,-0.54757 0.749,-0.69304 1.38061,-0.631 1.31694,0.12936 2.08831,1.65703 2.94827,5.83902 0.14736,0.71663 0.16594,0.72327 0.92502,0.33073 1.08608,-0.56163 1.52429,-0.50378 2.26876,0.29952 0.64883,0.70009 0.64883,0.70009 0.64883,0.0203 0,-0.37389 0.30824,-1.04612 0.68497,-1.49385 0.86577,-1.02891 1.96544,-1.09576 2.69832,-0.16405 0.51129,0.64999 0.51129,0.64999 0.69116,-1.52136 0.2259,-2.72684 0.59454,-3.97563 1.39579,-4.72837 0.85627,-0.80442 2.36383,-0.80344 3.01601,0.002 0.91176,1.12597 0.92353,2.75533 0.0519,7.18526 -0.80691,4.10104 -0.80691,4.10104 -0.24076,4.89479 0.47219,0.66201 0.56592,1.16703 0.56475,3.04271 -0.001,1.8639 -0.11838,2.49812 -0.68454,3.70417 -0.37573,0.80036 -0.98866,1.74788 -1.36208,2.1056 -0.52902,0.50677 -0.64967,0.83083 -0.54636,1.46748 0.0867,0.53411 -0.003,0.93 -0.26022,1.1431 -0.5771,0.47895 -3.78461,1.09747 -5.61206,1.0822 -0.87312,-0.007 -2.1413,-0.16243 -2.81818,-0.34475 z m 6.38088,-0.4493 c 1.38454,-0.29693 2.22856,-0.87407 2.04303,-1.39702 -0.1133,-0.31937 -0.37467,-0.32928 -1.63698,-0.0621 -0.6729,0.14242 -0.63258,0.0927 0.26487,-0.32686 1.46568,-0.68515 2.88647,-2.34903 3.45167,-4.04222 0.63702,-1.90835 0.66045,-4.40394 0.0501,-5.33556 -0.62729,-0.95747 -1.65568,-1.59761 -2.52677,-1.57284 -0.90484,0.0257 -7.20884,2.57028 -7.49797,3.02649 -0.29819,0.47052 -0.16727,0.75594 0.61446,1.33958 0.71596,0.53455 2.12897,0.65605 4.18844,0.36016 1.01811,-0.14627 1.09479,-0.12782 0.52917,0.12735 -0.3638,0.16413 -1.46336,0.31343 -2.44347,0.33179 -1.65302,0.0309 -1.7702,0.0717 -1.61893,0.56253 0.0897,0.29104 0.39369,0.85659 0.67555,1.25677 0.28185,0.40019 0.38355,0.72761 0.22598,0.72761 -0.35417,0 -1.33471,-1.56813 -1.33606,-2.13669 -5.4e-4,-0.2293 -0.29864,-0.69654 -0.66245,-1.03831 -0.3638,-0.34178 -0.66145,-0.85706 -0.66145,-1.14507 0,-0.28802 -0.31158,-1.18227 -0.69239,-1.98724 -0.3808,-0.80496 -0.79347,-2.26872 -0.91704,-3.2528 -0.32467,-2.58571 -0.95127,-5.11075 -1.56845,-6.32053 -0.43684,-0.85628 -0.6781,-1.05269 -1.29302,-1.05269 -0.41579,0 -0.90395,0.17829 -1.08481,0.39621 -0.43101,0.51934 -0.23763,2.53702 0.63404,6.61524 0.37324,1.74625 0.7507,4.42516 0.83881,5.95313 0.0881,1.52797 0.33109,3.3229 0.53996,3.98874 0.37764,1.20385 1.52531,2.53775 2.70566,3.1447 0.83894,0.43139 0.55392,0.64015 -0.32637,0.23906 -0.54004,-0.24606 -0.77515,-0.24791 -1.01504,-0.008 -0.42302,0.42302 0.13748,0.96645 1.5178,1.47158 1.27113,0.46517 5.12034,0.54049 7.00167,0.13702 z m -3.43041,-11.73846 c 0,-0.58971 -0.84079,-3.14587 -1.2303,-3.74033 -0.54383,-0.83 -1.11969,-0.98396 -1.86173,-0.49776 -1.07823,0.70648 -1.26284,1.46857 -0.74465,3.07395 0.25138,0.77879 0.62092,1.67778 0.82119,1.99777 0.36415,0.5818 0.36415,0.5818 1.68982,0.0309 0.72912,-0.30301 1.32567,-0.69203 1.32567,-0.8645 z m 3.14038,-1.03923 c 0.5404,-0.41958 0.24129,-3.46511 -0.42852,-4.36313 -0.28544,-0.38269 -0.69291,-0.7301 -0.90548,-0.77201 -0.67578,-0.13325 -1.77657,0.97117 -1.96405,1.97052 -0.15138,0.80694 0.24128,3.51968 0.59611,4.11823 0.12288,0.20729 2.11006,-0.49405 2.70194,-0.95361 z m 3.73879,-0.3457 c 0,-0.0506 0.29766,-1.46873 0.66146,-3.15139 0.9334,-4.3172 0.8539,-6.84795 -0.23805,-7.57706 -0.52819,-0.35268 -1.65738,-0.21044 -2.0682,0.26053 -0.93195,1.06842 -1.09794,1.85379 -1.27215,6.01927 -0.0974,2.32833 -0.14609,4.29286 -0.10827,4.36563 0.0767,0.14746 3.02521,0.22838 3.02521,0.083 z m -9.82354,-14.88755 c -1.8244,-0.33315 -2.34729,-0.69336 -2.34729,-1.617 0,-0.57274 -0.25388,-1.01544 -0.91544,-1.59629 -1.36626,-1.1996 -2.26877,-3.26015 -2.44427,-5.58061 -0.12514,-1.65466 -0.0621,-2.12211 0.41156,-3.0505 0.30763,-0.60301 0.65056,-1.15277 0.76205,-1.22168 0.1115,-0.0689 0.12439,-1.23784 0.0286,-2.59764 -0.55049,-7.81814 0.0491,-10.42335 2.35347,-10.22596 0.66911,0.0573 1.10297,0.29685 1.49749,0.82675 0.47737,0.64117 0.57405,1.23115 0.68775,4.19671 0.13098,3.41646 0.13728,3.44512 0.63632,2.89197 0.94593,-1.04853 2.32055,-0.57451 3.0484,1.05118 0.45972,1.02683 0.46991,1.0323 0.94455,0.50782 0.26931,-0.29758 0.81535,-0.53019 1.24459,-0.53019 0.9019,0 2.06364,1.04111 2.06364,1.84936 0,0.46228 0.082,0.50661 0.51177,0.27661 0.84446,-0.45194 1.53516,-0.31371 2.11486,0.42325 0.68142,0.86629 0.69112,1.63431 0.0407,3.22256 -0.27923,0.68182 -0.58227,2.06356 -0.67343,3.07054 -0.20807,2.29847 -0.99271,4.14991 -2.21268,5.22105 -0.61236,0.53766 -0.95032,1.07148 -0.95878,1.5144 -0.009,0.48363 -0.23377,0.79026 -0.76642,1.04658 -0.9201,0.44279 -4.35808,0.62593 -6.02746,0.32109 z m 5.731,-0.66007 c 1.05848,-0.44226 1.17295,-0.86113 0.32223,-1.1791 -0.56476,-0.21109 -0.54618,-0.24316 0.36199,-0.62486 0.52652,-0.22129 1.2592,-0.80194 1.62818,-1.29032 0.72765,-0.96314 1.51556,-3.30985 1.51556,-4.51397 0,-0.7416 -0.009,-0.74592 -0.66302,-0.3174 -0.55989,0.36685 -0.78677,0.38317 -1.45858,0.1049 -0.46178,-0.19128 -0.86167,-0.59298 -0.95316,-0.95749 -0.20203,-0.80493 -0.46023,-0.79329 -1.00985,0.0455 -0.24271,0.37043 -0.73266,0.80626 -1.08876,0.96851 -0.51042,0.23256 -0.64832,0.49603 -0.65152,1.24472 -0.002,0.52235 -0.11947,1.12831 -0.26053,1.3466 -0.1855,0.28704 -0.2576,0.0491 -0.26053,-0.8599 -0.004,-1.23647 -0.0179,-1.2571 -0.86395,-1.2771 -0.47294,-0.0112 -1.33615,-0.18133 -1.91823,-0.37809 -1.05833,-0.35775 -1.05833,-0.35775 0.39688,-0.21134 0.80036,0.0805 1.51474,0.14571 1.5875,0.14484 1.17571,-0.014 1.67877,-0.16932 2.30035,-0.71004 0.74198,-0.64546 0.74209,-0.64605 0.21319,-1.16981 -0.61549,-0.60951 -6.69507,-3.21148 -7.50372,-3.21148 -0.91791,0 -2.32285,1.45848 -2.64771,2.74861 -0.52827,2.09794 0.54666,5.7554 2.12348,7.22516 0.34287,0.31959 1.03926,0.76142 1.54755,0.98184 0.90329,0.39172 0.90773,0.40099 0.19654,0.41112 -1.28746,0.0183 -0.7997,1.26031 0.62726,1.59719 1.56196,0.36875 5.46441,0.29737 6.45885,-0.11813 z m 3.37553,-8.55107 c 0.70375,-0.77763 1.49878,-2.78016 1.50495,-3.79069 0.004,-0.62132 -0.17808,-1.1176 -0.52443,-1.43104 -0.79462,-0.71913 -1.65162,-0.19473 -2.49334,1.52567 -0.94307,1.92758 -1.12611,3.15135 -0.55654,3.72092 0.57646,0.57646 1.53559,0.56494 2.06936,-0.0249 z m -2.48452,-2.58825 c 0.34921,-0.72028 0.72009,-1.68088 0.82418,-2.13467 0.26737,-1.16568 -0.31308,-2.41692 -1.22771,-2.64648 -0.60746,-0.15246 -0.84293,-0.045 -1.42266,0.64947 -0.60524,0.72497 -1.58686,3.15583 -1.58686,3.92964 0,0.14701 0.47625,0.48204 1.05833,0.74453 0.58208,0.26248 1.05833,0.58814 1.05833,0.72369 0,0.62379 0.72193,-0.0813 1.29639,-1.26618 z m -3.4456,-1.55455 c 0.37455,-1.48747 0.38128,-3.20446 0.0153,-3.88841 -0.3676,-0.68686 -1.30594,-1.0327 -1.92333,-0.70887 -0.70923,0.37201 -1.23437,1.8448 -1.23437,3.46185 0,1.41474 0,1.41474 1.25677,1.95029 0.69122,0.29455 1.33142,0.4972 1.42266,0.45034 0.0913,-0.0469 0.2996,-0.61621 0.46302,-1.2652 z m -4.68133,-0.40256 c 0.4633,0.13287 0.90648,0.17748 0.98484,0.0991 0.0784,-0.0784 0.14577,-2.36827 0.14981,-5.0887 0.008,-5.463 -0.18156,-6.30829 -1.52132,-6.77945 -0.62164,-0.21862 -0.83283,-0.15889 -1.38282,0.39111 -1.17206,1.17205 -1.32341,3.12698 -0.76004,9.81718 0.14825,1.7605 0.14825,1.7605 0.9177,1.53983 0.42989,-0.12329 1.1412,-0.11406 1.61183,0.0209 z m -60.56284,13.37007 c -0.8982,-0.4077 -1.30732,-1.30767 -1.01424,-2.23108 0.12357,-0.38933 0.0199,-0.5737 -0.39714,-0.70605 -0.69609,-0.22093 -1.40485,-1.83015 -1.18749,-2.69617 0.11541,-0.45984 -0.0286,-0.86589 -0.509919,-1.43793 -0.682635,-0.81127 -0.882793,-2.12875 -0.431627,-2.84105 0.162063,-0.25587 -0.02658,-0.59091 -0.632042,-1.12251 -1.039763,-0.91292 -1.324307,-2.05573 -0.81522,-3.27415 0.589101,-1.40991 1.659675,-1.81441 5.127888,-1.93747 2.64801,-0.094 2.97293,-0.15633 2.81378,-0.54014 -0.68372,-1.6489 -0.84288,-4.42042 -0.33793,-5.88454 0.74522,-2.1608 2.39488,-3.26482 3.84175,-2.57107 1.10248,0.52863 1.41666,1.40012 1.23158,3.41631 -0.21728,2.36706 0.19552,3.46967 2.04082,5.45108 0.83976,0.90169 1.60065,1.87202 1.69087,2.15628 0.14537,0.45803 0.25584,0.48222 0.97105,0.21263 0.7328,-0.27622 0.86254,-0.23966 1.41099,0.39769 0.78759,0.91527 1.32487,3.74584 1.10689,5.83142 -0.27445,2.62581 -1.35702,4.44877 -2.45641,4.13642 -0.12421,-0.0353 -0.70537,0.42438 -1.29147,1.02148 -0.73621,0.75003 -1.5076,1.21688 -2.49541,1.51023 -0.78639,0.23353 -1.6505,0.42461 -1.92025,0.42461 -0.26975,0 -0.79396,0.19886 -1.16491,0.44192 -0.93166,0.61044 -4.43527,0.76241 -5.58156,0.24209 z m 4.15797,-0.17745 c 1.87588,-0.43209 2.97087,-1.80451 2.04969,-2.56902 -0.23201,-0.19256 -0.76818,-0.15979 -1.78594,0.10913 -0.79991,0.21136 -2.17892,0.361 -3.06447,0.33253 -1.68409,-0.0541 -2.22637,0.10656 -2.22637,0.6598 0,0.67099 0.73292,1.29984 1.74141,1.49415 1.48244,0.28562 1.94655,0.28187 3.28568,-0.0266 z m 5.60622,-1.85497 c 1.10116,-0.56178 1.77516,-1.42524 2.23739,-2.86634 0.30299,-0.94463 0.30299,-0.94463 0.33073,-0.0847 0.04,1.24009 0.8767,1.16669 1.5079,-0.13229 0.91259,-1.87807 0.70401,-7.44366 -0.31051,-8.28564 -0.58422,-0.48486 -1.52865,-0.18198 -1.70435,0.54657 -0.15952,0.66146 -0.15952,0.66146 -0.35681,-0.10676 -0.26304,-1.02424 -1.56118,-2.88083 -2.3974,-3.42874 -0.37017,-0.24254 -0.93616,-0.94526 -1.25777,-1.5616 -0.4836,-0.9268 -0.58715,-1.57043 -0.59871,-3.7216 -0.0122,-2.25978 -0.0814,-2.65027 -0.52758,-2.97657 -1.1203,-0.81922 -2.61095,-0.13285 -3.42159,1.57546 -0.79085,1.66659 -0.48077,5.62278 0.53307,6.80106 0.19767,0.22974 0.35941,0.47793 0.35941,0.55153 0,0.0736 -0.74414,0.0272 -1.65365,-0.10304 -1.88675,-0.27024 -4.40752,-0.0679 -5.656589,0.45396 -1.183597,0.49454 -1.787406,1.49378 -1.577796,2.6111 0.349888,1.86507 1.968105,2.52328 6.242195,2.53901 2.38391,0.009 3.24322,-0.089 3.96875,-0.45141 0.73823,-0.36878 0.92604,-0.6178 0.92604,-1.2278 0,-1.19295 -0.97095,-1.73577 -3.58672,-2.00518 l -2.23411,-0.2301 2.2959,0.045 c 1.8727,0.0367 2.43356,0.14739 3.04271,0.60035 0.78934,0.58695 1.14421,1.98144 0.65442,2.57159 -0.17476,0.21058 -0.14017,0.53215 0.10487,0.97491 0.55606,1.00473 0.4803,2.28329 -0.16195,2.73314 -0.54601,0.38244 -0.54593,0.38308 0.13229,1.06131 0.81584,0.81584 0.87204,1.76856 0.14322,2.42814 -0.36519,0.33048 -0.44931,0.57065 -0.26459,0.75538 0.14896,0.14896 0.27084,0.61746 0.27084,1.04111 0,0.74508 0.032,0.76427 0.97988,0.58645 0.53894,-0.1011 1.43016,-0.41354 1.98051,-0.6943 z m -4.7332,-1.18293 c 1.51123,-0.52096 2.21949,-1.39654 1.78555,-2.20736 -0.48328,-0.90302 -1.20144,-1.13867 -2.44756,-0.80313 -0.61034,0.16435 -2.30648,0.31763 -3.76921,0.34063 -2.65951,0.0418 -2.65951,0.0418 -2.73731,0.83557 -0.10197,1.04025 0.37578,1.65046 1.6688,2.13151 1.26464,0.47049 3.64606,0.34179 5.49973,-0.29722 z m -1.68335,-3.28635 c 1.91319,-0.36283 3.16856,-1.00994 3.34827,-1.72595 0.083,-0.3308 -0.0414,-0.97346 -0.27655,-1.42814 -0.38735,-0.74907 -0.48254,-0.79594 -1.01371,-0.4992 -0.59448,0.3321 -5.74726,0.47491 -7.59768,0.21056 -0.926045,-0.13229 -0.926045,-0.13229 -1.008359,1.01174 -0.04825,0.67055 0.06122,1.31698 0.264479,1.5619 0.88262,1.06349 3.41301,1.41347 6.28355,0.86909 z m -54.967357,4.88241 c -0.336633,-0.24261 -1.403397,-0.60668 -2.370587,-0.80904 -0.96719,-0.20236 -2.976765,-0.96296 -4.465722,-1.69021 -3.68104,-1.79793 -4.905012,-3.04644 -6.374051,-6.50179 -2.257916,-5.31089 -3.002347,-8.36445 -2.448388,-10.04296 0.338453,-1.02552 1.146168,-1.51756 2.087203,-1.27148 0.381774,0.0998 0.557562,0.0222 0.557562,-0.24624 0,-0.66754 1.063462,-1.78634 1.697988,-1.78634 0.330687,0 0.813329,0.23435 1.072538,0.52077 0.424364,0.46892 0.526515,0.48209 1.02592,0.13229 0.821498,-0.57539 1.601836,-0.47428 2.385183,0.30906 0.383646,0.38365 0.697538,0.78592 0.697538,0.89395 0,0.10802 0.339192,0.3369 0.753761,0.50862 1.316323,0.54524 1.916272,2.07055 2.688734,6.83583 0.303724,1.87366 0.743536,2.70573 1.430175,2.70573 0.185326,0 1.053177,0.46292 1.928557,1.0287 1.161001,0.75039 1.78041,0.99261 2.289488,0.89529 1.596663,-0.30522 2.790908,1.67758 2.404867,3.99279 -0.229548,1.37668 -1.186886,3.28742 -2.050677,4.09293 -0.866152,0.80772 -2.494036,1.02022 -3.310089,0.4321 z m 2.509418,-0.37205 c 1.911806,-1.16572 3.073248,-4.95738 2.096875,-6.84548 -0.351147,-0.67904 -0.599322,-0.84303 -1.27582,-0.84303 -0.653234,0 -0.769317,0.0706 -0.522372,0.3175 0.667261,0.66726 0.281239,0.80529 -0.410105,0.14664 -0.749254,-0.71382 -3.704732,-2.5808 -4.085476,-2.5808 -0.117702,0 -0.222702,0.26789 -0.233335,0.59531 -0.03517,1.08309 -0.951531,-1.97211 -1.411137,-4.70483 -0.537445,-3.19553 -1.308467,-4.91434 -2.367537,-5.27786 -0.652899,-0.22411 -0.827312,-0.17032 -1.286485,0.39674 -0.461634,0.57009 -0.514649,0.93316 -0.404882,2.77279 0.07623,1.27753 0.403724,2.94627 0.826006,4.20888 0.384834,1.15064 0.642356,2.14942 0.572269,2.21951 -0.356825,0.35682 -1.994318,-5.49948 -1.994318,-7.13245 0,-1.30696 0.57969,-2.86768 1.065128,-2.86768 0.397999,0 0.305457,-0.56711 -0.180094,-1.10364 -0.633127,-0.6996 -1.549114,-0.59891 -2.217514,0.24375 -0.529029,0.66695 -0.566613,0.94815 -0.450884,3.37343 0.06944,1.45521 0.386097,3.64189 0.703682,4.85929 0.638398,2.44717 0.564422,3.2855 -0.09421,1.06765 -0.847883,-2.85513 -1.271468,-5.86946 -1.097002,-7.80652 0.186719,-2.07309 -0.07782,-2.60219 -1.220055,-2.4402 -0.442997,0.0628 -0.707604,0.37577 -0.96795,1.14479 -0.285581,0.84355 -0.299792,1.51472 -0.07003,3.30729 0.158545,1.23692 0.594261,3.3039 0.968258,4.59329 0.373996,1.28938 0.626009,2.39831 0.560027,2.46429 -0.156943,0.15695 -1.11162,-2.75639 -1.619101,-4.94092 -0.219735,-0.94588 -0.401279,-2.26152 -0.40343,-2.92364 -0.0022,-0.66212 -0.146786,-1.34673 -0.321411,-1.52136 -0.872146,-0.87214 -2.06375,0.17191 -2.06375,1.80821 0,1.47143 0.926056,4.66328 2.310983,7.9653 1.045654,2.4931 1.510032,3.25878 2.72222,4.48845 1.537469,1.55964 3.888345,2.86051 7.137631,3.94962 1.28776,0.43164 2.085356,0.54002 3.175,0.43144 1.140283,-0.11364 1.34069,-0.0826 0.926041,0.14354 -0.786073,0.42866 -0.813572,0.48165 -0.389212,0.75003 0.586272,0.37077 1.095793,0.30542 2.021988,-0.25933 z m 91.070239,-0.28306 c -0.23667,-0.13826 -1.12964,-0.44713 -1.98437,-0.68638 -1.16708,-0.32668 -2.80586,-0.44326 -6.58115,-0.46818 -4.50308,-0.0297 -5.06312,0.0151 -5.37281,0.42984 -0.60188,0.80607 -1.79406,0.57455 -3.0626,-0.59476 -1.68669,-1.55473 -2.85716,-3.91416 -3.01144,-6.07047 -0.0986,-1.3783 -0.0369,-1.82408 0.29027,-2.09558 0.22855,-0.18967 0.62928,-0.3037 0.89053,-0.25339 0.34422,0.0663 0.62766,-0.23727 1.02952,-1.10263 0.62963,-1.3558 1.89844,-2.58034 4.22735,-4.07985 1.66781,-1.07386 2.29888,-1.84738 3.15003,-3.86113 0.27678,-0.65484 0.67794,-1.39898 0.89147,-1.65365 0.61659,-0.73535 1.58366,-0.56142 2.61549,0.47041 0.84611,0.84612 0.91962,1.03639 0.7858,2.03411 -0.0812,0.60537 -0.50616,1.79584 -0.94436,2.6455 -0.79673,1.54482 -0.79673,1.54482 0.57681,1.33933 0.75544,-0.11302 2.68322,-0.20421 4.28394,-0.20265 3.41479,0.003 5.20127,0.49917 6.62031,1.8375 1.00835,0.951 1.19832,1.9449 0.50438,2.63885 -0.37821,0.3782 -0.3662,0.47918 0.13229,1.11291 0.81854,1.0406 0.71984,2.28625 -0.24552,3.09855 -0.6121,0.51504 -0.79375,0.88654 -0.79375,1.62332 0,0.77865 -0.14327,1.03766 -0.77435,1.39985 -0.57198,0.32827 -0.76897,0.63382 -0.75375,1.16915 0.0113,0.39861 -0.13103,0.90746 -0.31637,1.13078 -0.3753,0.4522 -1.49747,0.52427 -2.15772,0.13857 z m 1.88312,-0.39109 c 0.42208,-0.50858 0.14468,-2.04544 -0.46579,-2.5805 -0.9111,-0.79857 -2.24319,-1.29098 -4.50368,-1.66482 -2.30417,-0.38107 -2.30417,-0.38107 -0.24213,-0.25454 2.1841,0.13402 4.30222,0.8575 5.10386,1.7433 0.57855,0.6393 1.33797,0.6476 1.67475,0.0183 0.29401,-0.54935 0.11863,-1.47913 -0.44349,-2.35115 -0.64213,-0.99615 -2.87856,-1.89454 -5.35445,-2.15092 -2.24896,-0.23289 -2.24896,-0.23289 -0.37875,-0.26805 2.40669,-0.0452 4.37719,0.54776 5.65436,1.70161 0.99463,0.89859 1.02021,0.90547 1.60481,0.4321 1.13462,-0.91876 0.48388,-2.69464 -1.32417,-3.61371 -1.02516,-0.5211 -3.20249,-0.96773 -5.88603,-1.20736 -2.44834,-0.21863 -2.44834,-0.21863 0.59437,-0.14353 2.77028,0.0684 3.67148,0.23902 5.60193,1.06076 0.28698,0.12216 0.6412,-0.0102 1.00757,-0.37661 0.55506,-0.55506 0.55649,-0.57956 0.0814,-1.39312 -0.26813,-0.4591 -1.01834,-1.09477 -1.68357,-1.42651 -1.57725,-0.78656 -4.45287,-1.23448 -6.59478,-1.02724 -2.01111,0.1946 -4.60477,0.62329 -5.24202,0.86643 -0.29223,0.1115 -0.18091,-0.14499 0.32213,-0.74224 1.03747,-1.23175 2.00373,-3.36485 2.00689,-4.43036 0.003,-1.06021 -0.99809,-2.17079 -1.95704,-2.17079 -0.56971,0 -0.80478,0.30733 -1.7059,2.23027 -1.0178,2.17193 -1.10292,2.26835 -3.25387,3.68568 -1.21481,0.80048 -2.52984,1.79115 -2.9223,2.2015 -0.94136,0.98426 -1.57905,2.55806 -1.40208,3.4603 0.13379,0.68213 0.12417,0.69081 -0.16136,0.1455 -0.42645,-0.81445 -1.07763,-0.99895 -1.50609,-0.42671 -0.48321,0.64536 -0.20618,2.72286 0.59908,4.49251 0.34268,0.75309 1.11423,1.90211 1.71454,2.55337 1.24698,1.35281 2.26413,1.74611 2.892,1.11824 0.37548,-0.37548 0.32201,-0.48965 -0.57598,-1.22984 -1.05343,-0.86833 -1.77923,-2.0239 -1.76223,-2.8057 0.006,-0.27612 0.17766,-0.0904 0.4086,0.44201 0.53056,1.22319 1.09178,1.80957 2.34333,2.44832 0.92653,0.47287 1.6035,0.53651 6.08542,0.57207 4.71995,0.0375 5.16153,0.0839 6.895,0.72547 2.27608,0.84238 2.37004,0.85477 2.77572,0.36595 z M 76.952454,172.6262 c -0.364744,-0.11968 -1.019588,-0.39834 -1.455208,-0.61925 -0.435621,-0.22091 -1.560826,-0.48579 -2.500457,-0.58862 -2.127982,-0.23287 -3.198606,-0.67005 -3.935699,-1.60711 -0.820564,-1.04318 -0.788836,-2.8479 0.06508,-3.70182 0.35127,-0.35127 0.935031,-0.71305 1.297247,-0.80396 0.539344,-0.13537 0.676831,-0.35672 0.75941,-1.22265 0.07892,-0.8275 -0.0066,-1.11488 -0.393604,-1.32197 -0.271942,-0.14554 -0.662954,-0.66793 -0.868916,-1.16086 -0.753512,-1.80341 -0.324004,-3.7345 1.221015,-5.48974 1.329099,-1.50993 2.737735,-2.07521 5.020102,-2.01454 0.94533,0.0251 2.764802,0.0182 4.04327,-0.0154 2.061183,-0.0542 2.490443,0.0201 3.789577,0.65573 1.594703,0.78021 2.819171,2.19688 3.288155,3.80429 0.832654,2.85385 0.562991,5.20393 -0.959748,8.36411 -1.339209,2.77929 -2.541365,4.249 -4.136787,5.05746 -1.47143,0.74563 -4.00533,1.06728 -5.233439,0.66432 z m 4.65067,-0.92773 c 1.549365,-0.72146 2.64599,-1.94789 3.923249,-4.38765 1.928847,-3.68438 2.189132,-6.48709 0.870036,-9.36837 -1.396536,-3.05044 -4.891085,-4.22639 -9.385333,-3.15825 -1.376586,0.32717 -1.80907,3.25668 -0.480784,3.25668 1.27567,0 3.271865,0.83798 4.723354,1.98281 0.836745,0.65996 1.521354,1.33159 1.521354,1.49251 0,0.16093 -0.506015,-0.11301 -1.124479,-0.60874 -0.618464,-0.49573 -1.430743,-1.09427 -1.805066,-1.33008 -1.110485,-0.69958 -2.76468,-1.08998 -3.797465,-0.89623 -1.234956,0.23168 -2.79799,1.58906 -2.79799,2.42985 0,0.58776 0.101414,0.63447 1.389063,0.63986 1.616972,0.007 3.133662,0.62585 4.5241,1.84667 1.185472,1.04086 1.078797,1.42251 -0.116485,0.41675 -1.102545,-0.92773 -2.516628,-1.62545 -3.746779,-1.84869 -1.256707,-0.22806 -3.277795,0.59941 -3.601525,1.47454 -0.308115,0.83291 -0.06793,1.5445 0.521314,1.5445 1.083361,0 5.555981,2.17711 5.201291,2.5318 -0.06179,0.0618 -1.031949,-0.36352 -2.155902,-0.94514 -1.631692,-0.84437 -2.326776,-1.05749 -3.448841,-1.05749 -1.95795,0 -2.799569,0.67479 -2.799569,2.24464 0,0.95325 0.135991,1.26233 0.801966,1.82271 0.771914,0.64952 2.275626,1.21976 3.224626,1.22284 0.315643,0.001 0.403044,-0.13319 0.285766,-0.43881 -0.184628,-0.48113 0.02058,-0.39916 1.263067,0.50449 1.886133,1.37177 4.845462,1.63719 7.011032,0.6288 z m -8.881301,-10.31458 c 0.0016,-0.8959 0.973622,-2.25331 1.94549,-2.71677 0.849403,-0.40505 0.88559,-0.48006 0.761735,-1.5789 -0.09077,-0.80531 0.0019,-1.35492 0.306768,-1.82028 0.4368,-0.66664 0.4368,-0.66664 -0.610409,-0.66664 -1.348253,0 -2.347401,0.38586 -3.297833,1.2736 -1.965412,1.83577 -2.357215,5.36749 -0.728646,6.56803 0.553204,0.40781 1.621547,-0.28935 1.622895,-1.05904 z m 92.470887,-16.53561 c -1.16257,-0.30649 -1.93546,-0.7737 -2.24896,-1.35948 -0.21447,-0.40074 -0.17119,-0.62247 0.19237,-0.98575 0.44901,-0.44865 0.41813,-0.50346 -0.72154,-1.28054 -1.53064,-1.04366 -2.7871,-2.9085 -3.19863,-4.74742 -0.25611,-1.14443 -0.25677,-1.75853 -0.003,-2.89201 0.36831,-1.64577 1.15147,-2.79428 1.9054,-2.79428 0.4817,0 0.50379,-0.123 0.3208,-1.78594 -0.1081,-0.98227 -0.20071,-3.27891 -0.20581,-5.10366 -0.0106,-3.80104 0.24451,-4.48916 1.86236,-5.0231 0.8472,-0.2796 1.04869,-0.25529 1.65872,0.20017 0.94496,0.70551 1.36245,2.27729 1.55081,5.83851 0.11034,2.08608 0.242,2.90565 0.43567,2.71198 0.45381,-0.45381 1.97988,-0.32146 2.51989,0.21855 0.27285,0.27285 0.54397,0.63973 0.60249,0.81528 0.0773,0.23187 0.32567,0.19335 0.90784,-0.14077 1.19269,-0.68451 2.16745,-0.34534 2.71435,0.94446 0.34277,0.8084 0.55421,1.00771 0.96776,0.91224 1.24661,-0.28777 1.7198,0.82476 1.7198,4.04346 0,3.93098 -0.94444,6.90614 -2.44768,7.71065 -0.41401,0.22157 -0.61064,0.56051 -0.60435,1.04173 0.0145,1.11167 -1.40515,1.66795 -4.56227,1.78765 -1.41469,0.0536 -2.92935,0.003 -3.36591,-0.11173 z m 5.94271,-0.58606 c 0.64911,-0.14958 1.32664,-0.3935 1.50562,-0.54204 0.46188,-0.38332 0.14028,-1.02015 -0.53133,-1.05214 -0.4213,-0.0201 -0.34391,-0.0985 0.30118,-0.30524 1.21727,-0.39009 2.34957,-1.79186 2.85679,-3.53663 0.54385,-1.87076 0.64996,-6.59409 0.1672,-7.44206 -0.43461,-0.76341 -1.33029,-0.7721 -1.61013,-0.0156 -0.18097,0.48922 -0.23808,0.40343 -0.36592,-0.5497 -0.0833,-0.62117 -0.35862,-1.35828 -0.61179,-1.63803 -0.89512,-0.9891 -2.5155,-0.4454 -2.82107,0.94658 -0.0829,0.37763 -0.17517,0.24372 -0.32222,-0.46767 -0.21486,-1.03945 -1.19487,-2.04587 -1.99217,-2.04587 -0.58171,0 -1.19635,0.7126 -1.48337,1.71979 -0.15965,0.56023 -0.27215,-0.49062 -0.38241,-3.57188 -0.17531,-4.89931 -0.51611,-6.20592 -1.69592,-6.50204 -0.85337,-0.21418 -1.91839,0.44298 -2.30563,1.42265 -0.18472,0.46733 -0.2268,2.31243 -0.12186,5.34398 0.0882,2.54661 0.21807,5.16599 0.28872,5.82083 0.11218,1.03981 0.0995,1.08 -0.10024,0.3173 -0.29373,-1.12166 -0.40025,-1.21228 -1.02931,-0.87562 -0.73349,0.39255 -1.37785,2.17583 -1.37481,3.80482 0.004,2.39248 1.35189,4.60849 3.78881,6.23117 1.01326,0.67471 1.01326,0.67471 0.42172,1.12092 -0.75853,0.57215 -0.53011,1.20914 0.61147,1.70525 1.02597,0.44586 5.06796,0.51193 6.80667,0.11125 z m -62.29896,-0.15506 c -0.29104,-0.0773 -0.63837,-0.24416 -0.77184,-0.37078 -0.13347,-0.12662 -0.91478,-0.15997 -1.73624,-0.0741 -1.09818,0.11478 -1.71065,0.0438 -2.31365,-0.26798 -0.98591,-0.50984 -1.92515,-1.64289 -1.92515,-2.32242 0,-0.36172 -0.19428,-0.49375 -0.7276,-0.49448 -1.07049,-0.001 -2.425196,-0.93958 -2.860193,-1.98068 -0.495805,-1.18663 -0.48597,-3.47499 0.02111,-4.91221 0.949401,-2.69089 2.557433,-3.72234 4.993893,-3.20329 0.743,0.15829 1.9712,0.3456 2.72933,0.41626 1.37841,0.12846 1.37841,0.12846 0.17018,-1.51146 -3.0258,-4.10689 -3.61093,-7.03951 -1.78488,-8.9455 1.50118,-1.56689 3.1968,-0.64679 4.29076,2.32829 0.68899,1.87373 3.98643,7.70169 5.15227,9.10621 0.60047,0.72341 1.05768,1.02231 1.56893,1.02568 0.92134,0.006 1.40622,0.75062 1.76016,2.70269 0.31943,1.76173 0.0484,3.86631 -0.72225,5.6085 -0.55608,1.25711 -1.19138,1.74775 -2.26304,1.74775 -0.36889,0 -1.12526,0.23693 -1.68082,0.5265 -1.0581,0.55151 -2.99926,0.86054 -3.90097,0.62103 z m 4.26557,-1.37845 c 0.66098,-0.4659 1.13054,-0.73183 1.04348,-0.59095 -0.29585,0.47869 0.36095,0.58046 1.14143,0.17686 1.14673,-0.593 1.75215,-2.3843 1.74931,-5.17582 -0.002,-1.64592 -0.12765,-2.47953 -0.46981,-3.10886 -0.58061,-1.06787 -1.24284,-1.13738 -1.2604,-0.13229 -0.0127,0.72761 -0.0127,0.72761 -0.46302,-0.096 -0.24767,-0.453 -0.89035,-1.4055 -1.42817,-2.11667 -1.29752,-1.71575 -4.35089,-7.12433 -5.01636,-8.88576 -0.90178,-2.38688 -2.00493,-3.11671 -3.31937,-2.19604 -0.75923,0.53179 -1.23307,2.05235 -1.01004,3.24123 0.33963,1.8104 1.94174,4.48024 4.75413,7.92254 0.69106,0.84584 0.69106,0.84584 -0.57389,0.13229 -1.1101,-0.6262 -1.55132,-0.71341 -3.60435,-0.7124 -2.162,0.001 -2.37917,0.0502 -2.86371,0.64863 -0.40362,0.49844 -0.48395,0.86361 -0.34898,1.58636 0.0964,0.51637 0.21701,0.98124 0.26795,1.03303 0.0509,0.0518 0.63591,-0.11331 1.29992,-0.3669 0.89354,-0.34125 1.66045,-0.4247 2.9509,-0.32112 2.62081,0.21037 2.54235,0.60501 -0.10315,0.51883 -1.93948,-0.0632 -2.43991,0.01 -3.1696,0.46314 -1.09603,0.68073 -1.43191,1.52729 -1.09298,2.7548 0.2469,0.89418 0.76885,1.55984 0.76885,0.98053 0,-0.7947 3.71361,-1.54225 5.55625,-1.11847 0.7454,0.17142 0.42452,0.2369 -1.64494,0.33564 -2.2493,0.10731 -2.65484,0.20144 -3.24115,0.75225 -0.41396,0.38889 -0.67016,0.91865 -0.67016,1.38571 0,1.21118 0.68528,2.52154 1.55351,2.97052 0.7415,0.38344 3.2167,0.58312 3.51616,0.28366 0.0719,-0.0719 0.0777,-0.49222 0.0129,-0.93397 -0.0984,-0.67068 -0.21094,-0.77779 -0.682,-0.64927 -0.5518,0.15056 -0.5529,0.14496 -0.0505,-0.25665 0.57992,-0.4636 1.62106,-0.54499 1.86765,-0.14599 0.0899,0.14552 -0.0221,0.26458 -0.24896,0.26458 -0.66395,0 -0.5284,1.47373 0.18282,1.98771 0.9671,0.69889 3.13091,0.40177 4.5963,-0.63113 z m -11.20351,-3.01023 c 0.0647,-0.1819 -0.11491,-0.79387 -0.39909,-1.35993 -0.37433,-0.74562 -0.47471,-1.32883 -0.3643,-2.11666 0.20487,-1.4619 0.20484,-1.44115 0.004,-2.87127 -0.18919,-1.34711 0.0777,-1.92641 1.07357,-2.33006 0.45074,-0.18271 0.39984,-0.22095 -0.31272,-0.23499 -0.62476,-0.0123 -1.08502,0.21716 -1.73078,0.86293 -0.929204,0.9292 -1.784815,3.09356 -1.782298,4.50849 0.0025,1.39181 0.509846,2.76145 1.233945,3.33102 0.763533,0.6006 2.095183,0.72365 2.277683,0.21047 z m -56.826645,0.47596 c -1.320077,-0.40242 -3.088165,-1.29981 -4.59552,-2.33245 -1.779441,-1.21904 -4.697727,-4.07764 -5.062973,-4.95943 -0.180169,-0.43496 -0.473276,-0.79085 -0.651349,-0.79085 -0.463156,0 -1.129324,-0.80988 -1.330976,-1.61811 -0.251259,-1.00706 0.285741,-2.69487 1.263125,-3.97005 1.020287,-1.33115 3.435713,-3.04759 4.594611,-3.265 0.978373,-0.18355 2.139971,0.2744 2.346488,0.92508 0.178352,0.56194 4.388841,2.01242 6.594039,2.2716 0.89568,0.10527 2.446522,0.034 3.782119,-0.17374 2.241624,-0.34872 2.268737,-0.34621 2.755398,0.25479 0.593371,0.73278 0.62688,1.63574 0.09861,2.6573 -0.514441,0.99482 -1.556501,1.71561 -3.183249,2.20185 -1.31866,0.39415 -1.31866,0.39415 -0.52491,0.72344 0.436562,0.18111 2.084292,0.40242 3.661621,0.4918 2.577209,0.14603 2.918254,0.22475 3.36499,0.77669 1.24298,1.53571 0.75501,3.68331 -1.024887,4.51063 -0.536052,0.24916 -1.391359,0.71561 -1.900682,1.03655 -0.509323,0.32094 -1.127596,0.58397 -1.373939,0.58452 -0.246344,5.4e-4 -0.841656,0.22581 -1.322917,0.50058 -0.70533,0.40271 -1.413772,0.49939 -3.653144,0.49851 -1.527969,-6e-4 -3.254375,-0.14627 -3.836459,-0.32371 z m 4.045492,-0.31476 c 0.650272,-0.17419 1.378467,-1.32548 1.378467,-2.17937 0,-0.73008 -1.130587,-1.54137 -2.455185,-1.7618 -1.558619,-0.25937 -3.778458,-1.11883 -4.199219,-1.62582 -0.263548,-0.31755 -0.07061,-0.281 0.763845,0.1447 0.614053,0.31327 1.954996,0.74597 2.979874,0.96156 1.024878,0.21559 2.15998,0.5863 2.522449,0.8238 0.968469,0.63456 1.113828,1.59882 0.422182,2.80058 -0.578914,1.00588 -0.578914,1.00588 0.375381,1.00588 1.376602,0 2.501089,-1.17178 2.501089,-2.60627 0,-0.83222 -0.151106,-1.17835 -0.704448,-1.6136 -0.387447,-0.30477 -0.952993,-0.60089 -1.256771,-0.65804 -2.744338,-0.51635 -3.869056,-0.81286 -4.71951,-1.2442 -0.545703,-0.27677 -0.992187,-0.60367 -0.992187,-0.72644 0,-0.12277 0.543977,0.0522 1.208838,0.38877 0.664862,0.33659 1.76619,0.68847 2.447396,0.78194 2.316432,0.31784 3.174605,0.64923 3.893403,1.50347 0.595081,0.70722 0.6885,1.02549 0.580982,1.97938 -0.11216,0.99508 -0.06372,1.13666 0.388901,1.13666 0.28436,0 0.865047,-0.34803 1.290416,-0.7734 0.601872,-0.60187 0.773397,-1.01263 0.773397,-1.85208 0,-1.58882 -0.588366,-2.03947 -2.946712,-2.25702 -2.494159,-0.23008 -4.494973,-0.78904 -5.290028,-1.47785 -0.626802,-0.54304 -0.626802,-0.54304 0.431532,-0.0393 1.40896,0.67062 2.226155,0.85495 4.880689,1.10093 1.992625,0.18464 2.304048,0.28753 2.873224,0.94924 0.524291,0.60952 0.615361,0.94625 0.509623,1.88435 -0.07081,0.62822 -0.01889,1.14221 0.115366,1.14221 0.13426,0 0.536353,-0.29224 0.893541,-0.64943 0.889802,-0.8898 0.902274,-2.56136 0.02565,-3.43798 -0.569071,-0.56907 -0.843756,-0.62303 -3.13193,-0.61527 -2.169866,0.007 -2.724043,-0.0884 -4.108843,-0.70983 -0.880381,-0.39509 -2.001091,-1.14943 -2.490466,-1.6763 -0.856486,-0.9221 -0.463463,-0.76556 0.754437,0.30049 0.471417,0.41265 0.820493,0.48068 1.786784,0.34823 1.513737,-0.20748 3.182936,-1.04854 3.726064,-1.87746 0.250007,-0.38156 0.384444,-1.0446 0.334599,-1.65024 -0.08332,-1.01241 -0.08332,-1.01241 -1.538532,-0.97341 -5.524082,0.14808 -5.666748,0.13772 -7.9375,-0.57653 -1.236927,-0.38907 -2.963333,-0.7901 -3.836458,-0.89119 -1.568805,-0.18163 -1.576929,-0.18687 -0.689826,-0.44534 0.84779,-0.24701 0.87247,-0.28675 0.444122,-0.7151 -0.249454,-0.24945 -0.806978,-0.45355 -1.238944,-0.45355 -1.674334,0 -4.575964,2.13685 -5.503551,4.05299 -0.705466,1.4573 -0.727447,3.11494 -0.04944,3.72852 0.484996,0.43892 0.509477,0.41678 0.68448,-0.61906 0.26073,-1.54325 0.60825,-1.56339 0.460594,-0.0267 -0.164383,1.71076 0.453186,2.70198 3.083724,4.9495 2.205256,1.88415 4.420436,3.28207 6.175698,3.89724 1.171913,0.41073 3.32778,0.53476 4.382802,0.25214 z m 24.322472,-0.37176 c -0.550432,-0.13627 -1.348337,-0.42749 -1.773121,-0.64715 -0.619495,-0.32035 -0.907283,-0.3379 -1.454255,-0.0887 -0.576395,0.26263 -0.793329,0.22832 -1.401878,-0.22171 -1.640401,-1.21307 -2.675637,-4.5613 -2.199055,-7.11232 0.263276,-1.40925 0.90188,-2.07407 1.7808,-1.85392 0.475915,0.11921 0.593367,-0.002 0.73597,-0.76264 0.372339,-1.98474 4.340261,-5.18903 5.927124,-4.78645 0.389465,0.0988 1.749377,0.16113 3.022028,0.1385 3.761845,-0.0669 5.491298,0.78762 5.491298,2.71325 0,1.03283 0,1.03283 1.073256,0.11416 1.596663,-1.36669 2.932563,-1.43688 3.879267,-0.20383 0.437646,0.57002 0.417184,1.85145 -0.04367,2.73491 -0.298614,0.57244 -0.307012,0.7276 -0.03938,0.7276 0.556391,0 1.215942,0.9154 1.215942,1.68762 0,0.90811 -0.624118,2.13231 -1.344228,2.63669 -0.432929,0.30324 -0.496144,0.49486 -0.290199,0.87967 0.328591,0.61398 -0.150755,1.8289 -1.047429,2.65475 -1.415287,1.30349 -2.413922,1.50951 -7.636894,1.57549 -2.692136,0.034 -5.345145,-0.0497 -5.895578,-0.18593 z m 11.127173,-0.68162 c 1.734609,-0.47607 2.970728,-1.53643 3.046754,-2.61354 0.04846,-0.68659 -0.04262,-0.8051 -0.674629,-0.87777 -0.40186,-0.0462 -1.386585,0.1614 -2.188277,0.46135 -0.801692,0.29995 -2.139772,0.60368 -2.973512,0.67495 -1.636378,0.13988 -1.444483,0.0571 1.791402,-0.77289 3.720531,-0.95428 4.371699,-1.20734 4.96705,-1.9303 0.44517,-0.54059 0.582652,-1.00531 0.529167,-1.78868 -0.05905,-0.86484 -0.17965,-1.0736 -0.659671,-1.14184 -0.323077,-0.0459 -1.335109,0.33049 -2.248959,0.83649 -2.07597,1.14948 -6.440411,2.54538 -5.617066,1.79653 0.138245,-0.12573 0.846667,-0.37304 1.574271,-0.54957 1.785453,-0.43318 4.760052,-2.02801 5.563523,-2.98288 0.898707,-1.06805 0.908939,-2.6744 0.02074,-3.25637 -0.876273,-0.57415 -1.704291,-0.30338 -3.338851,1.09186 -1.510107,1.289 -3.004007,2.22434 -4.626665,2.89678 -1.444564,0.59863 -1.060783,0.27448 1.221584,-1.03178 1.386261,-0.7934 1.98687,-1.30419 2.160916,-1.83776 0.606044,-1.85794 -0.632204,-2.95578 -3.653093,-3.23886 -1.539432,-0.14426 -2.102495,-0.0892 -2.885571,0.28245 -0.80226,0.3807 -0.958861,0.58286 -0.892755,1.15248 0.06451,0.55588 0.400491,0.84584 1.720156,1.48456 0.901993,0.43656 1.646133,0.89007 1.653646,1.0078 0.0075,0.11773 -0.112907,0.13583 -0.267597,0.0402 -0.154691,-0.0956 -0.498518,0.0228 -0.76406,0.2631 -0.265543,0.24031 -1.078073,0.66312 -1.805623,0.93957 -1.3054,0.49601 -1.328977,0.49582 -1.790489,-0.0141 -0.257218,-0.28423 -0.647648,-0.51677 -0.86762,-0.51677 -0.233256,0 0.02295,-0.36557 0.614729,-0.87712 0.829874,-0.71737 1.02256,-1.06674 1.057954,-1.91823 0.0238,-0.57261 0.135553,-1.24947 0.248336,-1.50413 0.16652,-0.376 0.07344,-0.46302 -0.495246,-0.46302 -2.199134,0 -5.696502,3.27499 -5.71036,5.34727 -0.0022,0.33322 -0.119468,0.78445 -0.260532,1.00273 -0.2074,0.32093 -0.257256,0.28295 -0.260532,-0.19844 -0.0031,-0.4591 -0.1569,-0.59531 -0.672058,-0.59531 -0.832443,0 -1.184077,0.81587 -1.184077,2.74732 0,2.83332 1.413735,5.71934 2.801645,5.71934 0.731365,0 0.779326,-0.18769 0.232649,-0.91046 -0.213653,-0.28248 -0.388015,-0.69919 -0.387471,-0.92604 5.51e-4,-0.23002 0.22317,-0.0481 0.503313,0.41132 0.644728,1.05732 2.446476,1.92413 4.568725,2.198 2.314967,0.29875 8.261287,0.0547 9.948151,-0.40823 z m -7.828878,-9.7819 c 1.353875,-0.68606 1.353875,-0.68606 0.204676,-1.20057 -1.149198,-0.51451 -1.149198,-0.51451 -1.937233,0.27353 -0.666063,0.66606 -0.735042,0.85188 -0.445659,1.20057 0.188307,0.22689 0.450818,0.41253 0.583358,0.41253 0.13254,0 0.850226,-0.30872 1.594858,-0.68606 z m 64.896456,9.64289 c -0.85324,-0.46252 -1.46631,-0.56346 -3.29709,-0.54283 -1.59762,0.018 -2.6321,-0.11767 -3.57188,-0.46844 -0.7276,-0.27158 -1.82356,-0.62579 -2.43547,-0.78714 -1.39673,-0.36828 -2.60566,-1.36989 -3.01297,-2.49629 -0.25912,-0.7166 -0.52218,-0.92365 -1.5087,-1.18751 -0.75308,-0.20141 -1.57096,-0.69568 -2.21209,-1.3368 -0.8815,-0.8815 -1.01722,-1.17768 -1.01722,-2.21978 0,-0.97349 0.12835,-1.30351 0.67388,-1.73262 0.97125,-0.76399 1.91173,-0.89021 3.51527,-0.4718 1.72797,0.45088 2.65889,0.27078 5.4488,-1.05414 1.69761,-0.80619 2.34112,-0.97497 3.66955,-0.96246 1.01941,0.01 1.83655,-0.13266 2.22539,-0.38744 0.46939,-0.30755 1.14067,-0.37499 2.84325,-0.28563 1.89584,0.0995 2.51777,0.26051 4.1633,1.07779 2.62836,1.30542 3.65431,2.27987 3.65431,3.47086 0,0.50894 -0.12391,1.00192 -0.27535,1.09551 -0.15144,0.0936 -0.20247,0.3998 -0.11339,0.68045 0.0891,0.28064 0.16195,1.16202 0.16195,1.9586 0,1.01368 -0.17947,1.76765 -0.59801,2.51235 -1.0003,1.77979 -4.34115,3.70549 -6.42857,3.70549 -0.46025,0 -1.30849,-0.25567 -1.88496,-0.56817 z m 4.8462,-0.76713 c 1.88108,-0.93999 3.08089,-2.19398 3.52845,-3.68782 0.48343,-1.61354 -0.0626,-3.7065 -1.30877,-5.01648 -0.76802,-0.80736 -1.24121,-1.06126 -2.26352,-1.21457 -0.71089,-0.1066 -2.19423,-0.12563 -3.29632,-0.0423 -1.1929,0.0902 -1.85174,0.0576 -1.62805,-0.0807 0.31581,-0.19518 0.2984,-0.3177 -0.10915,-0.76804 -0.26669,-0.29469 -1.00709,-0.73524 -1.64533,-0.97898 -1.68245,-0.64253 -3.5154,-0.37932 -5.84972,0.84002 -2.04231,1.06681 -3.01937,1.18898 -6.20121,0.77538 -1.391,-0.18081 -1.55259,-0.14488 -2.18281,0.48534 -1.61003,1.61003 -0.26549,3.80949 2.92251,4.78077 0.48976,0.14921 0.58161,0.0383 0.72843,-0.87992 0.1806,-1.12942 0.93828,-1.87327 1.90811,-1.87327 0.31111,0 0.97854,0.28019 1.48317,0.62264 0.91751,0.62264 0.91751,0.62264 1.47211,0 0.30503,-0.34245 0.8315,-0.62219 1.16994,-0.62165 0.82513,0.001 2.24815,0.89567 2.45322,1.54181 0.13824,0.43555 0.33447,0.4983 1.19663,0.38266 0.76685,-0.10286 1.266,0.007 1.94679,0.4275 1.13665,0.70249 3.20579,1.34455 4.34525,1.34834 0.47294,0.002 0.8599,0.12193 0.8599,0.26745 0,0.37026 -0.6267,0.33118 -2.59165,-0.16161 -1.28116,-0.3213 -1.8533,-0.35608 -2.32471,-0.14129 -0.80523,0.36689 -1.05591,1.39996 -0.66018,2.72077 0.65109,2.17314 3.18086,2.70609 6.04691,1.27391 z m -8.84524,-0.21711 c 0.44267,-0.1742 0.44908,-0.22516 0.068,-0.54139 -0.23134,-0.192 -0.54992,-0.82926 -0.70795,-1.41614 -0.23231,-0.86271 -0.20415,-1.28486 0.14704,-2.20443 0.32994,-0.86395 0.3653,-1.26642 0.14707,-1.67418 -0.3784,-0.70705 -1.10922,-1.07811 -2.12336,-1.07811 -0.70223,0 -0.88593,0.14668 -1.23751,0.98814 -0.80211,1.91972 0.0885,5.11783 1.60958,5.78017 0.90968,0.3961 1.37849,0.42873 2.09709,0.14594 z m 2.56334,-0.54686 c -0.15064,-0.28147 -0.27389,-1.04674 -0.27389,-1.70059 0,-0.95214 0.13136,-1.29214 0.65981,-1.70782 0.65981,-0.519 0.65981,-0.519 -0.23842,-0.94524 -1.21927,-0.57858 -1.65637,-0.53823 -2.41779,0.22319 -0.4789,0.4789 -0.64943,0.93506 -0.64943,1.73719 0,0.59826 0.12205,1.31581 0.27123,1.59456 0.33544,0.62677 1.51041,1.28575 2.31776,1.29989 0.51672,0.009 0.56481,-0.0638 0.33073,-0.50118 z m -6.51116,-1.27416 c -0.19475,-0.54571 -0.35931,-1.66816 -0.3657,-2.49434 -0.0101,-1.30045 -0.10522,-1.57578 -0.70875,-2.05052 -0.77326,-0.60825 -2.27031,-0.73015 -2.67282,-0.21764 -0.80437,1.02417 -0.51396,3.39293 0.53703,4.38029 0.61307,0.57594 2.3353,1.32134 3.13248,1.35575 0.38597,0.0167 0.39423,-0.0868 0.0778,-0.97354 z m 16.45057,-7.33836 c -0.63249,-0.96529 -2.3577,-2.14642 -4.0721,-2.78786 -1.87064,-0.69989 -4.42603,-0.94332 -5.47974,-0.52201 -0.737,0.29468 -0.75811,0.33909 -0.29529,0.62108 0.27416,0.16704 0.84838,0.58948 1.27604,0.93876 0.67664,0.55261 1.0756,0.64015 3.07341,0.6744 2.62198,0.0449 3.58285,0.42436 4.73326,1.86901 0.68613,0.86162 0.75396,0.88982 0.9724,0.40432 0.16372,-0.36389 0.10075,-0.72652 -0.20798,-1.1977 z M 40.70625,115.56696 c -2.407207,-0.66233 -3.56845,-1.89889 -2.510036,-2.67282 0.425565,-0.31118 0.427071,-0.36569 0.02131,-0.77145 -0.240139,-0.24014 -0.632915,-0.87124 -0.872836,-1.40244 -0.375064,-0.83042 -0.427433,-1.93027 -0.373537,-7.84499 0.05311,-5.829053 0.130941,-7.020531 0.509831,-7.805211 0.370435,-0.767171 0.583322,-0.921304 1.240897,-0.898426 0.677999,0.02359 0.870918,-0.130747 1.322917,-1.058333 0.443834,-0.91083 0.673258,-1.099723 1.422706,-1.171368 0.491447,-0.04698 1.021496,0.04254 1.177887,0.198929 0.202741,0.202741 0.492542,0.0564 1.009775,-0.509894 0.398985,-0.436832 0.975676,-0.794241 1.281535,-0.794241 0.786846,0 1.854972,1.159326 1.854972,2.013356 0,0.655571 0.03818,0.681698 0.463021,0.316826 0.86932,-0.746616 1.386497,-0.7693 2.065213,-0.09058 0.589837,0.589837 0.645891,0.851602 0.636829,2.973896 -0.0055,1.279922 -0.167374,3.577287 -0.359797,5.105256 -0.192423,1.52796 -0.304828,2.82992 -0.249789,2.89322 0.05504,0.0633 0.544369,-0.31053 1.087401,-0.83074 1.175932,-1.12652 2.428936,-1.7979 3.355441,-1.7979 0.676031,0 1.732931,0.81485 1.732931,1.33605 0,0.43034 -0.686443,1.65827 -1.946096,3.48123 -0.632779,0.91576 -1.555099,2.43892 -2.049601,3.3848 -0.957345,1.83122 -2.865579,3.96875 -3.543006,3.96875 -0.294215,0 -0.366163,0.17019 -0.256559,0.60689 0.10485,0.41776 -0.02083,0.76358 -0.403266,1.10969 -0.438283,0.39664 -1.041971,0.51938 -2.859258,0.58135 -1.472081,0.0502 -2.828981,-0.066 -3.758881,-0.32185 z m 6.320035,-0.53118 c 0.539375,-0.50795 0.157633,-1.1763 -0.689335,-1.20689 -0.639134,-0.0231 -0.604302,-0.0576 0.264878,-0.26224 2.206924,-0.51967 3.167982,-1.46274 4.816276,-4.72612 0.40088,-0.79369 1.369397,-2.37834 2.15226,-3.52144 0.782862,-1.14311 1.423386,-2.22609 1.423386,-2.40663 0,-0.53589 -0.587425,-0.96324 -1.324033,-0.96324 -0.797035,0 -2.723506,1.17208 -3.7467,2.27953 -0.38781,0.41975 -0.76748,1.06083 -0.843712,1.42463 -0.07623,0.3638 -0.08308,-0.52916 -0.01521,-1.98437 0.426567,-9.14684 0.432255,-9.582126 0.132529,-10.14217 -0.418538,-0.782045 -0.911701,-0.719987 -1.69724,0.213573 -0.711471,0.845535 -1.483032,3.681225 -1.527838,5.6152 -0.0145,0.626117 -0.131689,1.436047 -0.260409,1.799857 -0.391973,1.10784 5.1e-5,-3.657502 0.457194,-5.557532 0.332692,-1.382771 0.354777,-1.941328 0.112356,-2.84161 -0.229248,-0.851361 -0.46091,-1.160491 -0.964368,-1.286851 -1.542384,-0.387114 -2.214937,1.363394 -2.501552,6.510989 -0.19888,3.571874 -0.19888,3.571874 -0.169367,-0.726012 0.0238,-3.465684 -0.04612,-4.373516 -0.361071,-4.688472 -0.215515,-0.215515 -0.632944,-0.327206 -0.931296,-0.249185 -1.078682,0.282082 -1.296711,1.085704 -1.393032,5.134502 -0.118766,4.992251 -0.576664,5.559501 -0.576664,0.714375 0,-3.623735 -1.81e-4,-3.624791 -0.618989,-3.624791 -1.143918,0 -1.30309,0.909309 -1.389438,7.937497 -0.0447,3.63861 0.03321,6.91227 0.177602,7.46245 0.336453,1.28197 1.399787,2.52134 2.448075,2.85336 0.837958,0.2654 0.837958,0.2654 -0.1316,0.15448 -0.711147,-0.0814 -1.08902,0.0211 -1.417782,0.38436 -0.426573,0.47136 -0.405528,0.52125 0.435634,1.03279 0.486122,0.29563 1.481312,0.65775 2.211532,0.80472 0.730221,0.14697 1.565799,0.31531 1.856841,0.37408 0.94256,0.19035 3.693764,-0.15352 4.071076,-0.50884 z m 53.475795,0.48491 c -0.967085,-0.35352 -1.587497,-1.23427 -1.587497,-2.25365 0,-1.86124 1.161057,-3.28573 4.003707,-4.91214 0.78759,-0.45061 1.71759,-1.1233 2.06665,-1.49487 0.58496,-0.62266 0.60523,-0.73116 0.25872,-1.38542 -0.61718,-1.16533 -2.76469,-3.37174 -4.57616,-4.70168 -2.546595,-1.869637 -3.964813,-3.819901 -4.271202,-5.873544 -0.319575,-2.142028 1.479093,-3.827347 3.232249,-3.028555 0.580483,0.264487 0.740793,0.252016 0.921963,-0.07172 0.33957,-0.606776 1.72606,-0.809516 2.4212,-0.354041 0.51054,0.334521 0.66806,0.337875 1.09815,0.02338 0.7224,-0.528232 1.32788,-0.454824 2.16127,0.262034 0.57486,0.494469 0.82875,0.56844 1.18578,0.345473 0.8779,-0.548257 1.68029,0.170213 2.9071,2.603047 1.97306,3.912701 5.03452,6.742216 6.86088,6.341086 0.6016,-0.13214 0.90776,-0.0252 1.43378,0.50082 0.83423,0.83423 0.85266,1.56991 0.0525,2.09422 -0.84049,0.55071 -2.46269,3.71727 -2.92955,5.71852 -0.21059,0.90274 -0.52552,1.8132 -0.69985,2.02324 -0.51734,0.62336 -2.04288,0.47538 -2.72877,-0.2647 -0.59925,-0.64661 -0.59925,-0.64661 -2.30247,-0.0305 -0.93676,0.33885 -2.36927,0.75348 -3.18334,0.9214 -1.30849,0.26989 -1.67263,0.50356 -3.13992,2.01489 -1.60549,1.65366 -2.13478,1.9067 -3.18516,1.52273 z m 2.69337,-1.69115 c 1.34084,-1.59016 1.9146,-1.92062 4.2919,-2.47195 0.97997,-0.22728 2.35469,-0.65969 3.05494,-0.96093 1.22161,-0.52552 1.27846,-0.59785 1.40347,-1.7856 0.21378,-2.03112 1.1827,-4.15739 2.60228,-5.71064 1.3086,-1.43182 1.3086,-1.43182 0.39811,-1.99453 -1.58718,-0.980938 -3.72538,-3.560837 -5.00569,-6.039754 -0.67699,-1.310778 -1.39913,-2.447792 -1.60475,-2.526696 -0.20562,-0.0789 -0.59379,0.01765 -0.8626,0.214569 -0.46353,0.339569 -0.41095,0.512585 1.01971,3.355265 0.97362,1.93454 1.27426,2.715803 0.84792,2.203484 -0.36329,-0.436563 -1.24069,-1.997656 -1.94977,-3.469096 -0.70909,-1.471441 -1.48734,-2.751363 -1.72946,-2.844271 -0.71532,-0.274498 -1.36904,-0.194741 -1.70311,0.207788 -0.24571,0.296057 -0.18854,0.621783 0.267,1.521354 0.58186,1.149001 2.34662,3.89563 3.45546,5.377975 0.59375,0.79375 0.59375,0.79375 -0.14234,0.132291 -0.91087,-0.8185 -3.39332,-4.527741 -3.978,-5.943852 -0.23822,-0.576984 -0.57734,-1.140707 -0.75359,-1.252719 -0.58078,-0.369089 -1.42104,-0.220646 -1.92915,0.34081 -0.49361,0.545425 -0.48652,0.578216 0.54763,2.534899 0.57623,1.090279 1.86145,3.054152 2.85603,4.364162 1.83657,2.419031 1.86695,2.924441 0.0451,0.75045 -1.39989,-1.670482 -3.21618,-4.517744 -3.97174,-6.226215 -0.597968,-1.352103 -0.699901,-1.446701 -1.558875,-1.446701 -1.89316,0 -2.582832,2.064448 -1.462684,4.378365 0.510096,1.053719 2.41988,3.004048 5.145499,5.254742 0.6888,0.56878 1.71638,1.62117 2.2835,2.33863 1.00323,1.26919 1.03785,1.28774 1.27913,0.68565 0.24799,-0.61885 0.24799,-0.61885 0.26477,-0.0104 0.0367,1.3328 -1.23323,2.8372 -3.47044,4.11105 -0.68104,0.38778 -1.64987,1.09326 -2.15297,1.56774 -1.081455,1.01995 -1.63204,2.63421 -1.184871,3.47395 0.42804,0.80382 1.034421,1.20098 1.848361,1.2106 0.53614,0.006 0.99259,-0.32453 1.84922,-1.34043 z m 11.54822,-2.69687 c 0.1559,-0.18786 0.40737,-0.89445 0.55881,-1.57022 0.48862,-2.18035 1.35293,-4.14352 2.41674,-5.48934 0.57151,-0.72302 1.03911,-1.47286 1.03911,-1.66632 0,-0.58141 -0.587,-0.98674 -1.42899,-0.98674 -0.6198,0 -1.12256,0.33786 -2.29152,1.53991 -1.60864,1.65417 -2.54462,3.61839 -2.81596,5.9095 -0.12825,1.08285 -0.0612,1.32285 0.5371,1.9211 0.74353,0.74353 1.53791,0.88046 1.98471,0.34211 z m 21.08029,3.09062 c -1.3371,-0.32048 -2.98556,-1.02357 -3.77276,-1.60912 -0.93255,-0.69368 -1.73709,-2.06683 -2.04429,-3.48913 -0.19309,-0.89397 -0.19309,-0.89397 -1.63164,-0.7455 -0.7912,0.0817 -1.79891,0.0228 -2.23935,-0.13069 -0.88588,-0.30882 -1.40091,-1.29068 -1.13689,-2.16739 0.26507,-0.88022 1.44651,-2.00473 2.86805,-2.72987 1.47444,-0.75211 3.61387,-0.90416 5.22776,-0.37153 0.85072,0.28077 1.10594,0.25354 2.02677,-0.21623 1.85653,-0.94714 3.78423,-3.879157 5.07594,-7.720501 0.31313,-0.931189 0.69214,-1.841899 0.84224,-2.0238 0.4023,-0.487513 1.9877,-0.404192 2.51722,0.132291 0.43496,0.440691 0.48622,0.433518 1.06274,-0.148723 0.43082,-0.4351 0.77635,-0.562625 1.19663,-0.441639 0.7618,0.219298 1.78154,1.341826 1.78154,1.961106 0,0.317779 0.25681,0.532702 0.75576,0.632492 0.87148,0.174297 1.51777,1.385174 1.22749,2.299791 -0.12867,0.405393 -0.0169,0.725011 0.38409,1.098613 0.39585,0.368791 0.51365,0.699284 0.39259,1.101426 -0.41008,1.362194 -1.05463,2.377984 -2.53191,3.990174 -1.00126,1.0927 -1.73034,2.18024 -2.00293,2.98769 -0.91049,2.69696 -2.46507,4.46463 -4.76463,5.41775 -0.76888,0.31868 -1.39796,0.71765 -1.39796,0.8866 0,0.60158 -1.05434,1.24682 -2.17208,1.32928 -0.62437,0.0461 -1.37334,0.0267 -1.66438,-0.0431 z m 3.10885,-0.96314 c 0.59531,-0.59531 0.59531,-0.59531 -0.59531,-0.80554 -0.65484,-0.11563 -1.85435,-0.29661 -2.66557,-0.40218 -1.6988,-0.22109 -2.49104,-0.67886 -4.13956,-2.39195 -1.18265,-1.22897 -1.18265,-1.22897 -1.01947,-0.30726 0.22431,1.26696 1.29938,2.80985 2.33337,3.34871 1.36527,0.71151 2.87585,1.1167 4.23446,1.13584 0.96578,0.0136 1.39461,-0.12014 1.85208,-0.57762 z m 1.85073,-1.51882 c 2.17957,-0.81548 4.21811,-3.21842 4.80824,-5.66773 0.10209,-0.42373 0.90514,-1.55482 1.78456,-2.51355 1.67708,-1.82832 2.60283,-3.33854 2.60283,-4.246127 0,-0.892524 -0.874,-0.626489 -1.49322,0.454518 -0.65551,1.144369 -2.74843,3.583579 -2.92409,3.407909 -0.0653,-0.0653 0.48738,-0.87101 1.22824,-1.7904 2.13009,-2.643419 2.89369,-4.653363 2.07782,-5.469234 -0.65009,-0.65009 -1.21079,-0.345307 -1.63043,0.886268 -0.4784,1.404046 -2.44909,4.456826 -3.49288,5.410816 -0.45774,0.41836 -0.17553,-0.12755 0.7679,-1.48543 1.87181,-2.694116 2.54303,-4.163138 2.55043,-5.581868 0.004,-0.8105 -0.15201,-1.261208 -0.57325,-1.653646 -0.72866,-0.678849 -1.43853,-0.689817 -1.79288,-0.0277 -0.15064,0.281475 -0.27389,1.158447 -0.27389,1.948827 0,1.114241 -0.20868,1.85418 -0.92898,3.29396 -0.51093,1.021299 -1.40719,2.376747 -1.99169,3.012107 -1.00012,1.08716 -0.97702,1.02669 0.39209,-1.0265 2.3924,-3.587752 2.79073,-6.067443 1.16913,-7.27814 -1.11752,-0.834345 -1.69166,-0.444956 -2.36029,1.600775 -1.24526,3.80992 -3.39197,7.058725 -5.41068,8.188455 -0.42915,0.24016 -0.45023,0.3431 -0.14547,0.71031 0.27747,0.33433 0.0696,0.29995 -0.93854,-0.15521 -0.92081,-0.41573 -1.83005,-0.58922 -3.14703,-0.60048 -1.57308,-0.0135 -2.06499,0.10182 -3.26541,0.76523 -1.58211,0.87435 -2.42513,1.78894 -2.41908,2.62447 0.009,1.23095 0.31522,1.34773 3.54265,1.35064 2.09984,0.002 3.14424,0.10657 3.37651,0.33843 0.27175,0.27127 0.16016,0.30282 -0.58148,0.1644 -0.91778,-0.1713 -0.91778,-0.1713 0.39453,1.18499 2.12721,2.19849 4.46096,2.70613 6.27501,1.36495 0.3991,-0.29507 0.80844,-0.53649 0.90964,-0.53649 0.34945,0 -0.76307,1.04531 -1.29077,1.2128 -0.41994,0.13328 -0.45371,0.2158 -0.16354,0.39958 0.57569,0.36461 1.42347,0.28198 2.94402,-0.28693 z m 24.20213,1.03157 c -2.06804,-0.48696 -3.34022,-1.54064 -2.8391,-2.35148 0.14721,-0.23817 -0.003,-0.66093 -0.43764,-1.23058 -0.85609,-1.1224 -1.41101,-2.99454 -1.41101,-4.76034 0,-0.77947 -0.23525,-2.0002 -0.52917,-2.74587 -0.85097,-2.158937 -0.6937,-3.204089 0.58139,-3.863461 0.70485,-0.36449 0.84501,-0.362926 1.42315,0.01588 0.60014,0.39323 0.64129,0.388325 0.64129,-0.07644 0,-0.774168 1.19605,-1.896818 2.02084,-1.896818 0.39775,0 0.98749,0.248306 1.31054,0.551792 0.58735,0.551791 0.58735,0.551791 0.77506,-0.06615 0.52006,-1.712005 2.56028,-2.446781 3.4131,-1.229213 0.22319,0.318643 0.4383,0.527002 0.47802,0.463021 0.0397,-0.06398 0.20228,-0.354454 0.36122,-0.645495 0.45487,-0.832902 1.61874,-1.289159 2.58304,-1.012599 1.24039,0.355738 1.53493,1.169041 1.33856,3.696165 -0.15126,1.94675 -0.11185,2.229536 0.40895,2.933948 0.79488,1.07513 1.04024,2.38942 0.769,4.1191 -0.29735,1.89623 -1.01454,3.54437 -2.00115,4.59882 -0.59348,0.63428 -0.76002,1.02918 -0.67587,1.60255 0.0682,0.46467 -0.04,0.8867 -0.2778,1.0841 -0.56326,0.46747 -3.77979,1.09633 -5.47642,1.0707 -0.80037,-0.0121 -1.90557,-0.12803 -2.456,-0.25764 z m 6.7701,-0.75421 c 1.04197,-0.32376 1.50231,-0.91931 1.05578,-1.36584 -0.16579,-0.16579 -0.51902,-0.15687 -0.99787,0.0252 -1.20512,0.45818 -1.05723,0.11004 0.21485,-0.50576 1.81287,-0.87759 3.13346,-3.12519 3.52815,-6.00475 0.30184,-2.20217 -1.19861,-4.608848 -2.86419,-4.59405 -0.34134,0.003 -2.16843,0.63219 -4.0602,1.39814 -3.10321,1.25643 -3.43958,1.45642 -3.43958,2.045 0,0.49686 0.24826,0.77357 1.04141,1.16072 0.92704,0.4525 1.23125,0.47581 2.76989,0.21225 1.95641,-0.33512 2.43328,-0.23832 0.90986,0.1847 -2.35497,0.65391 -4.82111,0.0502 -5.24453,-1.2839 -0.0956,-0.30108 -0.25502,-0.54667 -0.35436,-0.54575 -0.0993,9.2e-4 -0.38343,0.35811 -0.63132,0.79375 -0.3597,0.63213 -0.62951,0.79208 -1.33615,0.79208 -0.48698,0 -1.02632,-0.14089 -1.19852,-0.31309 -0.50949,-0.5095 -0.58985,-0.14261 -0.32509,1.48414 0.37434,2.30008 1.19892,3.78294 2.621,4.71341 0.67025,0.43855 0.99922,0.7222 0.73104,0.63032 -1.34083,-0.45934 -1.76136,-0.48168 -1.76136,-0.0936 0,0.51602 0.48736,0.90091 1.7476,1.38017 0.74591,0.28367 1.79779,0.36536 3.80865,0.2958 1.52797,-0.0529 3.23119,-0.23689 3.78494,-0.40896 z m -8.60035,-8.27031 c 0.72197,-0.72198 0.18317,-3.2993 -1.0537,-5.04031 -0.94118,-1.324784 -2.33764,-0.678368 -2.32716,1.077232 0.006,1.029248 0.79535,3.028698 1.50495,3.812798 0.4875,0.53869 1.41333,0.61285 1.87591,0.15028 z m 2.12874,-1.76445 c 0.38626,-0.27195 0.97516,-0.57921 1.30867,-0.6828 0.40415,-0.12553 0.56275,-0.33564 0.47558,-0.63002 -0.0719,-0.24293 -0.21286,-0.798873 -0.31318,-1.235436 -0.24357,-1.059953 -1.02844,-2.599462 -1.54295,-3.026461 -0.60729,-0.504011 -1.87433,0.09041 -2.27993,1.069615 -0.26717,0.644989 -0.24302,0.987092 0.14312,2.027823 0.62244,1.677589 1.22294,2.971729 1.37894,2.971729 0.0701,0 0.44348,-0.2225 0.82975,-0.49445 z m 4.18498,-1.78957 c 0.80431,-0.336059 0.88281,-0.468735 0.88147,-1.489841 -0.003,-2.14225 -0.79098,-3.899053 -1.74924,-3.899053 -0.21451,0 -0.68225,0.292244 -1.03944,0.649432 -0.50139,0.501387 -0.64943,0.927038 -0.64943,1.867212 0,0.669779 0.13402,1.750029 0.29783,2.400555 0.32418,1.287445 0.31236,1.284985 2.25881,0.471695 z m 2.77653,-1.033203 c 0.38663,-0.09204 0.93797,-0.04158 1.22521,0.112148 0.45793,0.245073 0.54244,0.17859 0.6861,-0.539742 0.0901,-0.450584 0.16385,-1.450699 0.16385,-2.222479 0,-1.740623 -0.46277,-2.295959 -1.81884,-2.182649 -0.7964,0.06655 -1.03783,0.237392 -1.42189,1.006198 -0.29368,0.587879 -0.46276,1.536413 -0.46302,2.597517 -3.6e-4,1.467996 0.056,1.654729 0.46261,1.533918 0.25466,-0.07566 0.77935,-0.212866 1.16598,-0.304911 z"
       id="path1" /><path
       d="m 74.491473,223.7584 c -0.117553,-0.1208 -0.970793,-0.18563 -1.896088,-0.14408 -2.030238,0.0912 -3.681229,-0.31203 -4.827181,-1.17891 -0.591376,-0.44735 -1.045377,-0.59555 -1.485803,-0.48501 -0.509372,0.12784 -0.796013,-0.0371 -1.456136,-0.83795 -1.416005,-1.71786 -2.176774,-4.9725 -1.780311,-7.61631 0.13343,-0.88977 0.363414,-1.34338 0.839138,-1.65509 0.516784,-0.33861 0.789925,-0.36807 1.291949,-0.13933 0.554375,0.25259 0.66026,0.21471 0.819645,-0.2932 0.100667,-0.32079 0.770424,-1.47602 1.488349,-2.56717 1.27787,-1.94219 1.303218,-2.02009 1.205361,-3.70417 -0.05498,-0.94614 -0.266495,-2.28437 -0.47004,-2.97385 -0.345468,-1.17023 -0.333924,-1.3022 0.173592,-1.98437 0.432154,-0.58088 0.791405,-0.74713 1.751418,-0.81051 1.081179,-0.0714 1.306426,0.0189 2.149383,0.86191 1.249714,1.24972 1.836458,3.26145 1.705812,5.84862 -0.09802,1.94113 -0.09802,1.94113 1.097061,1.7562 0.657297,-0.1017 3.219147,-0.18492 5.693001,-0.18492 4.052428,0 4.620531,0.0567 5.735903,0.57213 2.059693,0.95187 2.619802,2.98266 1.097711,3.97997 -0.534853,0.35045 -1.12884,0.3911 -3.558485,0.24353 -2.916464,-0.17713 -2.916464,-0.17713 -2.500484,0.41676 0.509027,0.72674 0.54195,2.31941 0.06153,2.97642 -0.230493,0.31522 -0.311004,0.93692 -0.230216,1.7777 0.09719,1.01145 0.01656,1.41194 -0.370307,1.83942 -0.332735,0.36767 -0.495475,0.94961 -0.497389,1.7786 -0.0028,1.20597 -0.02966,1.24544 -1.265582,1.8584 -1.297812,0.64365 -4.375313,1.07267 -4.771829,0.66521 z m 4.873216,-1.06054 c 0.528937,-0.30807 0.933087,-0.77351 0.985314,-1.13474 0.134238,-0.92845 -0.28919,-1.18637 -1.36486,-0.83136 -0.510486,0.16847 -1.979963,0.33015 -3.265505,0.35928 -2.316975,0.0525 -2.338056,0.0591 -2.4186,0.75499 -0.05669,0.48983 0.10326,0.83579 0.529167,1.14456 0.856362,0.62084 4.276534,0.43994 5.534484,-0.29273 z m -6.428434,-0.079 c -0.232068,-0.3716 -0.242054,-0.67675 -0.03688,-1.12705 0.238121,-0.52262 0.185048,-0.69012 -0.345473,-1.09029 -0.732021,-0.55216 -0.84451,-1.79014 -0.210475,-2.31634 0.37019,-0.30723 0.341234,-0.38489 -0.261221,-0.70054 -0.37266,-0.19526 -0.756914,-0.67118 -0.8539,-1.0576 -0.278916,-1.11129 0.389116,-1.99714 1.895553,-2.5136 1.445555,-0.4956 4.497388,-0.64722 4.227185,-0.21002 -0.08994,0.14552 -0.868461,0.26458 -1.730053,0.26458 -2.849957,0 -4.72339,1.28462 -3.798708,2.60479 0.728392,1.03993 3.024506,1.34363 6.103987,0.80736 3.047578,-0.53072 4.284261,-1.96144 3.349321,-3.87485 -0.424157,-0.86806 -0.63425,-1.01497 -1.675589,-1.17164 -0.654844,-0.0985 0.647422,-0.14102 2.893925,-0.0944 2.511085,0.0521 4.322675,-0.0238 4.702698,-0.19696 0.339981,-0.1549 0.689935,-0.56767 0.777676,-0.91725 0.673991,-2.6854 -4.255668,-3.85785 -12.078466,-2.87269 -1.527968,0.19242 -2.824857,0.30989 -2.881974,0.26104 -0.05712,-0.0488 0.06081,-0.28723 0.262068,-0.52972 0.519515,-0.62598 0.430063,-4.16568 -0.139624,-5.52501 -0.537521,-1.28258 -1.578387,-2.41602 -2.410476,-2.62486 -0.917324,-0.23024 -1.935115,0.26216 -2.127664,1.02934 -0.09279,0.36968 0.03964,1.44181 0.294268,2.3825 0.656855,2.42661 0.412321,3.80777 -1.055203,5.95989 -1.087864,1.59535 -1.394501,2.18161 -1.868245,3.57188 -0.174256,0.51138 -0.188034,0.50915 -0.409874,-0.0661 -0.303781,-0.7878 -1.438445,-0.80545 -1.854074,-0.0288 -0.192499,0.35969 -0.262605,1.49455 -0.19205,3.10885 0.08666,1.98274 0.245492,2.80448 0.72156,3.73301 0.797811,1.55607 1.309955,2.11667 1.933735,2.11667 0.43336,0 0.483566,-0.12805 0.337157,-0.8599 -0.172026,-0.85989 -0.172026,-0.85989 0.448281,0.1316 1.066003,1.70389 2.213713,2.25479 4.77717,2.29306 1.440186,0.0215 1.506175,-0.005 1.205369,-0.48682 z m 5.807435,-2.2745 c 0.811584,-0.24101 1.574788,-0.68044 1.900105,-1.09401 0.573257,-0.72878 0.72091,-1.80202 0.284983,-2.07143 -0.142296,-0.088 -0.886437,0.0328 -1.653646,0.26843 -0.767209,0.23559 -2.498572,0.46645 -3.847474,0.51304 -2.612963,0.0902 -3.315404,0.37903 -3.182615,1.30842 0.191652,1.34137 3.666788,1.91652 6.498647,1.07555 z"
       style="fill:#000000"
       id="path1-7" /></g></svg>
