<svg width="49" height="49" xmlns="http://www.w3.org/2000/svg" xmlns:xlink="http://www.w3.org/1999/xlink" xml:space="preserve" overflow="hidden"><g transform="translate(-478 -1345)"><path d="M-64.047 11.3679C-66.3111 3.82073-65.179-4.85851-65.179-4.85851-72.378-13.695-72.9239-18.2071-70.0847-20.5189-61.9617-25.2249-59.8519-12.8454-55.8556-7.46373-59.4999-19.6084-58.7042-27.9964-53.2924-29.5754-43.7757-30.774-47.6676-17.2872-48.0092-7.68871-44.8067-13.6508-42.85-23.5763-35.5564-22.0283-29.2187-19.0467-32.0719-14.2781-38.764-3.91512-33.6153-3.59031-24.7094-6.81177-23.4809-0.330203-22.5717 7.81363-33.5175 4.73558-38.5753 7.21697L-40.2734 13.2547C-42.5092 18.9138-59.9103 19.9201-64.047 11.3679Z" stroke="#000000" stroke-width="0.693622" stroke-linecap="round" stroke-linejoin="round" fill="none" transform="matrix(1 0 0 1.02299 550.021 1375.68)"/><path d="M-62.8463-4.56878C-51.6076-9.80108-43.7845-7.20829-40.2734-4.1038" stroke="#000000" stroke-width="0.693622" stroke-linecap="round" stroke-linejoin="round" fill="none" transform="matrix(1 0 0 1.02299 550.021 1375.68)"/><path d="M-54.613 9.85849C-52.7774 2.67661-51.6311-5.23289-41.028-3.16039" stroke="#000000" stroke-width="0.693622" stroke-linecap="round" fill="none" transform="matrix(1 0 0 1.02299 550.021 1375.68)"/></g></svg>