<?xml version="1.0" encoding="UTF-8" standalone="no"?>
<!-- Created with Inkscape (http://www.inkscape.org/) -->

<svg
   width="75.140594mm"
   height="76.308243mm"
   viewBox="0 0 75.140594 76.308243"
   version="1.1"
   id="svg1"
   xml:space="preserve"
   sodipodi:docname="Wicky.svg"
   inkscape:version="1.3.2 (091e20e, 2023-11-25, custom)"
   xmlns:inkscape="http://www.inkscape.org/namespaces/inkscape"
   xmlns:sodipodi="http://sodipodi.sourceforge.net/DTD/sodipodi-0.dtd"
   xmlns="http://www.w3.org/2000/svg"
   xmlns:svg="http://www.w3.org/2000/svg"><sodipodi:namedview
     id="namedview1"
     pagecolor="#ffffff"
     bordercolor="#000000"
     borderopacity="0.25"
     inkscape:showpageshadow="2"
     inkscape:pageopacity="0.0"
     inkscape:pagecheckerboard="0"
     inkscape:deskcolor="#d1d1d1"
     inkscape:document-units="mm"
     inkscape:zoom="2.485951"
     inkscape:cx="141.99797"
     inkscape:cy="144.21041"
     inkscape:window-width="1920"
     inkscape:window-height="991"
     inkscape:window-x="-9"
     inkscape:window-y="-9"
     inkscape:window-maximized="1"
     inkscape:current-layer="layer1" /><defs
     id="defs1" /><g
     inkscape:label="Layer 1"
     inkscape:groupmode="layer"
     id="layer1"
     transform="translate(-67.6784, -110.027)"><ellipse
       style="fill:#ffd5d5;stroke-width:9.65599;stroke-linecap:square;paint-order:markers stroke fill"
       id="path2"
       cx="115.27615"
       cy="148.11566"
       rx="13.379061"
       ry="5.946249"
       inkscape:export-filename="Wicky.svg"
       inkscape:export-xdpi="96"
       inkscape:export-ydpi="96" /><path
       style="fill:#1a1a1a"
       d="m 82.971094,185.99276 c -2.006281,-0.89644 -7.870797,-11.16026 -11.309691,-19.79374 -2.819275,-7.0779 -3.98488,-12.61573 -3.983051,-18.9236 0.003,-10.44366 3.435957,-18.89776 10.662128,-26.25706 9.532227,-9.70785 24.91892,-13.40653 39.07847,-9.39375 3.07793,0.87228 8.13598,3.3853 10.84792,5.38964 9.19872,6.79859 14.55208,17.94346 14.55208,30.29513 0,8.29572 -1.87191,14.1937 -9.12013,28.73542 -4.17069,8.36745 -5.28278,10.02604 -6.72254,10.02604 -1.11733,0 -2.02159,-0.86609 -4.84043,-4.63606 -1.35737,-1.81537 -2.587,-3.29683 -2.73252,-3.29214 -0.14552,0.005 -1.45461,1.72856 -2.90908,3.83082 -2.71896,3.92991 -3.45616,4.59528 -4.67819,4.22239 -0.9522,-0.29055 -1.40741,-0.7937 -3.87398,-4.28195 -1.2634,-1.78671 -2.37189,-3.21944 -2.46332,-3.18384 -0.0914,0.0356 -1.48354,1.68646 -3.09356,3.66858 -2.945443,3.62615 -3.292548,3.93678 -4.399079,3.93678 -0.981838,0 -1.745484,-0.80757 -4.232443,-4.47589 -1.295754,-1.91127 -2.484038,-3.43253 -2.640632,-3.38058 -0.156594,0.052 -1.490821,1.68025 -2.964949,3.61844 -2.437824,3.20525 -3.452213,4.22394 -4.198934,4.21672 -0.145521,-0.001 -0.585652,-0.14602 -0.978069,-0.32135 z m 18.293046,-7.85942 c 3.2044,-4.01561 4.15952,-4.60703 5.60454,-3.47038 0.34847,0.27411 1.64444,1.9361 2.87995,3.69331 1.2355,1.75721 2.36543,3.19704 2.51095,3.19964 0.14552,0.003 1.44007,-1.70648 2.87677,-3.79794 2.98943,-4.3518 3.89677,-5.02727 5.3684,-3.9965 0.30674,0.21485 1.78661,2.00079 3.2886,3.96875 1.50199,1.96796 2.81163,3.57812 2.91032,3.57812 0.66969,0 7.62174,-14.11832 9.90161,-20.10834 3.29283,-8.65141 3.56109,-17.29414 0.79371,-25.57232 -4.43313,-13.26108 -15.36516,-21.33152 -29.76962,-21.97708 -17.913609,-0.80283 -32.60349,10.25119 -35.859668,26.98412 -1.36216,6.9999 -0.533598,14.30748 2.57177,22.68195 2.364188,6.37568 8.611261,18.28992 9.563969,18.24014 0.169568,-0.009 1.558461,-1.7055 3.08643,-3.77031 3.974241,-5.37057 4.500259,-5.43785 7.600602,-0.97216 3.797456,5.46979 3.518804,5.13174 3.898007,4.72889 0.190092,-0.20195 1.438241,-1.7364 2.77366,-3.40989 z"
       id="path1"
       sodipodi:nodetypes="sssssssssscssssssscscsssscssssssssscssss" /><ellipse
       style="display:inline;fill:#1a1a1a;stroke-width:9.65599;stroke-linecap:square;paint-order:markers stroke fill"
       id="path3"
       cx="123.3171"
       cy="140.5477"
       rx="2.7704115"
       ry="3.3785505" /><ellipse
       style="display:inline;fill:#1a1a1a;stroke-width:9.65599;stroke-linecap:square;paint-order:markers stroke fill"
       id="path4"
       cx="109.05962"
       cy="141.4937"
       rx="2.4325564"
       ry="2.9731245" /><path
       style="fill:#f9f9f9;stroke-width:37.2814;stroke-linecap:square;paint-order:markers stroke fill"
       d="m 366.98871,680.60506 c -2.14332,-2.94972 -6.62911,-9.19768 -9.96842,-13.88436 -3.3393,-4.68669 -7.43422,-9.22595 -9.0998,-10.08725 -2.74825,-1.42118 -3.32213,-1.4078 -6.20491,0.14469 -1.74712,0.94088 -5.06176,4.10106 -7.36586,7.02261 -2.30411,2.92155 -6.99823,8.87456 -10.43139,13.2289 -3.43315,4.35434 -6.67265,7.91698 -7.19888,7.91698 -1.65958,0 -11.03424,-16.17298 -20.42879,-35.24334 -20.75131,-42.12388 -27.5387,-67.61167 -26.31301,-98.80982 2.37996,-60.57844 43.73529,-107.20842 105.44052,-118.8889 12.35172,-2.33811 36.54371,-2.34746 49.29822,-0.019 45.77826,8.35712 79.26649,37.18203 93.70392,80.6554 5.7101,17.19402 6.96295,24.89006 7.01307,43.08011 0.078,28.29576 -4.02024,42.93374 -24.0242,85.80987 -8.76259,18.78154 -21.25919,42.39416 -22.43644,42.39416 -0.4011,0 -5.64426,-6.23712 -11.65146,-13.86025 -10.56934,-13.41248 -14.097,-16.44211 -17.78288,-15.27226 -2.71197,0.86074 -7.48213,6.2948 -16.08601,18.32481 -4.38815,6.13555 -8.43816,11.28588 -9.00001,11.44518 -0.56185,0.15929 -5.2942,-5.45449 -10.51634,-12.47506 -10.65716,-14.32734 -12.97897,-15.98084 -18.38177,-13.0908 -1.8477,0.98837 -8.00635,7.46128 -13.68587,14.38425 -5.67952,6.92298 -10.47408,12.58722 -10.65457,12.58722 -0.18049,0 -2.08179,-2.4134 -4.22512,-5.36311 z M 460.2065,579.76798 c 10.86497,-2.81008 17.92655,-6.37863 22.38262,-11.31097 6.75479,-7.47673 4.3056,-16.16522 -6.36471,-22.57887 -2.06765,-1.24281 -3.92669,-2.38547 -4.1312,-2.53924 -0.20453,-0.15377 0.56816,-1.47462 1.71706,-2.93522 4.27989,-5.44099 4.08609,-13.47741 -0.45513,-18.87435 -2.09514,-2.48993 -3.39795,-3.09471 -6.66657,-3.09471 -8.07421,0 -11.57948,4.64866 -10.87273,14.41937 l 0.42818,5.91941 -4.65881,-0.72009 c -2.56234,-0.39604 -10.29027,-0.72009 -17.17317,-0.72009 h -12.51435 l 4.1e-4,-3.16896 c 2.4e-4,-1.74292 -1.0522,-4.73094 -2.33875,-6.64004 -2.12942,-3.15985 -2.78987,-3.4711 -7.36552,-3.4711 -4.57565,0 -5.2361,0.31125 -7.36552,3.4711 -2.41669,3.58612 -3.08406,9.60351 -1.36627,12.31913 0.73602,1.16357 -0.35696,2.11184 -5.00589,4.34311 -21.01116,10.08437 -16.81378,26.83984 8.62995,34.44986 3.93295,1.17631 9.909,2.56882 13.2801,3.09446 9.62786,1.50122 30.40461,0.47762 39.8403,-1.9628 z"
       id="path5"
       transform="scale(0.264583, 0.264583)" /></g></svg>
