<?xml version="1.0" encoding="UTF-8" standalone="no"?>
<!-- Created with Inkscape (http://www.inkscape.org/) -->

<svg
   width="86.293411mm"
   height="85.915146mm"
   viewBox="0 0 86.293411 85.915146"
   version="1.1"
   id="svg1"
   xml:space="preserve"
   xmlns:inkscape="http://www.inkscape.org/namespaces/inkscape"
   xmlns:sodipodi="http://sodipodi.sourceforge.net/DTD/sodipodi-0.dtd"
   xmlns="http://www.w3.org/2000/svg"
   xmlns:svg="http://www.w3.org/2000/svg"><sodipodi:namedview
     id="namedview1"
     pagecolor="#ffffff"
     bordercolor="#000000"
     borderopacity="0.25"
     inkscape:showpageshadow="2"
     inkscape:pageopacity="0.0"
     inkscape:pagecheckerboard="0"
     inkscape:deskcolor="#d1d1d1"
     inkscape:document-units="mm" /><defs
     id="defs1" /><g
     inkscape:label="Layer 1"
     inkscape:groupmode="layer"
     id="layer1"
     transform="translate(-64.164552,-90.513524)"><path
       style="fill:#f9f9f9"
       d="m 103.39921,176.19264 c -37.068052,-4.5169 -52.362922,-47.75518 -26.02649,-73.57633 3.018596,-2.959544 3.018596,-2.959544 1.763256,-3.147794 -3.188932,-0.47821 -3.700701,-5.15433 -0.56181,-5.13335 3.780713,0.0253 10.371258,1.90533 10.820418,3.08671 0.42253,1.11134 -1.240567,9.952474 -2.032991,10.807514 -1.836626,1.98176 -4.69127,-0.008 -4.082722,-2.84513 0.391706,-1.82646 0.32968,-1.81846 -1.851637,0.23873 -27.237653,25.68779 -3.276608,73.27443 32.771046,65.08329 3.3264,-0.75586 4.95064,-0.0664 4.88993,2.07556 -0.0715,2.52138 -8.30269,4.31086 -15.689,3.4108 z m 27.55204,-4.62396 c -6.28205,-1.16274 -6.20881,-1.05062 -5.02598,-7.6942 0.95754,-5.37823 1.28896,-6.04342 3.011,-6.04342 2.03935,0 2.98859,1.31756 2.52078,3.49887 -1.28041,5.97037 9.66382,-8.78097 12.12168,-16.33839 8.73891,-26.87025 -16.07574,-55.110984 -43.04109,-48.983634 -3.341844,0.75937 -4.950699,0.0685 -4.889244,-2.09952 0.06903,-2.43517 3.51291,-3.42149 11.851864,-3.39432 38.61934,0.1258 57.42172,46.439554 29.87418,73.585664 -3.00518,2.96139 -3.00518,2.96139 -1.76217,3.14779 2.54912,0.38226 3.58577,2.715 1.93855,4.36222 -0.95343,0.95344 -1.236,0.95168 -6.59957,-0.0411 z m -28.87136,-9.17397 c -0.80609,-0.40426 -1.07309,-0.82393 -2.116674,-3.32701 -1.19422,-2.8644 -1.19422,-2.8644 -3.216328,-3.85738 -1.112161,-0.54613 -2.655083,-1.44772 -3.428716,-2.00352 -1.406605,-1.01054 -1.406605,-1.01054 -4.434692,-0.62785 -4.198092,0.53055 -4.049921,0.62759 -7.113961,-4.65946 -3.062794,-5.2849 -3.049717,-4.87025 -0.261503,-8.29182 2.413493,-2.96174 2.413493,-9.57941 0,-12.54114 -2.788214,-3.42158 -2.801291,-3.00693 0.261503,-8.29183 3.06404,-5.28705 2.915869,-5.19 7.113961,-4.65945 3.028087,0.38268 3.028087,0.38268 4.434692,-0.62786 0.773633,-0.5558 2.316555,-1.45738 3.428716,-2.00352 2.022108,-0.99298 2.022108,-0.99298 3.216328,-3.85738 1.586694,-3.80575 1.555164,-3.78961 7.404744,-3.78961 5.84434,0 5.81692,-0.014 7.40474,3.77483 1.19422,2.84961 1.19422,2.84961 3.21743,3.85816 1.11277,0.5547 2.65773,1.46441 3.43326,2.02157 1.41005,1.01302 1.41005,1.01302 4.1945,0.6636 4.52245,-0.56751 4.26072,-0.73336 7.38483,4.67951 3.02014,5.23273 3.00874,4.81612 0.22519,8.23198 -1.57398,1.93151 -1.57398,1.93151 -1.57398,6.27057 0,4.33905 0,4.33905 1.57398,6.27057 2.78355,3.41585 2.79495,2.99924 -0.22519,8.23198 -3.12411,5.41286 -2.86238,5.24701 -7.38483,4.6795 -2.78445,-0.34942 -2.78445,-0.34942 -4.1945,0.6636 -0.77553,0.55716 -2.32049,1.46687 -3.43326,2.02157 -2.02321,1.00855 -2.02321,1.00855 -3.21743,3.85817 -1.58782,3.7888 -1.5604,3.77483 -7.40474,3.77483 -3.62815,0 -4.52145,-0.0781 -5.28807,-0.46261 z m 10.17051,-18.42334 c 9.19208,-4.247 9.16003,-16.93848 -0.0537,-21.26993 -8.27423,-3.88977 -17.982456,3.41091 -16.468827,12.38471 1.31445,7.79295 9.434987,12.15987 16.522547,8.88522 z"
       id="path1" /></g></svg>
