<?xml version="1.0" encoding="UTF-8" standalone="no"?>
<!-- Created with Inkscape (http://www.inkscape.org/) -->

<svg
   width="75.277687mm"
   height="75.415604mm"
   viewBox="0 0 75.277687 75.415604"
   version="1.1"
   id="svg1"
   xml:space="preserve"
   inkscape:version="1.3.2 (091e20e, 2023-11-25, custom)"
   sodipodi:docname="Record.svg"
   inkscape:dataloss="true"
   xmlns:inkscape="http://www.inkscape.org/namespaces/inkscape"
   xmlns:sodipodi="http://sodipodi.sourceforge.net/DTD/sodipodi-0.dtd"
   xmlns="http://www.w3.org/2000/svg"
   xmlns:svg="http://www.w3.org/2000/svg"><sodipodi:namedview
     id="namedview1"
     pagecolor="#ffffff"
     bordercolor="#000000"
     borderopacity="0.25"
     inkscape:showpageshadow="2"
     inkscape:pageopacity="0.0"
     inkscape:pagecheckerboard="0"
     inkscape:deskcolor="#d1d1d1"
     inkscape:document-units="mm"
     inkscape:zoom="0.48632937"
     inkscape:cx="396.85039"
     inkscape:cy="560.31986"
     inkscape:window-width="1600"
     inkscape:window-height="811"
     inkscape:window-x="1911"
     inkscape:window-y="-9"
     inkscape:window-maximized="1"
     inkscape:current-layer="layer1" /><defs
     id="defs1" /><g
     inkscape:label="Layer 1"
     inkscape:groupmode="layer"
     id="layer1"
     transform="translate(-72.467493,-90.551252)"><path
       style="fill:#ffffff"
       d="m 90.689095,165.32534 c -3.581694,-1.16044 -6.763294,-3.93887 -8.388372,-7.3254 -0.775996,-1.61711 -0.946884,-1.79215 -2.428398,-2.48746 -2.28929,-1.07442 -4.906973,-3.76916 -6.083834,-6.26291 -3.814185,-8.08223 1.004839,-17.97566 9.659961,-19.83185 1.908807,-0.40936 6.15606,-0.1714 7.618531,0.42685 l 1.146652,0.46905 9.779395,-9.76103 c 8.53853,-8.5225 9.76346,-9.84497 9.6538,-10.4225 -0.0691,-0.3638 -0.31074,-1.37583 -0.53702,-2.24896 -1.17839,-4.54697 0.0929,-9.269876 3.45441,-12.833246 4.37371,-4.63637 10.88584,-5.79467 16.71746,-2.97352 2.12582,1.02841 5.02908,3.96836 6.11402,6.19129 0.80653,1.65249 0.96752,1.814636 2.59953,2.618066 2.08601,1.02694 5.16337,3.9782 6.21351,5.95889 2.0912,3.94428 2.04296,9.50563 -0.11573,13.34165 -1.2063,2.14361 -2.49628,3.6087 -4.29856,4.88212 -2.41228,1.7044 -4.27449,2.31064 -7.5564,2.45996 -2.50018,0.11375 -2.98705,0.0561 -4.86628,-0.5759 l -2.08816,-0.70229 -0.65109,0.60607 c -0.3581,0.33334 -4.69157,4.73352 -9.62994,9.77816 l -8.97885,9.17209 0.5806,1.67583 c 0.7926,2.28775 0.79327,6.21977 10e-4,8.70637 -1.36102,4.27426 -5.03501,7.94679 -9.254484,9.25083 -2.416041,0.74668 -6.161092,0.69819 -8.662221,-0.11216 z m 7.443426,-6.13266 c 3.680229,-1.52486 5.635029,-5.60023 4.522269,-9.42801 -0.23857,-0.82065 -0.96729,-2.20441 -1.64747,-3.12837 l -1.219668,-1.6568 12.131968,-12.15975 c 6.67258,-6.68787 12.59632,-12.50492 13.16385,-12.92679 1.35183,-1.00486 2.25796,-0.97193 4.08761,0.14856 3.54515,2.17105 7.49373,1.71384 10.20178,-1.18129 2.00651,-2.14513 2.60612,-4.37632 1.90819,-7.10059 -0.22799,-0.88993 -0.71081,-2.0874 -1.07294,-2.66105 -2.23269,-3.53681 -7.30209,-4.5105 -10.94426,-2.10209 -0.62576,0.41379 -1.22387,0.75234 -1.32913,0.75234 -0.10526,0 -1.13752,-0.95172 -2.29391,-2.11494 l -2.10254,-2.11494 0.91812,-0.79309 c 1.27876,-1.10462 3.30786,-2.23849 4.96974,-2.777126 1.36253,-0.4416 1.39163,-0.47129 0.9453,-0.96448 -0.25328,-0.27987 -1.23016,-0.88775 -2.17085,-1.35085 -4.81661,-2.37121 -10.11523,0.38679 -11.14052,5.798796 -0.41585,2.19506 0.27023,4.50978 2.04154,6.88778 0.34878,0.46825 0.59318,0.95985 0.54311,1.09244 -0.0501,0.13259 -6.00187,6.2179 -13.22622,13.52291 l -13.135188,13.28182 -1.813777,-1.20247 c -2.946646,-1.95352 -5.506547,-2.18946 -8.487518,-0.78228 -2.830862,1.33632 -4.479365,4.23593 -4.246329,7.46901 0.186308,2.58479 1.945275,5.81379 2.601809,4.77624 0.132201,-0.20892 0.24219,-0.53208 0.244418,-0.71814 0.0072,-0.6036 1.628395,-3.59993 2.585398,-4.77846 l 0.932201,-1.148 2.189952,2.17858 2.189953,2.17857 -0.881413,1.28135 c -0.824085,1.19801 -1.45579,3.17671 -1.45579,4.55999 0,1.0271 0.741191,3.15644 1.53179,4.40062 1.879104,2.95718 6.047618,4.17378 9.458525,2.76051 z"
       id="path1" /></g></svg>
