<?xml version="1.0" encoding="UTF-8" standalone="no"?>
<!-- Created with Inkscape (http://www.inkscape.org/) -->

<svg
   width="70.114594mm"
   height="62.960873mm"
   viewBox="0 0 70.114594 62.960873"
   version="1.1"
   id="svg1"
   xml:space="preserve"
   xmlns:inkscape="http://www.inkscape.org/namespaces/inkscape"
   xmlns:sodipodi="http://sodipodi.sourceforge.net/DTD/sodipodi-0.dtd"
   xmlns="http://www.w3.org/2000/svg"
   xmlns:svg="http://www.w3.org/2000/svg"><sodipodi:namedview
     id="namedview1"
     pagecolor="#ffffff"
     bordercolor="#000000"
     borderopacity="0.25"
     inkscape:showpageshadow="2"
     inkscape:pageopacity="0.0"
     inkscape:pagecheckerboard="0"
     inkscape:deskcolor="#d1d1d1"
     inkscape:document-units="mm" /><defs
     id="defs1" /><g
     inkscape:label="Layer 1"
     inkscape:groupmode="layer"
     id="layer1"
     transform="translate(-71.133325,-118.7462)"><path
       style="fill:#f9f9f9"
       d="m 72.075288,181.08558 c -0.386227,-0.38623 -0.704785,-1.10045 -0.813159,-1.82315 -0.098,-0.65348 -0.127029,-6.71085 -0.06452,-13.46082 0.10577,-11.42101 0.151886,-12.41037 0.664555,-14.25704 0.790519,-2.84751 1.584637,-4.46747 4.003566,-8.16706 1.176741,-1.79975 2.0746,-3.37733 1.995242,-3.50573 -0.07936,-0.1284 -1.038057,-0.23346 -2.130442,-0.23346 -1.092385,0 -2.217001,-0.12355 -2.499147,-0.27455 -0.596132,-0.31904 -2.098052,-3.157 -2.098052,-3.96438 0,-0.86961 0.691396,-1.9795 1.447815,-2.32415 0.414055,-0.18865 1.966743,-0.31609 3.85126,-0.31609 3.056742,0 3.161961,-0.019 3.296978,-0.59531 0.07671,-0.32742 0.379793,-1.78464 0.673524,-3.23827 0.629696,-3.11626 1.239313,-4.48452 2.642032,-5.92992 1.792059,-1.8466 3.720421,-2.56372 8.913201,-3.31468 8.618409,-1.24635 19.846559,-1.24635 28.464969,0 5.12837,0.74164 7.09012,1.46016 8.88378,3.25383 1.36983,1.36982 2.04253,2.87837 2.67145,5.99077 0.29373,1.45363 0.59682,2.91085 0.67352,3.23827 0.1351,0.57664 0.23929,0.59531 3.32257,0.59531 2.23748,0 3.3997,0.11201 3.9122,0.37703 0.76392,0.39504 1.36129,1.39942 1.36129,2.2888 0,0.78719 -1.51155,3.6249 -2.09806,3.93879 -0.28214,0.151 -1.40676,0.27455 -2.49914,0.27455 -1.09239,0 -2.05109,0.10506 -2.13044,0.23346 -0.0794,0.1284 0.82124,1.70598 2.00134,3.50573 2.42538,3.69892 3.21938,5.31875 4.00326,8.16706 0.50734,1.84347 0.55412,2.87406 0.65882,14.51367 0.062,6.89111 0.0344,12.94683 -0.0614,13.45716 -0.0957,0.51033 -0.45842,1.21223 -0.80596,1.55977 -0.61031,0.61031 -0.7683,0.6319 -4.6247,0.6319 -3.8564,0 -4.01439,-0.0216 -4.6247,-0.6319 -0.67876,-0.67875 -0.66642,-0.63082 -1.53949,-5.98269 l -0.58269,-3.57187 H 106.19062 83.436459 l -0.71329,4.3495 c -0.985208,6.0076 -0.658461,5.68592 -5.868573,5.77756 -4.067651,0.0715 -4.156072,0.0611 -4.779308,-0.56209 z m 13.480107,-20.77404 c 1.367552,-0.62126 2.701593,-2.14894 2.927331,-3.35222 0.683161,-3.64156 -1.500019,-6.57777 -4.905173,-6.59708 -2.779481,-0.0158 -4.979681,1.90565 -5.235928,4.57246 -0.395403,4.11504 3.537893,7.04676 7.21377,5.37684 z m 45.312515,0.0839 c 4.07109,-1.70101 4.34899,-7.45675 0.45813,-9.48881 -3.14228,-1.6411 -7.1519,0.38967 -7.4784,3.78762 -0.18399,1.91472 0.11673,3.08434 1.07304,4.17351 1.55909,1.77571 3.90896,2.37932 5.94723,1.52768 z m -2.84916,-17.19611 c 0,-0.0787 -0.23227,-0.88238 -0.51616,-1.78594 -0.28388,-0.90355 -1.01218,-4.20266 -1.61844,-7.33136 -0.90633,-4.67732 -1.20646,-5.78532 -1.68834,-6.23292 -1.26726,-1.17714 -8.81417,-2.02083 -18.00519,-2.01285 -9.17755,0.008 -17.025308,0.90372 -18.12022,2.06826 -0.311892,0.33173 -0.858698,2.50965 -1.700452,6.77285 -0.682401,3.45614 -1.41324,6.69677 -1.624088,7.2014 -0.210848,0.50463 -0.38336,1.0404 -0.38336,1.19059 0,0.18552 6.999583,0.27308 21.82812,0.27308 12.00547,0 21.82813,-0.0644 21.82813,-0.14311 z"
       id="path1" /></g></svg>
