<?xml version="1.0" encoding="UTF-8" standalone="no"?>
<!-- Created with Inkscape (http://www.inkscape.org/) -->

<svg
   width="55.740627mm"
   height="69.828949mm"
   viewBox="0 0 55.740627 69.828949"
   version="1.1"
   id="svg1"
   xml:space="preserve"
   xmlns:inkscape="http://www.inkscape.org/namespaces/inkscape"
   xmlns:sodipodi="http://sodipodi.sourceforge.net/DTD/sodipodi-0.dtd"
   xmlns="http://www.w3.org/2000/svg"
   xmlns:svg="http://www.w3.org/2000/svg"><sodipodi:namedview
     id="namedview1"
     pagecolor="#ffffff"
     bordercolor="#000000"
     borderopacity="0.25"
     inkscape:showpageshadow="2"
     inkscape:pageopacity="0.0"
     inkscape:pagecheckerboard="0"
     inkscape:deskcolor="#d1d1d1"
     inkscape:document-units="mm" /><defs
     id="defs1" /><g
     inkscape:label="Layer 1"
     inkscape:groupmode="layer"
     id="layer1"
     transform="translate(-77.527086,-112.91541)"><path
       style="fill:#f9f9f9"
       d="m 85.45569,182.48028 c -3.790362,-0.7449 -6.958463,-4.12153 -7.714024,-8.22177 -0.181152,-0.98307 -0.249054,-9.14169 -0.198186,-23.8125 0.0735,-21.19845 0.102635,-22.38338 0.581211,-23.63999 1.448309,-3.80285 4.255442,-6.1062 8.244616,-6.765 l 1.839697,-0.30382 0.707737,-1.5064 c 0.941713,-2.00441 3.070165,-4.00291 5.053514,-4.74498 1.461607,-0.54686 1.933695,-0.57042 11.426615,-0.57042 9.50158,0 9.96396,0.0231 11.43331,0.57216 1.93702,0.72376 4.52894,3.21662 5.21194,5.01276 l 0.46365,1.2193 2.08496,0.41076 c 2.73275,0.53838 4.26819,1.33566 5.79993,3.01162 1.52524,1.66886 2.36026,3.376 2.69094,5.50141 0.14601,0.93845 0.21764,10.80939 0.1729,23.8272 l -0.0764,22.225 -0.59911,1.4552 c -0.8464,2.05587 -2.12977,3.68932 -3.79105,4.82521 -2.64925,1.81141 -2.40129,1.79274 -23.38053,1.76039 -10.337783,-0.016 -19.316067,-0.1312 -19.95174,-0.25613 z m 39.84681,-7.72294 0.99646,-0.9966 v -22.28673 c 0,-17.92114 -0.0681,-22.40612 -0.34762,-22.89621 -0.43399,-0.76091 -1.83996,-1.63719 -2.62894,-1.6385 -0.56814,-9.4e-4 -0.59532,0.0962 -0.59532,2.12882 0,2.45707 -0.39278,3.45428 -1.66649,4.23091 -0.81309,0.49577 -1.43346,0.51651 -15.47378,0.51746 -15.86982,0.001 -15.793831,0.008 -16.946553,-1.45784 -0.490427,-0.62347 -0.57359,-1.06928 -0.57359,-3.07477 0,-2.25634 -0.02264,-2.34553 -0.595312,-2.34458 -0.788988,10e-4 -2.194955,0.87759 -2.628947,1.6385 -0.519816,0.91139 -0.510411,44.14459 0.0099,45.3773 0.388993,0.92165 1.169078,1.54651 2.175459,1.74258 0.35313,0.0688 8.885211,0.10961 18.960183,0.0907 l 18.31812,-0.0344 z m -21.78383,-6.51679 c -1.50405,-0.91715 -1.69367,-1.91572 -1.69367,-8.91902 v -6.23524 l -1.11046,0.81663 c -0.884449,0.65044 -1.374475,0.81664 -2.407705,0.81664 -1.11804,0 -1.419372,-0.12212 -2.181239,-0.88398 -1.026975,-1.02698 -1.310701,-1.90697 -1.054741,-3.27135 0.149745,-0.79821 0.89298,-1.69748 4.064015,-4.9172 2.13442,-2.16718 4.20226,-4.10806 4.59522,-4.31307 0.39296,-0.205 1.14301,-0.37273 1.66678,-0.37273 0.52378,0 1.27383,0.16773 1.66679,0.37273 0.39296,0.20501 2.4608,2.14589 4.59522,4.31307 3.17104,3.21972 3.91427,4.11899 4.06402,4.9172 0.25595,1.36438 -0.0278,2.24437 -1.05475,3.27135 -0.77102,0.77102 -1.05632,0.88398 -2.2326,0.88398 -1.1779,0 -1.48267,-0.12111 -2.4077,-0.95683 l -1.0591,-0.95682 -0.006,6.44693 c -0.005,5.76061 -0.0593,6.56477 -0.50838,7.55387 -0.83862,1.84712 -3.15478,2.51995 -4.93589,1.43384 z m 12.32925,-44.10071 c 0,-2.74028 -0.0161,-2.81457 -0.7734,-3.57188 l -0.7734,-0.7734 h -8.90425 -8.904242 l -0.773397,0.7734 c -0.757313,0.75731 -0.773397,0.8316 -0.773397,3.57188 v 2.79847 h 10.451036 10.45105 z"
       id="path1" /></g></svg>
