<?xml version="1.0" encoding="UTF-8" standalone="no"?>
<!-- Created with Inkscape (http://www.inkscape.org/) -->

<svg
   width="73.212097mm"
   height="73.554169mm"
   viewBox="0 0 73.212097 73.554169"
   version="1.1"
   id="svg1"
   xml:space="preserve"
   xmlns:inkscape="http://www.inkscape.org/namespaces/inkscape"
   xmlns:sodipodi="http://sodipodi.sourceforge.net/DTD/sodipodi-0.dtd"
   xmlns="http://www.w3.org/2000/svg"
   xmlns:svg="http://www.w3.org/2000/svg"><sodipodi:namedview
     id="namedview1"
     pagecolor="#ffffff"
     bordercolor="#000000"
     borderopacity="0.25"
     inkscape:showpageshadow="2"
     inkscape:pageopacity="0.0"
     inkscape:pagecheckerboard="0"
     inkscape:deskcolor="#d1d1d1"
     inkscape:document-units="mm" /><defs
     id="defs1" /><g
     inkscape:label="Layer 1"
     inkscape:groupmode="layer"
     id="layer1"
     transform="translate(-69.452417,-111.98935)"><path
       style="fill:#f9f9f9"
       d="m 99.371707,179.92113 c -3.111032,-3.09232 -5.83657,-5.96428 -6.056751,-6.38214 -0.904287,-1.71617 0.338497,-3.60588 2.371426,-3.60588 1.010868,0 1.242109,0.17419 4.466458,3.36454 l 3.40039,3.36453 -0.0704,-7.50263 -0.0704,-7.50262 -1.05833,-0.31678 c -4.00715,-1.19939 -7.495524,-4.58082 -8.710458,-8.44341 l -0.466921,-1.48447 h -7.436782 -7.436781 l 3.360365,3.39618 c 2.85901,2.88947 3.360366,3.51922 3.360366,4.22088 0,1.54174 -0.584714,2.28869 -2.197602,2.80736 -1.001908,0.3222 -2.339026,-0.74921 -7.790419,-6.24233 -7.459551,-7.51664 -7.472543,-6.1339 0.129331,-13.76449 5.938488,-5.96092 6.743538,-6.55853 8.12667,-6.03266 0.937319,0.35636 1.73202,1.54807 1.73202,2.59728 0,0.84135 -0.332577,1.26989 -3.360366,4.32994 l -3.360365,3.39618 h 7.436781 7.436782 l 0.466921,-1.48447 c 1.214934,-3.86259 4.703308,-7.24402 8.710458,-8.44341 l 1.05833,-0.31678 0.0704,-7.50263 0.0704,-7.50263 -3.40039,3.36454 c -3.224349,3.19035 -3.45559,3.36454 -4.466458,3.36454 -2.032929,0 -3.275713,-1.88972 -2.371426,-3.60588 0.220181,-0.41786 2.945719,-3.28982 6.056751,-6.38214 5.421623,-5.38901 5.699183,-5.6224 6.686623,-5.6224 0.98744,0 1.26501,0.23339 6.68663,5.6224 3.11103,3.09232 5.83657,5.96428 6.05675,6.38214 0.90429,1.71616 -0.3385,3.60588 -2.37143,3.60588 -1.01086,0 -1.2421,-0.17419 -4.46645,-3.36454 l -3.40039,-3.36454 0.0704,7.50263 0.0704,7.50263 1.05833,0.31678 c 4.00715,1.19939 7.49552,4.58082 8.71045,8.44341 l 0.46693,1.48447 h 7.43678 7.43678 l -3.36037,-3.39618 c -2.85901,-2.88947 -3.36036,-3.51922 -3.36036,-4.22088 0,-1.54174 0.58471,-2.28869 2.1976,-2.80737 1.00191,-0.32219 2.33903,0.74922 7.79042,6.24234 7.4591,7.51619 7.47139,6.13506 -0.12239,13.75752 -5.91288,5.93522 -6.75159,6.56507 -8.07298,6.06268 -0.99287,-0.37748 -1.79265,-1.54653 -1.79265,-2.62033 0,-0.84135 0.33257,-1.26989 3.36036,-4.32994 l 3.36037,-3.39618 h -7.43678 -7.43678 l -0.46693,1.48447 c -1.21493,3.86259 -4.7033,7.24402 -8.71045,8.44341 l -1.05833,0.31678 -0.0704,7.50262 -0.0704,7.50263 3.40039,-3.36453 c 3.2728,-3.2383 3.44218,-3.36454 4.51416,-3.36454 1.85277,0 3.10899,1.75844 2.429,3.40008 -0.1695,0.40919 -2.89785,3.32391 -6.063,6.47716 -5.52227,5.50148 -5.79648,5.73317 -6.78535,5.73317 -0.98784,0 -1.26473,-0.23281 -6.686933,-5.62239 z m 10.131753,-24.13435 c 5.87187,-2.87285 5.82402,-11.1833 -0.0811,-14.08309 -3.11657,-1.53043 -6.93966,-0.7348 -9.28787,1.93291 -1.265422,1.43759 -1.881365,3.1216 -1.881365,5.14371 0,5.84632 5.993005,9.57863 11.250335,7.00647 z"
       id="path1" /></g></svg>
