<?xml version="1.0" encoding="UTF-8" standalone="no"?>
<!-- Created with Inkscape (http://www.inkscape.org/) -->

<svg
   width="74.216003mm"
   height="78.829872mm"
   viewBox="0 0 74.216003 78.829872"
   version="1.1"
   id="svg1"
   xml:space="preserve"
   xmlns:inkscape="http://www.inkscape.org/namespaces/inkscape"
   xmlns:sodipodi="http://sodipodi.sourceforge.net/DTD/sodipodi-0.dtd"
   xmlns="http://www.w3.org/2000/svg"
   xmlns:svg="http://www.w3.org/2000/svg"><sodipodi:namedview
     id="namedview1"
     pagecolor="#ffffff"
     bordercolor="#000000"
     borderopacity="0.25"
     inkscape:showpageshadow="2"
     inkscape:pageopacity="0.0"
     inkscape:pagecheckerboard="0"
     inkscape:deskcolor="#d1d1d1"
     inkscape:document-units="mm" /><defs
     id="defs1" /><g
     inkscape:label="Layer 1"
     inkscape:groupmode="layer"
     id="layer1"
     transform="translate(-65.103944,-112.8756)"><path
       style="fill:#ffffff"
       d="M 76.159388,182.11282 C 64.885067,170.81051 65.104253,171.11886 65.104253,166.56079 c 0,-2.60529 0.05516,-2.8964 0.857588,-4.5257 1.032889,-2.09725 2.925912,-3.95554 5.03784,-4.9454 1.324818,-0.62094 1.84184,-0.7091 4.158739,-0.7091 2.42737,0 2.793296,0.0699 4.431771,0.846 l 1.785937,0.84599 -0.0071,-4.02099 -0.0071,-4.021 -1.079735,-0.66146 c -0.593855,-0.3638 -2.074461,-1.70468 -3.290237,-2.97973 -3.755044,-3.93813 -5.393229,-8.05162 -5.398931,-13.55672 -0.0082,-7.93194 4.286874,-14.70926 11.502928,-18.15072 4.189942,-1.99826 9.74994,-2.37194 14.1993,-0.95433 6.558107,2.08949 11.989137,7.93047 13.513237,14.53326 l 0.29189,1.26449 h 7.62747 c 4.19511,0 7.62748,-0.0867 7.62748,-0.19258 0,-0.10592 -0.8929,-1.09074 -1.98421,-2.1885 l -1.98421,-1.99591 2.31861,-2.30786 2.3186,-2.30786 6.14792,6.15209 6.14791,6.15209 -6.15538,6.15121 -6.15538,6.1512 -2.37159,-2.38263 -2.37159,-2.38264 2.1046,-2.11701 2.10459,-2.11701 h -7.70646 -7.70647 l -0.32868,1.3701 c -1.07157,4.46682 -4.18839,9.0233 -8.05799,11.77998 -0.4363,0.31082 -0.73395,0.61406 -0.66146,0.67387 0.0725,0.0598 3.58462,0.60938 7.80473,1.22127 8.6634,1.25614 9.66416,1.5768 11.81834,3.78673 0.67925,0.69683 1.57172,1.95369 1.98327,2.79303 0.65712,1.34018 0.75982,1.88498 0.84312,4.47292 0.258,8.01459 -1.98905,18.14006 -5.90728,26.61886 l -0.94691,2.04905 -2.90309,-1.45595 c -1.59669,-0.80077 -2.90308,-1.49784 -2.90308,-1.54903 0,-0.0512 0.48052,-1.13316 1.06781,-2.40436 3.08704,-6.68188 5.00954,-15.17667 5.01544,-22.16133 0.002,-2.48965 -0.0232,-2.59939 -0.80496,-3.48975 -0.61355,-0.6988 -1.13705,-0.98594 -2.18281,-1.19729 -1.31165,-0.26509 -19.549177,-2.92894 -20.052387,-2.92894 -0.14138,0 -0.24101,-4.9166 -0.24101,-11.8938 0,-8.52765 -0.0877,-12.08636 -0.31001,-12.5742 -0.17051,-0.37423 -0.71125,-0.92839 -1.20164,-1.23147 -1.794105,-1.10881 -4.214202,-0.0247 -4.843556,2.16973 -0.15943,0.5559 -0.259372,8.80528 -0.259372,21.40891 v 20.50453 l -5.357813,-5.32726 c -2.946797,-2.93 -5.617876,-5.45899 -5.935731,-5.61998 -1.438543,-0.7286 -3.559808,-0.13998 -4.560597,1.2655 -0.61428,0.86267 -0.748257,2.8472 -0.257691,3.817 0.160785,0.31785 4.388432,4.68713 9.394772,9.70951 l 9.102437,9.13158 -2.323904,2.31314 -2.323905,2.31314 z M 81.9887,129.94177 c 0.579205,-1.78877 2.121346,-3.94592 3.593475,-5.02656 2.00007,-1.46819 3.290403,-1.87212 5.980412,-1.87212 2.080343,0 2.574593,0.0949 3.911293,0.75132 1.91617,0.94092 3.92943,2.96277 4.88235,4.90318 0.7127,1.45127 0.73473,1.63322 0.86365,7.1339 l 0.13229,5.64465 0.55135,-0.61757 c 0.84398,-0.94533 1.83804,-2.85361 2.25128,-4.32173 0.5114,-1.81685 0.45419,-5.97596 -0.10741,-7.80793 -1.20731,-3.93831 -4.9914,-7.59881 -9.04522,-8.74979 -1.81028,-0.51399 -5.714198,-0.45346 -7.585012,0.11759 -2.930642,0.89456 -6.135491,3.55173 -7.734594,6.41284 -1.159636,2.07481 -1.558253,4.01074 -1.421914,6.90568 0.135649,2.88027 0.697224,4.68841 2.127975,6.85158 l 0.855211,1.293 0.16141,-5.15731 c 0.113214,-3.61739 0.287429,-5.54651 0.583454,-6.46073 z"
       id="path1"
       inkscape:export-filename="Drag.svg"
       inkscape:export-xdpi="96"
       inkscape:export-ydpi="96" /></g></svg>
