<?xml version="1.0" encoding="UTF-8" standalone="no"?>
<!-- Created with Inkscape (http://www.inkscape.org/) -->

<svg
   width="18.060892mm"
   height="23.042715mm"
   viewBox="0 0 18.060892 23.042715"
   version="1.1"
   id="svg1"
   xml:space="preserve"
   xmlns:inkscape="http://www.inkscape.org/namespaces/inkscape"
   xmlns:sodipodi="http://sodipodi.sourceforge.net/DTD/sodipodi-0.dtd"
   xmlns="http://www.w3.org/2000/svg"
   xmlns:svg="http://www.w3.org/2000/svg"><sodipodi:namedview
     id="namedview1"
     pagecolor="#ffffff"
     bordercolor="#000000"
     borderopacity="0.25"
     inkscape:showpageshadow="2"
     inkscape:pageopacity="0.0"
     inkscape:pagecheckerboard="0"
     inkscape:deskcolor="#d1d1d1"
     inkscape:document-units="mm" /><defs
     id="defs1" /><g
     inkscape:label="Layer 1"
     inkscape:groupmode="layer"
     id="layer1"
     transform="translate(-38.060117,-135.70881)"><path
       style="fill:#ffffff"
       d="m 44.66934,149.7557 0.158392,-8.99583 h -3.383808 -3.383808 l 0.163999,-0.99219 c 0.0902,-0.5457 0.165309,-1.60029 0.16691,-2.34353 l 0.0029,-1.35134 7.871354,0.0253 c 4.329245,0.0139 8.317839,-0.068 8.863542,-0.182 l 0.992188,-0.20731 v 2.68446 2.68446 l -3.343206,-0.19282 -3.343206,-0.19283 0.195662,9.02973 0.195662,9.02972 h -2.657492 -2.657493 z m 2.922297,-1.9402 0.06957,-9.1723 h 3.303863 c 2.026187,0 3.303863,-0.10232 3.303863,-0.26458 0,-0.16974 -2.513541,-0.26459 -7.011458,-0.26459 -4.497917,0 -7.011458,0.0949 -7.011458,0.26459 0,0.16228 1.278819,0.26458 3.307291,0.26458 H 46.8606 v 9.28247 c 0,7.30834 0.07034,9.25903 0.330729,9.17229 0.254295,-0.0847 0.346808,-2.22996 0.400304,-9.28246 z"
       id="path12" /></g></svg>
