<?xml version="1.0" encoding="UTF-8" standalone="no"?>
<!-- Created with Inkscape (http://www.inkscape.org/) -->

<svg
   width="81.938271mm"
   height="85.794479mm"
   viewBox="0 0 81.938271 85.794479"
   version="1.1"
   id="svg1"
   xml:space="preserve"
   xmlns:inkscape="http://www.inkscape.org/namespaces/inkscape"
   xmlns:sodipodi="http://sodipodi.sourceforge.net/DTD/sodipodi-0.dtd"
   xmlns="http://www.w3.org/2000/svg"
   xmlns:svg="http://www.w3.org/2000/svg"><sodipodi:namedview
     id="namedview1"
     pagecolor="#ffffff"
     bordercolor="#000000"
     borderopacity="0.25"
     inkscape:showpageshadow="2"
     inkscape:pageopacity="0.0"
     inkscape:pagecheckerboard="0"
     inkscape:deskcolor="#d1d1d1"
     inkscape:document-units="mm" /><defs
     id="defs1" /><g
     inkscape:label="Layer 1"
     inkscape:groupmode="layer"
     id="layer1"
     transform="translate(-60.444055,-99.834416)"><path
       style="fill:#ffffff"
       d="m 104.7679,185.40492 c -1.17528,-0.35277 -2.51651,-1.51538 -3.14118,-2.72285 -1.11299,-2.15136 -0.94271,-2.93378 2.49692,-11.47322 1.70987,-4.24503 3.10886,-7.83883 3.10886,-7.98622 0,-0.22019 -8.691414,-7.20865 -9.693552,-7.79424 -0.188221,-0.10999 -1.100417,1.18877 -2.436751,3.46939 -1.174751,2.00485 -2.410217,3.90288 -2.74548,4.21785 -1.466878,1.37806 -1.615836,1.39166 -15.23661,1.39166 H 64.453223 l -1.166094,-0.61585 c -2.150713,-1.13587 -3.372481,-4.11951 -2.620243,-6.39882 0.37884,-1.14789 1.923036,-2.95783 2.899119,-3.39803 0.451174,-0.20347 4.141266,-0.34636 11.23972,-0.43521 l 10.568023,-0.1323 2.679599,-4.6302 c 8.29653,-14.33598 13.093733,-22.76567 13.093733,-23.00845 0,-0.18062 -1.748857,-0.27489 -5.099772,-0.27489 h -5.099772 l -2.639291,4.80343 c -3.260117,5.93332 -3.752002,6.62523 -5.212593,7.33229 -3.277757,1.58674 -7.115326,-0.22593 -7.872506,-3.71855 -0.431582,-1.99075 -0.161463,-2.66288 4.286542,-10.66613 3.286555,-5.91346 3.981093,-6.99059 4.94753,-7.67291 l 1.124261,-0.79375 10.230196,-0.0741 10.230195,-0.0741 0.35723,0.8115 c 0.57331,1.30237 2.31756,3.34866 3.9504,4.63445 1.88581,1.48499 4.88892,2.66894 7.39595,2.91578 l 1.914,0.18845 2.81248,4.33186 c 1.54686,2.38252 2.85282,4.33185 2.90212,4.33185 0.0493,0 2.13534,-1.13341 4.63564,-2.51868 2.5003,-1.38528 5.06119,-2.64841 5.69086,-2.80697 1.76773,-0.44512 3.62602,0.0991 4.98481,1.45996 2.11376,2.11694 2.26718,5.10544 0.37965,7.39535 -0.96398,1.16948 -15.18231,9.06438 -16.778,9.31619 -1.38072,0.21789 -3.05357,-0.24045 -4.10419,-1.12449 -0.45764,-0.38508 -2.01996,-2.47629 -3.47183,-4.64714 -1.45186,-2.17085 -2.67378,-3.90648 -2.71538,-3.85696 -0.0416,0.0495 -1.77197,2.98976 -3.84526,6.53386 -3.12687,5.3451 -3.70829,6.50026 -3.40989,6.77474 0.19786,0.182 2.82816,2.26153 5.84511,4.62117 3.01695,2.35965 5.70741,4.6093 5.9788,4.99922 0.64758,0.93042 1.10354,2.30676 1.10354,3.33103 0,0.69883 -7.20792,19.14441 -8.32555,21.30567 -1.14795,2.21988 -4.0824,3.40644 -6.57446,2.65843 z m 12.48507,-67.43456 c -2.92792,-0.61158 -5.82213,-3.04389 -6.83125,-5.741 -0.72812,-1.94607 -0.7263,-4.62793 0.004,-6.58105 0.72837,-1.94677 2.75693,-4.14385 4.69351,-5.08344 1.30243,-0.631915 1.82673,-0.730448 3.88677,-0.730448 2.04227,0 2.58887,0.100816 3.83977,0.708218 1.9343,0.93924 3.60169,2.61963 4.53037,4.56569 0.97058,2.03389 1.05611,4.87188 0.21459,7.12103 -1.47206,3.93443 -6.25948,6.59297 -10.33822,5.741 z"
       id="path1" /></g></svg>
