<?xml version="1.0" encoding="UTF-8" standalone="no"?>
<!-- Created with Inkscape (http://www.inkscape.org/) -->

<svg
   width="71.954514mm"
   height="71.77018mm"
   viewBox="0 0 71.954514 71.77018"
   version="1.1"
   id="svg1"
   xml:space="preserve"
   xmlns:inkscape="http://www.inkscape.org/namespaces/inkscape"
   xmlns:sodipodi="http://sodipodi.sourceforge.net/DTD/sodipodi-0.dtd"
   xmlns="http://www.w3.org/2000/svg"
   xmlns:svg="http://www.w3.org/2000/svg"><sodipodi:namedview
     id="namedview1"
     pagecolor="#ffffff"
     bordercolor="#000000"
     borderopacity="0.25"
     inkscape:showpageshadow="2"
     inkscape:pageopacity="0.0"
     inkscape:pagecheckerboard="0"
     inkscape:deskcolor="#d1d1d1"
     inkscape:document-units="mm" /><defs
     id="defs1" /><g
     inkscape:label="Layer 1"
     inkscape:groupmode="layer"
     id="layer1"
     transform="translate(-62.127515,-67.8179)"><path
       style="fill:#ffffff"
       d="m 93.356749,139.32709 c -0.509323,-0.0604 -2.116666,-0.23557 -3.571875,-0.38929 -7.93344,-0.83804 -14.857873,-3.19611 -18.648307,-6.35054 -11.553714,-9.6151 -12.13821,-45.762515 -0.921933,-57.015685 10.304345,-10.33824 45.497506,-10.33824 55.810846,0 10.99677,11.02331 10.65802,46.735465 -0.53796,56.714285 -5.3757,4.79128 -21.43181,8.30987 -32.130771,7.04123 z m 13.474941,-14.59452 c 2.54924,-1.2999 2.78212,-4.68861 0.42243,-6.14699 -1.3215,-0.81673 -16.936228,-0.82415 -18.255693,-0.009 -2.368331,1.46371 -2.075693,5.12181 0.499424,6.24302 1.374694,0.59854 16.134579,0.52416 17.333839,-0.0873 z m -7.345777,-10.60152 c 2.156107,-0.88003 12.920827,-12.56424 12.920827,-14.0245 0,-4.477975 -3.70241,-4.840425 -7.85476,-0.768945 l -2.69539,2.642895 -0.0827,-8.720115 c -0.0936,-9.86957 -0.18027,-10.23429 -2.603227,-10.96023 -3.946636,-1.18244 -4.605331,0.35166 -4.705985,10.96023 l -0.08274,8.720115 -2.695389,-2.642895 c -3.044886,-2.98558 -3.804765,-3.32701 -5.708972,-2.56509 -1.961746,0.78493 -2.867183,3.637525 -1.641194,5.170615 0.982625,1.22876 11.952198,12.00897 12.401072,12.18699 0.586188,0.23249 2.179848,0.23302 2.748498,9.3e-4 z"
       id="path1"
       inkscape:export-filename="Import.svg"
       inkscape:export-xdpi="96"
       inkscape:export-ydpi="96" /></g></svg>
