<?xml version="1.0" encoding="UTF-8" standalone="no"?>
<!-- Created with Inkscape (http://www.inkscape.org/) -->

<svg
   width="72.458008mm"
   height="92.231697mm"
   viewBox="0 0 72.458008 92.231697"
   version="1.1"
   id="svg1"
   xml:space="preserve"
   xmlns:inkscape="http://www.inkscape.org/namespaces/inkscape"
   xmlns:sodipodi="http://sodipodi.sourceforge.net/DTD/sodipodi-0.dtd"
   xmlns="http://www.w3.org/2000/svg"
   xmlns:svg="http://www.w3.org/2000/svg"><sodipodi:namedview
     id="namedview1"
     pagecolor="#ffffff"
     bordercolor="#000000"
     borderopacity="0.25"
     inkscape:showpageshadow="2"
     inkscape:pageopacity="0.0"
     inkscape:pagecheckerboard="0"
     inkscape:deskcolor="#d1d1d1"
     inkscape:document-units="mm" /><defs
     id="defs1" /><g
     inkscape:label="Layer 1"
     inkscape:groupmode="layer"
     id="layer1"
     transform="translate(-65.731828,-159.95109)"><g
       id="g7"
       style="fill:#ffffff"><path
         d="m 102.37654,218.66077 c 0.40672,0.13583 0.75301,0.24809 0.76952,0.24944 0.1264,0.0104 13.10451,13.8134 13.28754,14.13206 0.12966,0.22575 0.24333,0.79475 0.25259,1.26444 0.0285,1.44523 -0.79292,2.41261 -2.35086,2.76854 -1.22135,0.27903 -1.84758,-0.19679 -5.92315,-4.50053 l -3.84561,-4.0609 0.011,5.48826 c 0.0118,5.90033 0.12293,6.87573 0.96755,8.49757 0.72168,1.38578 2.19183,2.79999 3.5008,3.3676 1.38253,0.5995 3.17048,0.82098 6.36266,0.78815 2.32907,-0.024 2.48093,-10e-4 3.0905,0.45104 1.26165,0.93724 1.60606,2.4913 0.82014,3.70067 -0.76434,1.17615 -1.31691,1.32585 -5.05656,1.36988 -4.0179,0.0473 -5.35123,-0.17856 -7.71152,-1.3064 -2.78673,-1.33161 -5.10153,-3.66932 -6.3624,-6.42537 -0.983877,-2.15059 -1.095436,-2.96901 -1.306581,-9.58544 l -0.198462,-6.21895 -3.642832,4.05316 c -2.003556,2.22923 -3.858218,4.16657 -4.121473,4.30519 -0.977345,0.51465 -1.671493,0.55502 -2.523182,0.14677 -0.444963,-0.21329 -0.975125,-0.61099 -1.178137,-0.88378 -0.525808,-0.70655 -0.62602,-2.08779 -0.207044,-2.85374 0.412509,-0.75414 12.526502,-14.2087 13.055921,-14.50073 0.74181,-0.40919 1.56133,-0.49681 2.30954,-0.24693 z"
         style="fill:#ffffff;stroke-width:0.717375"
         id="path1-8" /><path
         style="fill:#ffffff;stroke-width:6.21215;stroke-linecap:square;paint-order:markers stroke fill"
         d="m 67.792827,225.71557 c -2.147631,-0.86668 -2.789878,-4.32096 -1.09537,-5.89138 1.249204,-1.15772 3.454607,-1.37438 13.989807,-1.37438 8.091101,0 8.360793,0.0249 9.332428,0.86063 1.504146,1.29381 1.712563,3.62751 0.454578,5.09 -0.8982,1.04422 -1.203524,1.13658 -4.532381,1.37099 -5.200245,0.3662 -17.194686,0.32928 -18.149062,-0.0559 z"
         id="path2" /><path
         style="fill:#ffffff;stroke-width:6.21215;stroke-linecap:square;paint-order:markers stroke fill"
         d="m 113.60744,224.02767 c -0.67598,-0.76991 -1.22842,-1.78086 -1.22764,-2.24657 0.002,-1.32287 1.39496,-3.28037 2.56684,-3.60772 0.58465,-0.16331 5.56395,-0.29693 11.06509,-0.29693 9.96605,0 10.00552,0.003 10.95704,0.89628 1.26487,1.18716 1.53442,2.44233 0.86736,4.03884 -0.90868,2.17477 -1.32852,2.25579 -12.66595,2.4442 l -10.33367,0.17173 z"
         id="path3" /><g
         id="g6"
         transform="translate(0.38223938,1.9111969)"
         style="fill:#ffffff"><path
           style="fill:#ffffff;stroke:none;stroke-width:2.74489;stroke-linecap:square;stroke-dasharray:none;stroke-opacity:1;paint-order:markers stroke fill"
           d="m 101.92604,211.25272 c -1.15332,-1.2744 -0.71556,-2.4925 2.99008,-8.32007 4.01778,-6.31849 3.97951,-5.81681 0.48639,-6.37544 -1.26178,-0.20178 -1.4334,-0.13612 -1.4334,0.54842 0,0.87074 -7.6458,11.47782 -8.913487,12.36574 -0.446929,0.31304 -1.040154,0.56917 -1.318282,0.56917 -0.753308,0 -2.382131,-1.77112 -2.382131,-2.59023 0,-0.39259 1.389269,-2.91432 3.087267,-5.60386 l 3.087264,-4.89007 -0.942895,-1.00715 c -1.506384,-1.60903 -2.55596,-4.06006 -2.55596,-5.9688 0,-0.95869 0.708179,-4.32821 1.573731,-7.48783 0.86555,-3.15962 1.498396,-5.82009 1.406324,-5.91216 -0.09208,-0.0921 -1.865323,-0.40026 -3.940553,-0.68485 -3.688406,-0.50583 -3.88479,-0.49306 -8.744085,0.56858 -2.734014,0.59731 -5.277141,1.08602 -5.651392,1.08602 -0.37425,0 -0.962215,-0.43002 -1.306586,-0.9556 -1.152626,-1.75913 -0.160544,-2.5211 6.031561,-4.63257 l 5.470768,-1.8655 5.302046,0.0754 c 5.08943,0.0724 5.365335,0.1176 6.88031,1.12857 1.17324,0.78292 2.176,1.09283 3.90749,1.20763 2.57867,0.17096 4.08774,-0.37933 6.08004,-2.21711 0.63069,-0.58178 2.00676,-1.32911 3.05791,-1.66074 2.68194,-0.84612 14.52017,-1.91458 15.48599,-1.39769 0.9852,0.52726 1.61891,1.7706 1.34396,2.63687 -0.48663,1.53325 -1.51002,1.90878 -7.47837,2.74418 -5.55149,0.77705 -6.116,0.93508 -9.27134,2.59533 -2.56022,1.34711 -3.41341,1.99534 -3.58463,2.72349 -0.12359,0.52558 -0.9045,3.51334 -1.73536,6.63947 -0.83086,3.12613 -1.36787,5.80741 -1.19336,5.95841 0.1745,0.15099 1.76783,0.59571 3.54071,0.98826 1.89476,0.41953 3.6132,1.04899 4.16905,1.52712 1.75771,1.51192 1.34437,2.52284 -4.16159,10.17819 -2.77211,3.85428 -5.39412,7.39479 -5.82669,7.86782 -0.95277,1.04186 -2.5945,1.11825 -3.46078,0.16102 z"
           id="path5" /><path
           style="fill:#ffffff;stroke:none;stroke-width:2.74489;stroke-linecap:square;stroke-dasharray:none;stroke-opacity:1;paint-order:markers stroke fill"
           d="m 103.30264,170.64178 c -2.97034,-0.89776 -5.099486,-4.74522 -4.276135,-7.72715 1.532375,-5.5498 8.480445,-6.63526 11.718255,-1.83067 1.06069,1.57396 1.16654,4.44791 0.23604,6.40879 -1.19737,2.52326 -4.82546,4.01125 -7.67816,3.14903 z"
           id="path6" /></g></g></g></svg>
