<?xml version="1.0" encoding="UTF-8" standalone="no"?>
<!-- Created with Inkscape (http://www.inkscape.org/) -->

<svg
   width="74.866707mm"
   height="75.168831mm"
   viewBox="0 0 74.866707 75.168831"
   version="1.1"
   id="svg1"
   xml:space="preserve"
   xmlns:inkscape="http://www.inkscape.org/namespaces/inkscape"
   xmlns:sodipodi="http://sodipodi.sourceforge.net/DTD/sodipodi-0.dtd"
   xmlns="http://www.w3.org/2000/svg"
   xmlns:svg="http://www.w3.org/2000/svg"><sodipodi:namedview
     id="namedview1"
     pagecolor="#ffffff"
     bordercolor="#000000"
     borderopacity="0.25"
     inkscape:showpageshadow="2"
     inkscape:pageopacity="0.0"
     inkscape:pagecheckerboard="0"
     inkscape:deskcolor="#d1d1d1"
     inkscape:document-units="mm" /><defs
     id="defs1" /><g
     inkscape:label="Layer 1"
     inkscape:groupmode="layer"
     id="layer1"
     transform="translate(-40.534509,-104.52218)"><path
       style="fill:#ffffff"
       d="m 76.232908,178.91761 -0.773397,-0.7734 v -4.4594 c 0,-4.89397 0.104495,-5.28577 1.571827,-5.89356 0.991204,-0.41057 1.982349,-0.18054 2.816584,0.6537 0.62544,0.62544 0.638672,0.73253 0.638672,5.16896 v 4.5303 l -0.773397,0.7734 c -0.572586,0.57258 -1.024412,0.77339 -1.740144,0.77339 -0.715732,0 -1.167559,-0.20081 -1.740145,-0.77339 z M 55.254966,164.97055 c -1.017227,-1.01723 -0.9696,-2.556 0.120024,-3.87791 1.938534,-2.35177 4.321004,-2.28058 5.247701,0.15682 0.384996,1.01261 -0.128157,2.16358 -1.527662,3.42644 -1.400624,1.26387 -2.766069,1.36865 -3.840063,0.29465 z m 41.59611,-0.29465 c -1.827733,-1.64928 -2.144235,-3.16268 -0.939812,-4.49386 1.206525,-1.33351 3.117953,-0.95999 4.659856,0.9106 1.63656,1.98544 0.73142,4.57545 -1.59901,4.57545 -0.808527,0 -1.250728,-0.20686 -2.121034,-0.99219 z m -20.730107,-5.58791 c -1.047976,-0.47833 -5.791651,-4.18798 -8.598958,-6.72457 -5.727927,-5.17556 -7.968998,-10.97391 -6.468533,-16.7361 1.553467,-5.96573 7.392417,-9.00254 12.601471,-6.55396 0.972023,0.45691 2.295025,1.31717 2.940006,1.9117 0.64498,0.59452 1.265124,1.08095 1.378098,1.08095 0.112973,0 0.733117,-0.48643 1.378098,-1.08095 0.64498,-0.59453 1.967983,-1.45479 2.940005,-1.9117 1.498273,-0.70428 2.069397,-0.82959 3.751688,-0.82318 2.630195,0.01 4.435885,0.85758 6.440802,3.02313 2.167803,2.34148 2.681985,3.84465 2.669541,7.80415 -0.0087,2.75606 -0.09971,3.41037 -0.690052,4.95871 -1.521276,3.99001 -4.025915,6.91055 -10.130651,11.81288 -4.72752,3.79637 -5.941305,4.27514 -8.211515,3.23894 z M 41.797934,144.35357 c -0.885799,-0.4807 -1.263423,-1.14824 -1.263423,-2.2334 0,-2.2114 0.990116,-2.64693 6.006132,-2.64193 4.437084,0.004 4.995749,0.16565 5.723471,1.65183 0.470026,0.95991 0.470026,1.0203 0,1.9802 -0.266646,0.54456 -0.782468,1.13811 -1.14627,1.31902 -1.001085,0.4978 -8.373456,0.4379 -9.31991,-0.0757 z m 63.111896,0.14531 c -1.53648,-0.6189 -1.96786,-2.99339 -0.76294,-4.19958 0.67859,-0.67931 0.77151,-0.69431 4.81912,-0.7779 4.37789,-0.0904 5.34447,0.0861 6.05925,1.10661 0.44861,0.64049 0.50716,2.09493 0.11391,2.82973 -0.57855,1.08104 -1.59166,1.30923 -5.73371,1.29149 -2.15366,-0.009 -4.17669,-0.12188 -4.49563,-0.25035 z M 56.531509,124.18929 c -1.411842,-1.02647 -1.974081,-1.93512 -1.974081,-3.1904 0,-1.42474 1.000492,-2.42663 2.423241,-2.42663 0.834094,0 1.247855,0.2025 2.19205,1.07283 1.341087,1.23617 1.739134,2.15814 1.430894,3.31431 -0.281154,1.05457 -0.995349,1.68523 -2.110765,1.86386 -0.707426,0.11329 -1.11451,-0.0183 -1.961339,-0.63397 z m 40.217775,0.48121 c -0.709755,-0.28769 -1.154025,-0.84677 -1.425739,-1.79418 -0.302358,-1.05426 0.176329,-2.09187 1.527894,-3.31188 0.870088,-0.78539 1.31208,-0.99218 2.120671,-0.99218 2.23213,0 3.20227,2.49182 1.72446,4.42932 -1.226368,1.60785 -2.631878,2.20211 -3.947286,1.66892 z m -20.02635,-8.36276 c -0.396524,-0.21519 -0.843008,-0.61931 -0.992188,-0.89805 -0.154091,-0.28793 -0.271235,-2.40858 -0.271235,-4.91018 v -4.40338 l 0.773397,-0.77339 c 1.067414,-1.06742 2.412876,-1.06742 3.480289,0 l 0.773397,0.77339 v 4.40338 c 0,2.51412 -0.116883,4.62177 -0.272426,4.9124 -0.314312,0.5873 -1.59756,1.31317 -2.294122,1.29767 -0.261888,-0.006 -0.800588,-0.18665 -1.197112,-0.40184 z"
       id="path12" /></g></svg>
