<?xml version="1.0" encoding="UTF-8" standalone="no"?>
<!-- Created with Inkscape (http://www.inkscape.org/) -->

<svg
   width="86.160141mm"
   height="50.577461mm"
   viewBox="0 0 86.160141 50.577461"
   version="1.1"
   id="svg1"
   xml:space="preserve"
   xmlns:inkscape="http://www.inkscape.org/namespaces/inkscape"
   xmlns:sodipodi="http://sodipodi.sourceforge.net/DTD/sodipodi-0.dtd"
   xmlns="http://www.w3.org/2000/svg"
   xmlns:svg="http://www.w3.org/2000/svg"><sodipodi:namedview
     id="namedview1"
     pagecolor="#ffffff"
     bordercolor="#000000"
     borderopacity="0.25"
     inkscape:showpageshadow="2"
     inkscape:pageopacity="0.0"
     inkscape:pagecheckerboard="0"
     inkscape:deskcolor="#d1d1d1"
     inkscape:document-units="mm" /><defs
     id="defs1" /><g
     inkscape:label="Layer 1"
     inkscape:groupmode="layer"
     id="layer1"
     transform="translate(-57.733613,-125.30417)"><path
       style="fill:#ffffff"
       d="m 97.108458,175.62434 c -17.064128,-2.13917 -28.633855,-15.21133 -29.08658,-32.86375 -0.199329,-7.77215 0.03665,-8.00181 6.348504,-6.17856 9.443113,2.72775 16.432899,3.71022 26.396288,3.71022 9.96338,0 16.95317,-0.98247 26.39628,-3.71022 6.31186,-1.82325 6.54783,-1.59359 6.3485,6.17856 -0.52141,20.33063 -17.08657,35.28526 -36.402992,32.86375 z m 7.494662,-5.15254 c 2.84544,-0.42828 6.28191,-1.39737 6.08501,-1.71597 -0.77361,-1.25172 -6.41555,-2.90192 -9.92146,-2.90192 -3.505918,0 -9.147861,1.6502 -9.921462,2.90192 -0.719385,1.16399 9.202992,2.40157 13.757912,1.71597 z m -17.534009,-5.1563 c 7.90815,-6.0101 19.494189,-6.00436 27.413079,0.0136 1.5905,1.20869 1.39323,1.27352 4.75317,-1.5621 3.50853,-2.96104 9.12005,-11.85623 7.139,-11.31652 -13.86674,3.77784 -34.213827,3.94584 -49.387651,0.40776 -2.67945,-0.62476 -2.537942,-0.74179 -1.649475,1.36412 1.557345,3.69134 4.678449,7.73848 8.045149,10.43218 2.546116,2.03714 2.003856,1.93992 3.686728,0.66096 z m 25.206929,-15.48237 c 5.63088,-0.65394 15.37516,-2.58224 15.95083,-3.15651 0.43437,-0.43331 0.3991,-5.25877 -0.0372,-5.09134 -0.22659,0.087 -1.87578,0.51744 -3.66488,0.95665 -15.5072,3.8069 -32.121666,3.7991 -47.570614,-0.0224 -1.819011,-0.44995 -3.468205,-0.8798 -3.664877,-0.95523 -0.3874,-0.14858 -0.371027,4.72503 0.01718,5.11228 0.892125,0.88995 14.617924,3.22762 21.507076,3.66291 3.346563,0.21146 13.922035,-0.0952 17.462495,-0.5064 z m 27.27561,-10.20109 c -0.43486,-0.5168 -0.68498,-1.1337 -0.68498,-1.68941 0,-3.72994 -3.25612,-7.05966 -7.31306,-7.47837 -3.26236,-0.33671 -3.8708,-4.20919 -0.7831,-4.98416 5.57268,-1.39865 13.12324,5.79845 13.12324,12.50891 0,2.22522 -2.9219,3.33084 -4.3421,1.64303 z m -80.618771,-1.96398 c -2.383351,-1.29533 -1.009975,-7.10504 2.31994,-9.81391 2.668141,-2.17052 6.731267,-3.03495 8.124464,-1.72848 1.626707,1.52543 0.703516,4.26625 -1.437006,4.26625 -1.218008,0 -2.783981,0.68537 -3.731951,1.63334 -0.944891,0.94489 -1.277852,1.74596 -1.663272,4.00167 -0.283104,1.6569 -2.080561,2.47354 -3.612175,1.64113 z"
       id="path1" /></g></svg>
