<?xml version="1.0" encoding="UTF-8" standalone="no"?>
<!-- Created with Inkscape (http://www.inkscape.org/) -->

<svg
   width="20.17687mm"
   height="21.7661mm"
   viewBox="0 0 20.17687 21.7661"
   version="1.1"
   id="svg1"
   xml:space="preserve"
   sodipodi:docname="Wicky.svg"
   inkscape:version="1.3.2 (091e20e, 2023-11-25, custom)"
   xmlns:inkscape="http://www.inkscape.org/namespaces/inkscape"
   xmlns:sodipodi="http://sodipodi.sourceforge.net/DTD/sodipodi-0.dtd"
   xmlns="http://www.w3.org/2000/svg"
   xmlns:svg="http://www.w3.org/2000/svg"><sodipodi:namedview
     id="namedview1"
     pagecolor="#ffffff"
     bordercolor="#000000"
     borderopacity="0.25"
     inkscape:showpageshadow="2"
     inkscape:pageopacity="0.0"
     inkscape:pagecheckerboard="0"
     inkscape:deskcolor="#d1d1d1"
     inkscape:document-units="mm"
     inkscape:zoom="2.485951"
     inkscape:cx="141.99797"
     inkscape:cy="144.21041"
     inkscape:window-width="1920"
     inkscape:window-height="991"
     inkscape:window-x="-9"
     inkscape:window-y="-9"
     inkscape:window-maximized="1"
     inkscape:current-layer="layer1" /><defs
     id="defs1" /><g
     inkscape:label="Layer 1"
     inkscape:groupmode="layer"
     id="layer1"
     transform="translate(-99.22595,-145.10165)"><path
       id="path3"
       style="fill:#ffffff;stroke:#000000;stroke-width:0.121741;stroke-linecap:square;stroke-dasharray:none;stroke-opacity:1;paint-order:markers stroke fill"
       d="m 114.95098,145.16284 c -0.37671,0.001 -0.74229,0.0123 -1.07642,0.0346 -1.58193,0.10552 -2.13448,0.22689 -3.21014,0.70435 -1.10957,0.49251 -1.4564,0.53317 -2.12648,0.24908 -1.52234,-0.64542 -1.75271,-0.72315 -2.48822,-0.83975 -1.09313,-0.17329 -3.93162,-0.16991 -5.06068,0.006 -1.52868,0.23844 -1.70222,0.39227 -1.70222,1.50688 0,0.58155 0.03078,0.78477 0.153995,1.0263 0.0845,0.16564 0.256027,0.83148 0.381374,1.48001 0.327801,1.69601 0.553361,2.10045 1.418521,2.53886 0.33549,0.17001 0.98337,0.36442 1.47071,0.44132 0.12417,0.0196 0.71653,0.0253 1.31671,0.0129 1.22223,-0.0253 1.88005,-0.16997 2.65773,-0.58446 0.79744,-0.42504 1.39533,-1.33738 1.86241,-2.84117 0.135,-0.43462 0.27963,-0.8342 0.32091,-0.8878 0.0495,-0.0643 0.21624,-0.0896 0.4899,-0.0749 0.36891,0.0198 0.42073,0.043 0.46922,0.21033 0.76001,2.62304 1.38133,3.45459 2.95589,3.95635 1.44668,0.461 3.82266,0.28178 4.8364,-0.36484 0.66717,-0.42555 0.8443,-0.79795 1.19321,-2.50372 0.14075,-0.68809 0.31632,-1.33934 0.39119,-1.45056 0.10748,-0.15968 0.13615,-0.35426 0.13694,-0.93018 0.002,-1.04717 -0.16648,-1.24193 -1.25781,-1.4552 -0.77351,-0.15126 -2.00298,-0.23822 -3.13314,-0.23461 z m 0.31213,1.11724 c 0.38025,-0.001 0.71418,0.0156 0.95705,0.0532 1.20834,0.18727 1.51531,0.54287 1.56734,1.81694 0.0351,0.86035 -0.067,1.41053 -0.37775,2.03243 -0.26058,0.52147 -0.6417,0.81681 -1.29553,1.00356 -0.49938,0.14264 -1.60094,0.20087 -2.25929,0.11937 -0.65007,-0.0805 -1.51019,-0.48971 -1.85519,-0.88263 -0.28423,-0.32373 -0.77818,-1.33692 -0.89142,-1.82831 -0.0426,-0.18494 -0.078,-0.59638 -0.0791,-0.91416 -0.002,-0.53576 0.0123,-0.58903 0.19637,-0.73381 0.10917,-0.0859 0.37181,-0.2086 0.58343,-0.27233 0.75672,-0.2279 2.3133,-0.39064 3.45405,-0.39429 z m -11.77293,0.0165 c 0.29764,8.8e-4 0.61002,0.0109 0.92398,0.0315 1.34706,0.0887 2.20482,0.24965 2.71663,0.50901 0.49323,0.24994 0.54598,0.39045 0.4408,1.18081 -0.27045,2.03228 -1.19941,3.07061 -2.93936,3.28507 -0.81352,0.10027 -1.1385,0.0868 -1.95854,-0.0806 -0.87202,-0.17801 -1.37206,-0.61887 -1.66501,-1.46761 -0.14798,-0.42872 -0.1788,-0.66814 -0.1788,-1.38389 0,-1.12325 0.17244,-1.56061 0.72967,-1.85053 0.27676,-0.144 1.03773,-0.2264 1.93063,-0.22377 z m 7.16959,7.80315 c -0.0851,-0.004 -0.17363,-0.001 -0.2682,0.005 -0.31664,0.0202 -0.59819,0.0949 -0.85162,0.22634 l -0.3788,0.19637 -0.40255,-0.19947 c -0.32758,-0.16205 -0.50848,-0.19947 -0.96739,-0.19947 -0.7525,0 -1.04335,0.17574 -2.27014,1.36994 -1.10344,1.07412 -1.53132,1.32201 -2.5089,1.45469 -0.88153,0.11965 -0.90728,0.12797 -0.99683,0.32453 -0.26162,0.57418 1.20373,1.4547 2.85047,1.71256 0.55835,0.0874 1.99893,0.0546 2.28565,-0.0522 0.0889,-0.0331 -0.0124,0.1182 -0.24805,0.37001 -1.25385,1.33988 -1.31489,3.42948 -0.14676,5.04207 0.39365,0.54341 1.94778,2.23197 2.16318,2.35024 0.10347,0.0568 0.21555,0.10487 0.24908,0.10645 0.19078,0.009 2.00643,-1.94407 2.47013,-2.65771 1.03111,-1.58688 0.9305,-3.49732 -0.25425,-4.82658 l -0.37362,-0.4191 0.32815,0.0584 c 0.18028,0.0323 0.76777,0.0545 1.30586,0.0491 0.81955,-0.008 1.086,-0.0424 1.64125,-0.20826 1.06841,-0.31916 1.73482,-0.71715 1.97352,-1.17874 0.17671,-0.34172 -0.0172,-0.59789 -0.45217,-0.59789 -0.38496,0 -1.35362,-0.24055 -1.72806,-0.42943 -0.23801,-0.12006 -0.75037,-0.55478 -1.36684,-1.15962 -1.03635,-1.01679 -1.45728,-1.31146 -2.05311,-1.33687 z"
       inkscape:export-filename="LukeTools.png"
       inkscape:export-xdpi="96"
       inkscape:export-ydpi="96" /></g></svg>
