<?xml version="1.0" encoding="UTF-8" standalone="no"?>
<!-- Created with Inkscape (http://www.inkscape.org/) -->

<svg
   width="86.21627mm"
   height="85.996048mm"
   viewBox="0 0 86.21627 85.996048"
   version="1.1"
   id="svg1"
   xml:space="preserve"
   xmlns:inkscape="http://www.inkscape.org/namespaces/inkscape"
   xmlns:sodipodi="http://sodipodi.sourceforge.net/DTD/sodipodi-0.dtd"
   xmlns="http://www.w3.org/2000/svg"
   xmlns:svg="http://www.w3.org/2000/svg"><sodipodi:namedview
     id="namedview1"
     pagecolor="#ffffff"
     bordercolor="#000000"
     borderopacity="0.25"
     inkscape:showpageshadow="2"
     inkscape:pageopacity="0.0"
     inkscape:pagecheckerboard="0"
     inkscape:deskcolor="#d1d1d1"
     inkscape:document-units="mm" /><defs
     id="defs1" /><g
     inkscape:label="Layer 1"
     inkscape:groupmode="layer"
     id="layer1"
     transform="translate(-61.891935,-104.74124)"><path
       style="fill:#ffffff"
       d="m 89.376501,190.35917 c -3.618252,-0.98369 -5.555188,-3.60478 -5.796799,-7.84433 -0.143246,-2.51354 -0.143246,-2.51354 -2.656788,-2.65732 -5.254054,-0.30053 -8.202084,-3.39065 -8.202084,-8.5974 0,-1.97445 0,-1.97445 -1.442185,-1.97445 -4.331689,0 -7.49281,-1.86544 -8.769202,-5.17489 -0.939064,-2.43482 -0.75485,-52.95555 0.199687,-54.76385 0.904449,-1.71342 2.679812,-3.34327 4.338676,-3.98306 2.498837,-0.96375 52.932004,-0.74895 54.933574,0.23397 2.89954,1.42389 4.22721,3.61675 4.43892,7.33158 0.14324,2.51354 0.14324,2.51354 2.65679,2.65732 5.25405,0.30053 8.20208,3.39065 8.20208,8.5974 0,1.97445 0,1.97445 1.44219,1.97445 4.33168,0 7.49281,1.86544 8.7692,5.17489 0.93971,2.4365 0.75469,52.96017 -0.20051,54.75323 -0.90591,1.70054 -2.38898,3.12213 -4.05775,3.88955 -1.58415,0.7285 -51.284852,1.08187 -53.855799,0.38291 z m 51.905399,-5.34836 c 1.60825,-0.83166 1.55352,0.10285 1.55352,-26.52507 0,-28.80668 0.28097,-26.7709 -3.69486,-26.7709 -1.86139,0 -1.86139,0 -1.86139,20.75987 0,30.29586 2.89404,27.39379 -27.31823,27.39409 -21.100525,2e-4 -21.100525,2e-4 -21.100525,1.81661 0,1.94752 0.513592,3.00514 1.69019,3.48053 1.136279,0.45911 49.831435,0.3102 50.731295,-0.15513 z m -10.19398,-11.33306 c 0.89958,-0.89958 0.89958,-0.89958 0.89958,-25.95562 0,-28.80911 0.26714,-26.85521 -3.67165,-26.85521 -1.87248,0 -1.87248,0 -1.94468,21.36511 -0.0803,23.74795 0.0708,21.76447 -1.84317,24.20014 -2.15077,2.73699 -1.93203,2.71293 -25.409132,2.79495 -21.106371,0.0737 -21.106371,0.0737 -21.106371,1.81239 0,3.78249 -1.866383,3.53783 26.987503,3.53783 25.18834,0 25.18834,0 26.08792,-0.89959 z m -10.72173,-10.72173 c 1.22039,-1.22039 1.22172,-50.57479 10e-4,-51.94065 -0.90539,-1.01337 -49.743679,-1.56745 -51.641816,-0.58589 -1.617298,0.83634 -1.561194,-0.11781 -1.561194,26.5513 0,25.30835 0.0035,25.38813 1.138066,26.27974 1.2176,0.95682 51.093924,0.66512 52.063544,-0.3045 z"
       id="path1" /></g></svg>
