<?xml version="1.0" encoding="UTF-8" standalone="no"?>
<!-- Created with Inkscape (http://www.inkscape.org/) -->

<svg
   width="76.414444mm"
   height="85.855469mm"
   viewBox="0 0 76.414444 85.855469"
   version="1.1"
   id="svg1"
   xml:space="preserve"
   xmlns:inkscape="http://www.inkscape.org/namespaces/inkscape"
   xmlns:sodipodi="http://sodipodi.sourceforge.net/DTD/sodipodi-0.dtd"
   xmlns="http://www.w3.org/2000/svg"
   xmlns:svg="http://www.w3.org/2000/svg"><sodipodi:namedview
     id="namedview1"
     pagecolor="#ffffff"
     bordercolor="#000000"
     borderopacity="0.25"
     inkscape:showpageshadow="2"
     inkscape:pageopacity="0.0"
     inkscape:pagecheckerboard="0"
     inkscape:deskcolor="#d1d1d1"
     inkscape:document-units="mm" /><defs
     id="defs1" /><g
     inkscape:label="Layer 1"
     inkscape:groupmode="layer"
     id="layer1"
     transform="translate(-63.98414,-107.27043)"><path
       style="fill:#ffffff"
       d="m 100.18524,192.94227 c -2.814969,-0.86957 -5.123577,-3.8953 -5.123577,-6.71513 0,-4.09307 3.138316,-7.30006 7.143747,-7.30006 1.92032,0 3.66332,0.72771 5.03969,2.10407 3.53942,3.53942 2.50209,9.18612 -2.11731,11.52556 -1.07137,0.54258 -3.75623,0.75202 -4.94255,0.38556 z M 86.991871,178.93923 c -7.860316,-4.52908 -7.276041,-4.12543 -7.276041,-5.02662 0,-0.54931 0.19847,-0.9242 0.643716,-1.21594 0.755774,-0.4952 0.08297,-0.79357 6.764617,2.99985 5.702096,3.2373 6.614583,3.86731 6.614583,4.56694 0,0.57725 -0.880524,1.57449 -1.389062,1.5732 -0.181901,-4.7e-4 -2.592917,-1.30431 -5.357813,-2.89743 z m 24.209379,2.3691 c -0.70047,-0.70047 -0.66906,-1.43949 0.0863,-2.03131 0.33853,-0.26523 3.19401,-1.95576 6.34551,-3.75675 5.69052,-3.25196 5.73469,-3.27144 6.41149,-2.82798 0.53708,0.3519 0.66419,0.62531 0.59981,1.29014 -0.0777,0.80206 -0.38145,1.01619 -6.16711,4.34719 -3.34698,1.92697 -6.23425,3.50454 -6.41615,3.50573 -0.1819,0.001 -0.56885,-0.23598 -0.85989,-0.52702 z m -15.438686,-4.03948 c -0.252215,-0.18442 -1.393189,-1.9406 -2.535497,-3.9026 l -2.076925,-3.56729 -4.486929,-0.13229 c -4.860876,-0.14332 -5.359883,-0.28921 -5.359883,-1.56698 0,-1.23241 0.35424,-1.34344 4.28625,-1.34344 2.008187,0 3.65125,-0.0661 3.65125,-0.147 0,-0.12087 -2.822248,-5.06188 -3.067839,-5.37097 -0.04108,-0.0517 -1.127922,0.51384 -2.415197,1.25677 -1.287275,0.74293 -2.526282,1.35078 -2.75335,1.35078 -0.560777,0 -1.288614,-0.8479 -1.288614,-1.50118 0,-0.67993 0.457318,-1.06943 2.958633,-2.51988 l 2.032591,-1.17865 -4.612279,-7.97021 c -2.536753,-4.38362 -4.612279,-8.2058 -4.612279,-8.49375 0,-0.70841 0.694876,-1.35508 1.456091,-1.35508 0.794844,0 0.755557,-0.0591 5.936228,8.92728 2.369222,4.10964 4.383849,7.4288 4.476949,7.37592 0.686159,-0.38977 23.108716,-13.31878 26.180486,-15.09585 1.20929,-0.6996 2.14403,-1.40628 2.07719,-1.5704 -0.0669,-0.16412 -0.95545,-1.72715 -1.97468,-3.4734 l -1.85315,-3.175 -14.883977,-0.0684 c -10.456659,-0.048 -14.989624,-0.15605 -15.239141,-0.36313 -0.56702,-0.47058 -0.433384,-1.73267 0.232876,-2.19933 0.513839,-0.35991 2.316636,-0.41188 14.2875,-0.41188 7.534702,0 13.699462,-0.0648 13.699462,-0.14388 0,-0.0791 -0.78466,-1.49929 -1.74368,-3.15592 -1.86536,-3.22224 -1.97624,-3.8716 -0.75602,-4.42757 0.99994,-0.4556 1.54831,0.12305 3.81264,4.0232 l 2.07374,3.57188 4.48477,0.13229 c 4.85855,0.14331 5.35772,0.28931 5.35772,1.56698 0,1.2324 -0.35424,1.34343 -4.28625,1.34343 -2.00819,0 -3.65125,0.0661 -3.65125,0.147 0,0.12088 2.82224,5.06188 3.06783,5.37097 0.0411,0.0517 1.12793,-0.51384 2.4152,-1.25677 1.28728,-0.74293 2.52628,-1.35078 2.75335,-1.35078 0.56078,0 1.28862,0.8479 1.28862,1.50118 0,0.69788 -0.50731,1.13127 -2.95897,2.52784 l -2.03293,1.15804 4.61261,7.97475 c 2.53694,4.38611 4.61262,8.21114 4.61262,8.50007 0,0.71001 -0.69416,1.35687 -1.45609,1.35687 -0.79491,0 -0.7551,0.0599 -5.94112,-8.93573 l -4.31256,-7.48052 -0.95814,0.56626 c -0.52697,0.31145 -4.17282,2.41771 -8.10188,4.68059 -9.390774,5.40845 -14.586707,8.40395 -17.279966,9.96206 -1.209293,0.6996 -2.144026,1.40628 -2.077184,1.5704 0.06684,0.16412 0.955447,1.72715 1.974677,3.4734 l 1.853146,3.175 14.883977,0.0684 c 10.45666,0.048 14.98963,0.15604 15.23914,0.36312 0.56702,0.47059 0.43339,1.73267 -0.23287,2.19934 -0.51384,0.35991 -2.31664,0.41188 -14.2875,0.41188 -7.53471,0 -13.699464,0.0647 -13.699464,0.14387 0,0.0791 0.773906,1.48073 1.719792,3.11466 0.945885,1.63393 1.719792,3.117 1.719792,3.29571 0,0.43101 -0.966964,1.38326 -1.404639,1.38326 -0.190468,0 -0.552663,-0.1509 -0.804877,-0.33532 z m -27.556109,-2.66989 c -1.588975,-0.74323 -3.369829,-2.60448 -3.854496,-4.02851 -1.264627,-3.71569 0.849842,-8.00413 4.533053,-9.19368 1.722496,-0.5563 2.741222,-0.5563 4.463718,0 4.929958,1.5922 6.542483,8.09028 2.902338,11.69571 -2.15303,2.1325 -5.422606,2.75291 -8.044613,1.52648 z m 62.177085,-0.008 c -3.68462,-1.74494 -5.20492,-5.71343 -3.58817,-9.36632 1.0714,-2.42074 3.90259,-4.28951 6.49858,-4.28951 3.75886,0 7.06909,3.32867 7.10416,7.14375 0.0181,1.97208 -0.48398,3.30089 -1.78135,4.71418 -2.19376,2.38979 -5.47181,3.10563 -8.23322,1.7979 z M 70.077437,157.60923 c -0.356944,-0.35695 -0.415774,-1.40252 -0.415774,-7.38944 0,-7.55622 0.04642,-7.80521 1.455208,-7.80521 1.408787,0 1.455209,0.24899 1.455209,7.80521 0,7.55622 -0.04642,7.80521 -1.455209,7.80521 -0.343013,0 -0.810759,-0.1871 -1.039434,-0.41577 z m 62.177083,0 c -0.35694,-0.35695 -0.41577,-1.40252 -0.41577,-7.38944 0,-7.55622 0.0464,-7.80521 1.4552,-7.80521 1.40879,0 1.45521,0.24899 1.45521,7.80521 0,7.55622 -0.0464,7.80521 -1.45521,7.80521 -0.34301,0 -0.81075,-0.1871 -1.03943,-0.41577 z M 68.791511,139.04915 c -3.601669,-1.20063 -5.687434,-5.51353 -4.439552,-9.18001 0.484667,-1.42404 2.265521,-3.28529 3.854496,-4.02852 4.08213,-1.90938 8.997732,0.61302 9.928088,5.09452 0.71505,3.44438 -1.404771,7.03571 -4.800171,8.13231 -1.662587,0.53695 -2.892052,0.532 -4.542861,-0.0183 z m 62.177079,0 c -2.82555,-0.94191 -4.80007,-3.75703 -4.78422,-6.82102 0.0337,-6.50686 7.97774,-9.43461 12.43239,-4.5819 1.29737,1.4133 1.79948,2.7421 1.78135,4.71419 -0.0278,3.02486 -2.03507,5.78607 -4.8723,6.70239 -1.67663,0.54149 -2.90288,0.53782 -4.55722,-0.0137 z M 80.289,127.70479 c -0.451622,-0.31633 -0.582578,-0.6314 -0.521893,-1.25563 0.07162,-0.73669 0.326525,-0.97394 2.197681,-2.04546 1.164167,-0.66666 3.936488,-2.26199 6.160714,-3.54517 3.610096,-2.0827 4.11326,-2.30151 4.689055,-2.03916 0.885222,0.40333 1.143199,1.53499 0.495893,2.17532 -0.457969,0.45302 -11.955027,7.13239 -12.276846,7.13239 -0.07793,0 -0.413006,-0.19003 -0.744604,-0.42229 z m 19.284754,-6.64942 c -0.669498,-0.23638 -1.705061,-0.94397 -2.403159,-1.64207 -3.351685,-3.35169 -2.57326,-8.98057 1.551051,-11.21584 3.648814,-1.97756 7.877084,-0.6984 9.762004,2.95326 1.50033,2.9066 1.0394,5.97976 -1.23855,8.25771 -1.98503,1.98503 -4.92565,2.61634 -7.671346,1.64694 z"
       id="path1" /></g></svg>
