<?xml version="1.0" encoding="UTF-8" standalone="no"?>
<!-- Created with Inkscape (http://www.inkscape.org/) -->

<svg
   width="83.566208mm"
   height="85.888359mm"
   viewBox="0 0 83.566208 85.888359"
   version="1.1"
   id="svg1"
   xml:space="preserve"
   xmlns:inkscape="http://www.inkscape.org/namespaces/inkscape"
   xmlns:sodipodi="http://sodipodi.sourceforge.net/DTD/sodipodi-0.dtd"
   xmlns="http://www.w3.org/2000/svg"
   xmlns:svg="http://www.w3.org/2000/svg"><sodipodi:namedview
     id="namedview1"
     pagecolor="#ffffff"
     bordercolor="#000000"
     borderopacity="0.25"
     inkscape:showpageshadow="2"
     inkscape:pageopacity="0.0"
     inkscape:pagecheckerboard="0"
     inkscape:deskcolor="#d1d1d1"
     inkscape:document-units="mm" /><defs
     id="defs1" /><g
     inkscape:label="Layer 1"
     inkscape:groupmode="layer"
     id="layer1"
     transform="translate(-68.513155,-103.65719)"><path
       style="fill:#ffffff"
       d="m 89.637704,189.49219 c -5.604561,-0.97189 -9.683577,-2.98913 -13.591955,-6.72177 -4.680698,-4.47024 -7.178682,-9.59269 -7.492722,-15.36484 -0.20031,-3.68175 0.342088,-6.43902 1.902033,-9.66894 1.505109,-3.11637 2.152587,-3.91622 10.002406,-12.35632 l 6.592683,-7.08842 1.359923,1.27257 c 0.747958,0.69991 8.176252,7.56313 16.507318,15.25161 8.33107,7.68847 15.1474,14.0384 15.1474,14.11095 0,0.16026 -8.36866,9.20049 -12.03854,13.00461 -4.90123,5.08052 -9.466565,7.37575 -15.075201,7.57911 -1.458538,0.0529 -2.949543,0.0445 -3.313345,-0.0186 z m 4.327434,-8.2064 c 2.634236,-0.6796 4.993235,-2.07776 6.879732,-4.07754 2.60891,-2.76559 3.87408,-5.91971 3.87408,-9.65825 0,-8.37572 -7.546742,-15.04493 -15.780059,-13.94515 -5.408592,0.72247 -9.868387,4.30665 -11.684069,9.39008 -0.934754,2.61706 -0.973147,6.37456 -0.09166,8.97108 2.377135,7.00217 9.808274,11.1241 16.801979,9.31978 z m -6.178624,-1.87866 c -1.407778,-0.29214 -3.89794,-1.64259 -5.198408,-2.81919 -7.220381,-6.53262 -4.35236,-18.21552 5.074474,-20.6709 5.274147,-1.37374 11.037966,1.12799 13.55946,5.88536 1.09646,2.06872 1.41618,3.43339 1.40664,6.00406 -0.0174,4.68858 -2.45208,8.48159 -6.834466,10.64749 -1.88243,0.93034 -2.173336,0.9951 -4.677205,1.04115 -1.468461,0.027 -2.967184,-0.0126 -3.330495,-0.088 z m 0.49035,-3.19203 c 0.134902,-0.25466 0.614988,-1.5133 1.066858,-2.79698 0.630146,-1.79013 0.757944,-2.45287 0.548472,-2.84427 -0.150209,-0.28067 -0.441453,-0.51031 -0.647209,-0.51031 -0.205755,0 -0.691948,-0.41672 -1.080427,-0.92604 -0.38848,-0.50932 -0.875409,-0.92604 -1.082064,-0.92604 -0.645455,0 -4.697897,1.90859 -5.170587,2.43521 -0.247365,0.27558 -0.406138,0.64407 -0.352828,0.81886 0.05331,0.17479 0.170438,0.65226 0.260284,1.06105 0.222767,1.01355 2.161502,3.06671 3.452716,3.65651 1.370884,0.62618 2.682632,0.64015 3.004785,0.032 z m -2.65464,-2.1243 c -0.780879,-0.51488 -1.805353,-1.71687 -1.805353,-2.11818 0,-0.14103 0.611918,-0.51966 1.359819,-0.84139 l 1.359819,-0.58498 0.622567,0.62256 0.622566,0.62257 -0.496799,1.30877 c -0.273239,0.71982 -0.599766,1.34225 -0.725614,1.38318 -0.125849,0.0409 -0.547501,-0.1357 -0.937005,-0.39253 z m 12.741088,-1.64299 c 0.268805,-0.14386 0.694251,-0.7997 0.945436,-1.45741 0.825072,-2.16042 0.08346,-5.40164 -1.500508,-6.55801 l -0.693006,-0.50592 -2.055024,1.12786 c -1.130264,0.62032 -2.352488,1.38373 -2.716053,1.69646 -0.569468,0.48983 -0.617981,0.64902 -0.350246,1.14929 0.170931,0.31939 0.282715,1.05639 0.248411,1.63779 -0.03431,0.58139 0.06438,1.18383 0.219295,1.33875 0.237426,0.23743 4.533654,1.73205 5.197127,1.80803 0.118708,0.0136 0.435763,-0.093 0.704568,-0.23684 z m -2.838629,-2.5595 c -1.018216,-0.36042 -1.124479,-0.48132 -1.124479,-1.27941 0,-0.77388 0.150112,-0.96527 1.23086,-1.56931 0.676974,-0.37837 1.256158,-0.65644 1.287078,-0.61793 0.409572,0.51004 0.657062,1.47661 0.657062,2.56615 0,1.52174 -0.131878,1.57965 -2.050521,0.9005 z m -3.305957,-6.28091 c 1.430243,-2.92755 1.40434,-3.49546 -0.199772,-4.37991 -2.215882,-1.22176 -5.966219,-0.76761 -6.980451,0.8453 -0.306817,0.48793 0.06576,1.81326 1.287696,4.58057 l 0.590229,1.33669 2.075862,-0.0138 2.075861,-0.0138 z m -4.642273,-1.26378 c -0.318325,-0.75345 -0.535301,-1.41339 -0.482169,-1.46652 0.243639,-0.24364 2.077371,-0.38561 2.92551,-0.2265 1.096171,0.20565 1.162241,0.53335 0.406283,2.01515 -0.458724,0.89917 -0.657683,1.04779 -1.402697,1.04779 -0.794844,0 -0.917026,-0.11568 -1.446927,-1.36992 z m 18.333127,-9.37681 C 86.5837,135.13566 88.35199,136.88667 88.975263,136.19796 c 0.273681,-0.30241 0.641754,-0.51567 0.817939,-0.4739 0.396619,0.094 32.917418,30.07528 32.917418,30.3469 0,0.1079 -0.26789,0.44429 -0.59531,0.74753 l -0.59531,0.55137 z m 1.78594,-3.69951 c -9.058675,-8.36619 -16.468623,-15.29511 -16.466555,-15.39761 0.0021,-0.1025 1.043866,-1.2696 2.315105,-2.59357 2.682107,-2.79335 4.436166,-3.89105 7.2041,-4.50836 2.94482,-0.65677 5.65411,-0.10283 9.58195,1.95912 0.10296,0.0541 0.11453,-2.91673 0.0257,-6.60174 l -0.1615,-6.70001 5.47391,-5.886 c 3.01065,-3.2373 5.61846,-5.88418 5.79513,-5.88195 0.17666,0.002 0.45578,0.0915 0.62025,0.19844 0.16448,0.10691 2.18604,4.75098 4.49237,10.32015 l 4.19332,10.12577 8.07534,2.62196 c 4.44144,1.44208 9.08738,2.94313 10.32431,3.33567 2.49815,0.79278 2.91041,1.03237 2.91041,1.69141 0,0.24827 -2.38315,3.02465 -5.2959,6.16973 -5.01771,5.41795 -5.35474,5.72617 -6.41614,5.86762 -0.61614,0.0821 -3.59531,0.31192 -6.62038,0.51067 -3.02507,0.19876 -5.57426,0.43551 -5.66487,0.52612 -0.0906,0.0906 0.0262,0.37569 0.25948,0.63351 0.78863,0.87142 2.01787,3.8898 2.29054,5.62438 0.31158,1.98206 0.0234,4.34872 -0.7469,6.13353 -0.62392,1.44566 -2.49792,3.91817 -4.31092,5.68772 l -1.40845,1.37469 z"
       id="path1" /></g></svg>
