<?xml version="1.0" encoding="UTF-8" standalone="no"?>
<!-- Created with Inkscape (http://www.inkscape.org/) -->

<svg
   width="79.36467mm"
   height="79.108498mm"
   viewBox="0 0 79.36467 79.108498"
   version="1.1"
   id="svg1"
   xml:space="preserve"
   xmlns:inkscape="http://www.inkscape.org/namespaces/inkscape"
   xmlns:sodipodi="http://sodipodi.sourceforge.net/DTD/sodipodi-0.dtd"
   xmlns="http://www.w3.org/2000/svg"
   xmlns:svg="http://www.w3.org/2000/svg"><sodipodi:namedview
     id="namedview1"
     pagecolor="#ffffff"
     bordercolor="#000000"
     borderopacity="0.25"
     inkscape:showpageshadow="2"
     inkscape:pageopacity="0.0"
     inkscape:pagecheckerboard="0"
     inkscape:deskcolor="#d1d1d1"
     inkscape:document-units="mm" /><defs
     id="defs1" /><g
     inkscape:label="Layer 1"
     inkscape:groupmode="layer"
     id="layer1"
     transform="translate(-64.110582,-110.0043)"><path
       style="fill:#ffffff"
       d="m 68.465493,188.48976 c -1.688396,-0.78624 -2.950052,-2.0479 -3.736287,-3.73629 l -0.618625,-1.32846 V 159.7448 136.06459 l 0.620727,-1.333 c 0.758712,-1.62932 2.679308,-3.37611 4.330705,-3.9388 0.76892,-0.26199 2.138922,-0.41674 3.68949,-0.41674 h 2.466409 l 0.0026,-2.71198 c 0.0022,-2.30015 0.09772,-2.91287 0.629057,-4.0349 1.210047,-2.55524 3.616715,-4.07811 6.805397,-4.30626 l 1.757023,-0.12572 0.12736,-1.75276 c 0.170104,-2.34102 1.048421,-4.29799 2.504083,-5.57931 2.22081,-1.95484 0.867901,-1.86229 27.181518,-1.8594 l 23.56693,0.003 1.32846,0.61863 c 1.6884,0.78623 2.95005,2.04789 3.73629,3.73628 l 0.61862,1.32846 v 23.68021 23.68021 l -0.61735,1.32292 c -0.65076,1.3945 -2.19526,2.96968 -3.66115,3.73387 -0.51069,0.26623 -1.71553,0.50635 -2.89052,0.57606 l -2.01483,0.11955 -0.15189,1.81175 c -0.25903,3.08974 -1.65876,5.41287 -4.02055,6.67289 -0.82771,0.44159 -1.69253,0.59509 -3.96874,0.70442 l -2.91041,0.13979 -0.15315,2.64583 c -0.18947,3.27336 -0.86645,4.99555 -2.54423,6.47239 -2.22081,1.95484 -0.8679,1.86229 -27.181531,1.8594 l -23.56693,-0.003 z m 38.502417,-3.28219 c 0,-0.111 -5.71594,-5.91348 -12.702093,-12.8944 l -12.702097,-12.69258 -6.755486,6.74283 -6.755487,6.74284 0.07685,5.0765 0.07685,5.07651 0.783811,0.81747 c 0.431097,0.44961 1.145472,0.92265 1.5875,1.0512 0.981997,0.28557 36.390142,0.36305 36.390142,0.0796 z m 10.61035,-0.66725 c 1.10125,-0.74044 1.52581,-1.8832 1.54555,-4.16009 l 0.0149,-1.72186 -6.28588,-6.28178 c -3.45724,-3.45499 -6.40598,-6.28179 -6.55276,-6.28179 -0.14678,0 -1.63272,1.36973 -3.30209,3.04386 l -3.035222,3.04385 6.477092,6.48115 6.4771,6.48114 h 1.88112 c 1.52052,0 2.05347,-0.11588 2.78015,-0.60448 z m 10.82956,-10.90937 c 1.65136,-0.85395 1.57884,0.29187 1.57884,-24.94638 V 125.6918 l -0.60447,-0.89902 c -0.34538,-0.51368 -0.99748,-1.03438 -1.52136,-1.21482 -0.68129,-0.23465 -6.66145,-0.31814 -23.27417,-0.32492 -21.40866,-0.009 -22.404257,0.0122 -23.464222,0.49344 -1.540809,0.69956 -1.935776,1.58931 -1.935776,4.3608 v 2.25543 l 19.248438,0.0728 19.24844,0.0728 1.4458,0.79375 c 0.79953,0.43895 1.83134,1.30161 2.30832,1.92991 1.6927,2.2297 1.66984,1.92403 1.66984,22.32749 v 18.47281 h 2.26209 c 1.50449,0 2.52204,-0.13442 3.03823,-0.40135 z m -9.94306,-37.62261 c -0.2272,-0.34676 -0.79358,-0.86247 -1.25862,-1.14602 -0.82079,-0.50047 -1.5132,-0.51557 -23.678971,-0.51653 -25.203829,-0.001 -23.863794,-0.0906 -24.934552,1.6655 -0.496541,0.81435 -0.516515,1.43933 -0.517466,16.19082 l -9.89e-4,15.34376 6.283854,-6.24694 c 3.45612,-3.43581 6.492081,-6.31836 6.746581,-6.40566 0.254499,-0.0873 0.696207,-0.0724 0.981573,0.0332 0.285365,0.10557 2.997874,2.63186 6.027797,5.61398 3.029923,2.98213 6.30821,6.19181 7.285083,7.13264 l 1.776132,1.71059 4.187428,-4.15799 c 3.46246,-3.4381 4.31952,-4.15798 4.95035,-4.15798 0.64079,0 1.69666,0.93101 6.59592,5.81597 l 5.83299,5.81597 0.068,-18.03042 c 0.0602,-15.97168 0.0208,-18.10242 -0.34511,-18.6609 z m -26.382167,16.7437 c -1.624221,-0.57958 -3.392834,-2.12806 -4.252114,-3.72287 -0.462703,-0.85876 -0.570588,-1.50736 -0.572128,-3.43958 -0.0017,-2.10558 0.0796,-2.51908 0.702103,-3.57187 2.545939,-4.30577 8.060608,-5.29257 11.695691,-2.09284 4.144715,3.64832 3.109625,10.37095 -1.948649,12.65588 -1.403293,0.6339 -4.098478,0.71597 -5.624903,0.17128 z m 4.516345,-4.12652 c 1.536479,-0.93677 2.054005,-3.06173 1.154261,-4.73941 -1.329583,-2.47915 -5.017373,-2.38719 -6.25466,0.15597 -1.581306,3.25026 2.003396,6.47163 5.100399,4.58344 z m 41.060642,15.68293 c 1.95029,-0.97428 1.85121,0.36429 1.85167,-25.01585 4.6e-4,-25.05749 0.0895,-23.73182 -1.66608,-24.80226 -0.8229,-0.50176 -1.50173,-0.51651 -23.81279,-0.51747 -25.208863,-0.001 -24.065425,-0.0735 -24.919364,1.57785 -0.220744,0.42687 -0.401354,1.43329 -0.401354,2.23648 v 1.46034 l 19.909898,0.0742 c 18.49429,0.0689 19.98171,0.10785 20.91994,0.54818 1.54067,0.72307 3.22603,2.42686 3.92092,3.96381 l 0.62529,1.38299 0.0742,19.77761 0.0742,19.7776 1.24872,-4.1e-4 c 0.6868,-2.2e-4 1.66544,-0.20858 2.17476,-0.46302 z"
       id="path2" /></g></svg>
