<?xml version="1.0" encoding="UTF-8" standalone="no"?>
<!-- Created with Inkscape (http://www.inkscape.org/) -->

<svg
   width="69.799561mm"
   height="70.138527mm"
   viewBox="0 0 69.799561 70.138527"
   version="1.1"
   id="svg1"
   xml:space="preserve"
   xmlns:inkscape="http://www.inkscape.org/namespaces/inkscape"
   xmlns:sodipodi="http://sodipodi.sourceforge.net/DTD/sodipodi-0.dtd"
   xmlns="http://www.w3.org/2000/svg"
   xmlns:svg="http://www.w3.org/2000/svg"><sodipodi:namedview
     id="namedview1"
     pagecolor="#ffffff"
     bordercolor="#000000"
     borderopacity="0.25"
     inkscape:showpageshadow="2"
     inkscape:pageopacity="0.0"
     inkscape:pagecheckerboard="0"
     inkscape:deskcolor="#d1d1d1"
     inkscape:document-units="mm" /><defs
     id="defs1" /><g
     inkscape:label="Layer 1"
     inkscape:groupmode="layer"
     id="layer1"
     transform="translate(-66.034105,-114.82514)"><path
       style="fill:#ffffff"
       d="m 99.149015,184.83597 c -14.637002,-1.21109 -25.914814,-9.60489 -31.000903,-23.07322 -1.64369,-4.35261 -2.504602,-11.39035 -1.941874,-15.87433 1.514039,-12.06431 8.380542,-21.83056 19.307802,-27.46155 4.380516,-2.25735 8.506287,-3.25285 14.326761,-3.4569 l 4.131369,-0.14483 1.02801,0.94209 c 0.97746,0.89579 1.028,1.0209 1.028,2.54484 0,1.4562 -0.0788,1.68155 -0.86186,2.46461 l -0.86187,0.86187 -3.50376,0.16491 c -6.469114,0.30449 -10.297694,1.51777 -15.424571,4.88807 -4.029455,2.64887 -7.232571,6.38276 -9.515995,11.09284 -1.866983,3.85108 -2.537696,6.52577 -2.703615,10.78157 -0.441654,11.32842 5.417976,21.3183 15.409173,26.27057 3.371462,1.67111 5.848154,2.36151 10.369415,2.89058 4.132253,0.48355 4.695503,0.78248 5.356883,2.84309 0.27223,0.84816 0.24235,1.14606 -0.21971,2.19064 -0.42126,0.95232 -0.77595,1.31844 -1.67069,1.72452 -0.62475,0.28354 -1.37402,0.49813 -1.66506,0.47686 -0.29105,-0.0213 -1.005421,-0.0781 -1.587505,-0.12623 z m 14.506565,-14.3592 c -1.96359,-0.89154 -2.60232,-2.61018 -1.71531,-4.61543 0.6434,-1.45451 1.04837,-1.64776 4.53895,-2.16591 3.64051,-0.54042 6.25841,-1.87848 8.57894,-4.38487 3.01612,-3.25768 4.06223,-6.3744 3.73128,-11.11679 -0.13971,-2.00195 -0.094,-2.71816 0.21094,-3.30792 1.68456,-3.25757 5.77936,-2.50375 6.55156,1.2061 0.42427,2.03831 0.36153,5.84656 -0.13559,8.22888 -0.54421,2.60806 -2.62743,6.79466 -4.51527,9.07427 -3.28787,3.97017 -8.33264,6.62833 -13.88575,7.31659 -1.23311,0.15284 -2.24514,0.27527 -2.24896,0.27207 -0.004,-0.003 -0.50367,-0.23134 -1.11079,-0.50699 z M 89.236302,163.5062 c -1.1932,-0.41882 -2.125828,-1.80373 -2.125828,-3.15675 0,-1.66664 1.00277,-7.64498 1.615016,-9.62844 0.740352,-2.39848 2.257937,-5.38082 3.822891,-7.51268 0.694352,-0.94589 6.868861,-7.32588 13.721129,-14.17777 14.58964,-14.58882 13.80259,-13.9949 18.54409,-13.99359 2.67857,7.4e-4 3.03688,0.0625 4.49792,0.77504 3.32342,1.62086 5.66164,5.1013 5.89764,8.77865 0.18012,2.80671 -0.38611,4.66017 -2.1716,7.10829 -1.09012,1.49469 -23.44648,23.93353 -25.68646,25.78122 -3.65718,3.01671 -5.81146,3.99967 -11.543311,5.26706 -4.741842,1.04848 -5.497893,1.1358 -6.571487,0.75897 z m 10.574172,-9.37451 c 2.513396,-1.24607 2.514036,-1.24665 11.308906,-10.11646 l 8.79536,-8.87032 -2.30756,-2.31829 c -1.26915,-1.27506 -2.43335,-2.31829 -2.58711,-2.31829 -0.44285,0 -16.619955,16.39531 -17.576814,17.8139 -1.407021,2.08598 -2.903194,6.30578 -2.556299,7.20977 0.204707,0.53346 2.12408,-0.0124 4.923517,-1.40031 z m 26.815226,-25.7427 c 1.79945,-1.94363 2.06432,-2.90532 1.25858,-4.56976 -0.82516,-1.70454 -2.84038,-2.51495 -4.34485,-1.74725 -0.75217,0.38381 -3.35604,2.91504 -3.35604,3.26241 0,0.37515 4.28547,4.64477 4.66201,4.64477 0.16944,0 0.97057,-0.71558 1.7803,-1.59017 z"
       id="path1" /></g></svg>
