<?xml version="1.0" encoding="UTF-8" standalone="no"?>
<!-- Created with Inkscape (http://www.inkscape.org/) -->

<svg
   width="82.009026mm"
   height="81.641319mm"
   viewBox="0 0 82.009026 81.641319"
   version="1.1"
   id="svg1"
   xml:space="preserve"
   xmlns:inkscape="http://www.inkscape.org/namespaces/inkscape"
   xmlns:sodipodi="http://sodipodi.sourceforge.net/DTD/sodipodi-0.dtd"
   xmlns="http://www.w3.org/2000/svg"
   xmlns:svg="http://www.w3.org/2000/svg"><sodipodi:namedview
     id="namedview1"
     pagecolor="#ffffff"
     bordercolor="#000000"
     borderopacity="0.25"
     inkscape:showpageshadow="2"
     inkscape:pageopacity="0.0"
     inkscape:pagecheckerboard="0"
     inkscape:deskcolor="#d1d1d1"
     inkscape:document-units="mm" /><defs
     id="defs1" /><g
     inkscape:label="Layer 1"
     inkscape:groupmode="layer"
     id="layer1"
     transform="translate(-63.349638,-106.97398)"><path
       style="fill:#ffffff"
       d="m 68.088909,188.35901 c -1.834562,-0.57456 -3.210629,-1.72689 -4.13527,-3.46292 -0.93489,-1.75528 -0.730078,-21.42521 0.240277,-23.07593 1.861398,-3.16654 2.768271,-3.38241 14.209485,-3.38241 15.292241,0 14.916005,-0.36741 15.033213,14.68058 0.09461,12.14633 -0.09598,12.95224 -3.492815,14.76991 -1.137795,0.60884 -20.109189,1.0175 -21.85489,0.47077 z m 34.192531,-21.25106 0.0727,-4.30457 17.13177,-0.0681 17.13177,-0.0681 V 139.12124 115.57526 H 112.9375 89.25729 v 17.19791 17.19792 h -4.372336 -4.372337 l 0.07286,-19.11615 c 0.08127,-21.32223 -0.03013,-20.05384 1.93376,-22.01774 2.006096,-2.00609 -0.367228,-1.8609 30.418263,-1.8609 32.11119,0 31.33484,-0.1289 32.24086,5.35302 0.30525,1.84689 0.19413,52.58724 -0.11835,54.04429 -1.04792,4.88629 -1.03307,4.88318 -23.72129,4.96767 l -19.13,0.0712 z m -1.78428,-13.27224 c -1.690317,-0.73652 -2.693178,-2.41108 -2.552125,-4.2615 0.114783,-1.50578 0.717689,-2.22722 7.794205,-9.32656 l 7.45045,-7.47448 h -5.70901 c -5.95623,0 -7.00506,-0.14982 -8.128215,-1.16113 -1.830178,-1.64791 -1.890595,-4.70564 -0.124558,-6.30388 1.354543,-1.22584 1.794023,-1.26624 13.777323,-1.26624 16.38316,0 14.88123,-1.52211 14.88123,15.08125 0,12.09258 0,12.09258 -0.59531,12.96728 -1.96013,2.88002 -5.99271,2.68565 -7.43725,-0.35848 -0.36305,-0.76507 -0.43411,-1.90404 -0.43411,-6.95847 v -6.04366 l -7.34219,7.33087 c -8.40197,8.38902 -9.09831,8.85653 -11.58044,7.775 z"
       id="path1" /></g></svg>
