<?xml version="1.0" encoding="UTF-8" standalone="no"?>
<!-- Created with Inkscape (http://www.inkscape.org/) -->

<svg
   width="52.225285mm"
   height="61.290852mm"
   viewBox="0 0 52.225285 61.290852"
   version="1.1"
   id="svg1"
   xml:space="preserve"
   xmlns:inkscape="http://www.inkscape.org/namespaces/inkscape"
   xmlns:sodipodi="http://sodipodi.sourceforge.net/DTD/sodipodi-0.dtd"
   xmlns="http://www.w3.org/2000/svg"
   xmlns:svg="http://www.w3.org/2000/svg"><sodipodi:namedview
     id="namedview1"
     pagecolor="#ffffff"
     bordercolor="#000000"
     borderopacity="0.25"
     inkscape:showpageshadow="2"
     inkscape:pageopacity="0.0"
     inkscape:pagecheckerboard="0"
     inkscape:deskcolor="#d1d1d1"
     inkscape:document-units="mm" /><defs
     id="defs1" /><g
     inkscape:label="Layer 1"
     inkscape:groupmode="layer"
     id="layer1"
     transform="translate(-73.070841,-92.786)"><path
       style="fill:#ffffff"
       d="m 97.919327,153.89875 c -0.87891,-0.26791 -21.092344,-12.41302 -22.98075,-13.80782 -0.352715,-0.26053 -0.917248,-0.94993 -1.254519,-1.53201 l -0.61322,-1.05834 v -14.1552 -14.15521 l 0.649109,-1.13352 c 0.76039,-1.32783 0.791981,-1.34877 14.283262,-9.46844 L 97.643907,92.786 h 1.60409 1.604093 l 11.34963,6.87917 c 8.31055,5.03714 11.56952,7.15137 12.17083,7.89572 l 0.8212,1.01656 0.0727,14.39302 c 0.0696,13.77113 0.0507,14.436 -0.43727,15.38761 -0.28051,0.54702 -0.7895,1.2458 -1.13108,1.55283 -0.52379,0.47081 -20.1973,12.53015 -22.18464,13.5986 -1.06989,0.5752 -2.482323,0.72817 -3.594183,0.38924 z m -0.64581,-16.86119 -0.007,-12.76614 -5.4834,-3.30461 c -7.09001,-4.27283 -15.184621,-8.99852 -15.413539,-8.99852 -0.09859,0 -0.26613,5.40552 -0.372303,12.01227 -0.163278,10.16022 -0.13484,12.12336 0.18445,12.73274 0.270975,0.51718 3.244883,2.46028 10.539402,6.88629 5.58905,3.3912 10.2512,6.17444 10.36034,6.18497 0.10914,0.0105 0.19543,-5.72562 0.19175,-12.747 z m -6.52568,7.0367 c -0.84889,-0.18169 -2.457865,-2.07613 -2.493926,-2.93642 -0.08138,-1.94139 0.50062,-3.13218 1.795236,-3.6731 1.19558,-0.49954 2.25148,-0.27088 3.3981,0.73587 2.81502,2.47161 0.89769,6.64352 -2.69941,5.87365 z m -10.838474,-7.0897 c -2.61727,-1.13871 -2.933326,-5.18528 -0.495353,-6.34217 1.72163,-0.81697 3.586164,-0.0673 4.471182,1.79775 0.836823,1.76348 0.264,3.77643 -1.28364,4.51083 -1.06165,0.50379 -1.596129,0.51046 -2.692189,0.0336 z m 10.838474,-5.08114 c -0.84889,-0.18168 -2.457865,-2.07612 -2.493926,-2.93641 -0.08138,-1.94139 0.50062,-3.13218 1.795236,-3.67311 1.19558,-0.49954 2.25148,-0.27088 3.3981,0.73587 2.81502,2.47162 0.89769,6.64352 -2.69941,5.87365 z m -10.924851,-7.16939 c -1.179044,-0.59238 -2.12194,-2.00264 -2.12194,-3.17373 0,-3.77339 4.554949,-4.72427 6.184146,-1.29099 0.836823,1.76347 0.264,3.77642 -1.28364,4.51083 -1.124256,0.53349 -1.642034,0.5249 -2.778566,-0.0461 z m 31.787744,18.41733 c 7.21148,-4.58972 10.14552,-6.59837 10.42352,-7.13595 0.32551,-0.62947 0.37596,-2.59703 0.31799,-12.40111 l -0.0689,-11.65294 -10.64948,6.1494 -10.64948,6.1494 v 12.63948 c 0,9.11521 0.0822,12.63949 0.29486,12.63949 0.16217,0 4.81134,-2.8745 10.33149,-6.38777 z m -7.67437,-0.49054 c -0.97482,-0.97482 -1.24158,-2.06868 -0.82269,-3.37338 0.56188,-1.75003 1.82987,-2.7129 3.57257,-2.7129 0.7454,0 1.17081,0.20518 1.86522,0.89959 0.77621,0.77621 0.89945,1.07557 0.8986,2.18281 -0.002,2.29114 -1.457,3.79677 -3.66969,3.79677 -0.81488,0 -1.22932,-0.1782 -1.84401,-0.79289 z m 6.65581,-8.50119 c -1.81733,-0.51169 -2.59182,-2.57489 -1.71266,-4.5624 1.67731,-3.79182 6.99585,-2.3765 6.10827,1.62547 -0.49923,2.25097 -2.37668,3.50539 -4.39561,2.93693 z m 5.29051,-9.54092 c -1.14711,-0.30172 -2.02228,-1.58537 -2.02055,-2.96361 0.003,-2.3116 1.66224,-3.99043 3.73559,-3.77947 2.04997,0.20857 3.20068,1.92148 2.67998,3.98934 -0.51777,2.05628 -2.44821,3.26581 -4.39502,2.75374 z m -6.51102,-10.32038 c 5.57345,-3.22963 10.13355,-5.95136 10.13355,-6.0483 0,-0.0969 -4.58885,-2.87534 -10.19746,-6.17421 l -10.197453,-5.99796 -10.506188,5.85037 c -5.778404,3.21771 -10.602573,5.94289 -10.720375,6.05597 -0.165206,0.15857 20.718033,12.1329 21.235323,12.17621 0.0655,0.005 4.679153,-2.63246 10.252603,-5.86208 z m -11.557013,-3.58722 c -0.50642,-0.25444 -1.19103,-0.86717 -1.52135,-1.36163 -1.9903,-2.97931 1.48433,-6.48856 4.845363,-4.89365 2.513,1.1925 2.58905,4.76462 0.13084,6.14621 -1.23293,0.69295 -2.230053,0.72443 -3.454853,0.10907 z"
       id="path1" /></g></svg>
