<?xml version="1.0" encoding="UTF-8" standalone="no"?>
<!-- Created with Inkscape (http://www.inkscape.org/) -->

<svg
   width="96.043755mm"
   height="88.347054mm"
   viewBox="0 0 96.043755 88.347054"
   version="1.1"
   id="svg1"
   xml:space="preserve"
   inkscape:version="1.3.2 (091e20e, 2023-11-25, custom)"
   sodipodi:docname="Record.svg"
   inkscape:dataloss="true"
   xmlns:inkscape="http://www.inkscape.org/namespaces/inkscape"
   xmlns:sodipodi="http://sodipodi.sourceforge.net/DTD/sodipodi-0.dtd"
   xmlns="http://www.w3.org/2000/svg"
   xmlns:svg="http://www.w3.org/2000/svg"><sodipodi:namedview
     id="namedview1"
     pagecolor="#ffffff"
     bordercolor="#000000"
     borderopacity="0.25"
     inkscape:showpageshadow="2"
     inkscape:pageopacity="0.0"
     inkscape:pagecheckerboard="0"
     inkscape:deskcolor="#d1d1d1"
     inkscape:document-units="mm"
     inkscape:zoom="0.48632937"
     inkscape:cx="396.85039"
     inkscape:cy="560.31986"
     inkscape:window-width="1600"
     inkscape:window-height="811"
     inkscape:window-x="1911"
     inkscape:window-y="-9"
     inkscape:window-maximized="1"
     inkscape:current-layer="layer1" /><defs
     id="defs1" /><g
     inkscape:label="Layer 1"
     inkscape:groupmode="layer"
     id="layer1"
     transform="translate(-57.242708,-104.75113)"><path
       style="fill:#ffffff"
       d="m 57.242708,162.93567 v -30.1625 h 1.322917 c 0.727604,0 1.322916,-0.0428 1.322916,-0.095 0,-0.0523 -0.416525,-0.99654 -0.925612,-2.09839 -1.419619,-3.07258 -1.799103,-5.07516 -1.640009,-8.65449 0.103307,-2.32425 0.294528,-3.49866 0.809821,-4.97364 2.06765,-5.91847 6.677828,-10.10633 12.90137,-11.71955 1.790929,-0.46423 2.685032,-0.54473 4.851554,-0.43679 4.771993,0.23773 8.733725,1.96977 12.018197,5.25424 2.604653,2.60465 3.895928,5.01865 5.078716,9.49449 l 0.314635,1.19062 0.331697,-1.5875 c 1.008444,-4.82641 4.236758,-9.39683 8.37024,-11.85 3.98641,-2.36588 9.19154,-3.16083 13.45692,-2.05519 3.91267,1.01422 7.22213,3.08006 9.65048,6.02406 4.54706,5.51262 5.43984,13.33752 2.24405,19.66835 -0.43288,0.85753 -0.78706,1.62208 -0.78706,1.69899 0,0.0769 0.59531,0.13983 1.32292,0.13983 h 1.32292 v 5.67293 c 0,3.12011 0.0921,5.72983 0.20462,5.79939 0.11254,0.0696 1.11403,-0.60803 2.22554,-1.50574 1.11151,-0.89771 3.58456,-2.88236 5.49566,-4.41033 1.91111,-1.52797 4.25321,-3.4032 5.20468,-4.16719 l 1.72995,-1.38906 h 4.60832 4.60831 v 30.1625 30.1625 h -4.69747 -4.69747 l -1.71868,-1.37282 c -0.94527,-0.75505 -2.3101,-1.85552 -3.03295,-2.44549 -4.32811,-3.53246 -9.49196,-7.55877 -9.69432,-7.55877 -0.13121,0 -0.23619,2.52835 -0.23619,5.68854 v 5.68854 H 93.226042 57.242708 Z m 64.029172,0.13229 v -22.0927 H 93.226042 65.180208 v 21.91631 c 0,12.05398 0.07938,21.9957 0.176389,22.09271 0.09701,0.097 12.717639,0.17639 28.045833,0.17639 h 27.86945 z M 73.117708,152.88151 v -3.98254 l 4.034896,0.073 4.034896,0.073 v 3.83646 3.83645 l -4.034896,0.073 -4.034896,0.073 z m 72.231252,10.05416 c 0,-11.35062 -0.0919,-20.6375 -0.2043,-20.6375 -0.11237,0 -0.67201,0.38696 -1.24366,0.8599 -0.57165,0.47294 -3.6051,2.91091 -6.74101,5.41771 -3.13591,2.50679 -6.14814,4.92453 -6.69384,5.37275 l -0.99219,0.81494 0.001,8.25329 10e-4,8.25329 1.38806,1.08548 c 0.76343,0.59702 4.22218,3.36523 7.68611,6.15157 3.46393,2.78634 6.41073,5.06607 6.54844,5.06607 0.15531,0 0.25038,-7.83586 0.25038,-20.6375 z M 79.249466,131.93284 c 4.171102,-1.94383 6.481434,-6.24376 5.764851,-10.7294 -0.679383,-4.25276 -4.071465,-7.65306 -8.22025,-8.24016 -5.236635,-0.74105 -9.778435,2.18052 -11.227709,7.22235 -1.25374,4.3616 0.924246,9.37681 4.962573,11.42723 2.06764,1.04983 2.506562,1.14517 4.970027,1.0796 1.792864,-0.0477 2.553477,-0.20178 3.750508,-0.75962 z m 16.284388,-0.28415 c -0.868978,-1.49665 -2.043229,-4.96882 -2.043229,-6.04166 0,-1.23531 -0.195308,-0.87377 -0.811233,1.50168 -0.298418,1.15092 -0.955533,2.89626 -1.460254,3.87852 l -0.917675,1.78594 h 2.942639 2.942639 z m 20.012996,0.19721 c 4.12363,-1.99472 6.30634,-6.34825 5.48554,-10.94119 -0.93795,-5.24843 -5.82859,-8.69222 -11.29134,-7.95091 -5.25373,0.71294 -9.32978,6.22228 -8.38042,11.32726 0.70312,3.78078 2.97784,6.52368 6.63267,7.99776 1.91261,0.77141 5.48745,0.56652 7.55355,-0.43292 z"
       id="path1" /></g></svg>
