<?xml version="1.0" encoding="UTF-8" standalone="no"?>
<!-- Created with Inkscape (http://www.inkscape.org/) -->

<svg
   width="86.24501mm"
   height="85.627853mm"
   viewBox="0 0 86.24501 85.627853"
   version="1.1"
   id="svg1"
   xml:space="preserve"
   xmlns:inkscape="http://www.inkscape.org/namespaces/inkscape"
   xmlns:sodipodi="http://sodipodi.sourceforge.net/DTD/sodipodi-0.dtd"
   xmlns="http://www.w3.org/2000/svg"
   xmlns:svg="http://www.w3.org/2000/svg"><sodipodi:namedview
     id="namedview1"
     pagecolor="#ffffff"
     bordercolor="#000000"
     borderopacity="0.25"
     inkscape:showpageshadow="2"
     inkscape:pageopacity="0.0"
     inkscape:pagecheckerboard="0"
     inkscape:deskcolor="#d1d1d1"
     inkscape:document-units="mm" /><defs
     id="defs1" /><g
     inkscape:label="Layer 1"
     inkscape:groupmode="layer"
     id="layer1"
     transform="translate(-62.365636,-204.28282)"><path
       style="fill:#ffffff"
       d="m 71.485582,289.27727 c -7.25074,-0.76728 -8.517463,-2.60303 -9.037926,-13.09791 -0.605605,-12.21171 2.015537,-18.34134 12.124982,-28.35471 9.449888,-9.36007 9.693087,-9.38961 16.897853,-2.05252 l 4.048807,4.12316 8.819082,-8.84148 c 6.87421,-6.89167 8.81908,-8.98739 8.81908,-9.50312 0,-0.3639 -0.25285,-1.66154 -0.56189,-2.88363 -1.70103,-6.72666 -0.0634,-10.72921 7.55922,-18.47576 8.13595,-8.2682 7.50843,-8.36613 18.88537,2.94728 12.07627,12.00882 11.95986,11.43249 3.91427,19.3793 -7.74834,7.6532 -11.7543,9.39955 -18.1553,7.91458 -4.57889,-1.06225 -2.51479,-2.4186 -15.69998,10.3167 -7.47205,7.21709 -7.32973,5.6589 -1.04609,11.45287 5.94156,5.47855 5.77903,6.84858 -1.71236,14.4342 -12.665499,12.8248 -17.285331,14.5003 -34.855118,12.64104 z m 58.814198,-59.52746 c 0.5399,-0.28012 1.92522,-1.46458 3.07849,-2.63213 2.38248,-2.412 2.72371,-1.49439 -2.7425,-7.37507 l -2.52021,-2.71132 -2.34838,2.31444 c -2.55447,2.51756 -3.33453,3.81617 -3.34349,5.56613 -0.0192,3.7574 4.54963,6.56386 7.87609,4.83795 z"
       id="path1" /></g></svg>
