<?xml version="1.0" encoding="UTF-8" standalone="no"?>
<!-- Created with Inkscape (http://www.inkscape.org/) -->

<svg
   width="89.81218mm"
   height="89.60524mm"
   viewBox="0 0 89.81218 89.60524"
   version="1.1"
   id="svg1"
   xml:space="preserve"
   xmlns:inkscape="http://www.inkscape.org/namespaces/inkscape"
   xmlns:sodipodi="http://sodipodi.sourceforge.net/DTD/sodipodi-0.dtd"
   xmlns="http://www.w3.org/2000/svg"
   xmlns:svg="http://www.w3.org/2000/svg"><sodipodi:namedview
     id="namedview1"
     pagecolor="#ffffff"
     bordercolor="#000000"
     borderopacity="0.25"
     inkscape:showpageshadow="2"
     inkscape:pageopacity="0.0"
     inkscape:pagecheckerboard="0"
     inkscape:deskcolor="#d1d1d1"
     inkscape:document-units="mm" /><defs
     id="defs1" /><g
     inkscape:label="Layer 1"
     inkscape:groupmode="layer"
     id="layer1"
     transform="translate(-67.971422,-77.575498)"><path
       style="fill:#ffffff;fill-opacity:1;stroke:none;stroke-width:6.21215;stroke-linecap:square;stroke-dasharray:none;stroke-opacity:1;paint-order:markers stroke fill"
       d="m 127.13016,166.30703 c -2.79242,-1.17729 -4.47099,-2.50485 -6.85046,-5.41796 -3.67964,-4.50485 -7.8966,-14.92754 -11.39176,-28.15601 l -1.28755,-4.87312 -2.48456,-0.0441 c -1.3665,-0.0242 -9.544863,-0.15344 -18.174123,-0.28711 -14.077359,-0.21806 -15.794936,-0.31214 -16.715017,-0.91555 -1.356939,-0.88992 -2.318729,-2.82284 -2.251998,-4.52587 0.06235,-1.59132 5.069088,-19.25853 7.138524,-25.189644 3.624466,-10.387907 7.568634,-16.278331 12.372811,-18.478209 2.47625,-1.133896 6.81251,-1.123794 9.31639,0.0217 2.26551,1.036447 5.634853,4.182163 7.648463,7.140837 3.64227,5.351719 8.39715,18.189366 8.46416,22.852296 0.0335,2.33314 -0.0611,2.65616 -1.09414,3.73537 -2.16151,2.25806 -5.42977,2.37994 -7.40614,0.27619 -0.4526,-0.48177 -1.83253,-3.87508 -3.11054,-7.64896 -1.26338,-3.73067 -3.000643,-8.257212 -3.860593,-10.058977 -1.67301,-3.505311 -4.20473,-6.631755 -5.37022,-6.631755 -1.69452,0 -4.91351,6.135307 -7.72111,14.716222 -1.905408,5.82352 -4.082027,13.24233 -4.082027,13.91321 0,0.30327 10.257147,0.42076 36.73277,0.42076 41.04635,0 38.44827,-0.17675 40.08009,2.72669 1.54128,2.74233 0.43688,6.13122 -2.31198,7.0944 -0.91996,0.32235 -5.74414,0.46256 -16.43998,0.4778 -8.32587,0.0118 -16.17204,0.12966 -17.43593,0.26176 l -2.29798,0.24019 0.93946,3.48665 c 3.09344,11.48074 6.82944,20.6246 9.62943,23.56799 1.85877,1.95397 2.95804,1.97654 5.0315,0.1033 2.00843,-1.8145 5.76525,-9.40664 8.18566,-16.54239 0.96063,-2.83209 2.12784,-5.56338 2.59381,-6.06954 1.23354,-1.33993 3.12831,-2.04128 4.71207,-1.74416 1.63385,0.30651 3.81829,2.28301 4.19881,3.79913 0.75413,3.0047 -5.04361,18.22722 -9.36679,24.59339 -4.58896,6.75754 -11.54571,9.61986 -17.39105,7.15546 z"
       id="path2" /></g></svg>
