<?xml version="1.0" encoding="UTF-8" standalone="no"?>
<!-- Created with Inkscape (http://www.inkscape.org/) -->

<svg
   width="86.203499mm"
   height="72.323006mm"
   viewBox="0 0 86.203499 72.323006"
   version="1.1"
   id="svg1"
   xml:space="preserve"
   xmlns:inkscape="http://www.inkscape.org/namespaces/inkscape"
   xmlns:sodipodi="http://sodipodi.sourceforge.net/DTD/sodipodi-0.dtd"
   xmlns="http://www.w3.org/2000/svg"
   xmlns:svg="http://www.w3.org/2000/svg"><sodipodi:namedview
     id="namedview1"
     pagecolor="#ffffff"
     bordercolor="#000000"
     borderopacity="0.25"
     inkscape:showpageshadow="2"
     inkscape:pageopacity="0.0"
     inkscape:pagecheckerboard="0"
     inkscape:deskcolor="#d1d1d1"
     inkscape:document-units="mm" /><defs
     id="defs1" /><g
     inkscape:label="Layer 1"
     inkscape:groupmode="layer"
     id="layer1"
     transform="translate(-62.914789,-113.08638)"><path
       style="fill:#ffffff"
       d="m 77.400724,177.82699 -14.485937,-7.56775 v -13.59606 -13.59605 l 1.389062,0.70132 c 1.738354,0.87767 12.834494,6.65723 15.676563,8.16532 1.164167,0.61775 4.259792,2.22934 6.879167,3.58133 2.619375,1.35198 4.911328,2.57366 5.093229,2.71486 0.256886,0.19939 0.330729,3.26229 0.330729,13.71807 0,7.40374 -0.0893,13.45805 -0.198437,13.45403 -0.109141,-0.004 -6.71711,-3.41281 -14.684376,-7.57507 z m 17.794156,-5.97751 9.25e-4,-13.55989 4.827725,-2.43708 c 2.65524,-1.34039 10.66178,-5.42699 17.7923,-9.08135 23.64448,-12.11766 31.01207,-15.86595 31.18589,-15.86595 0.0946,0 0.14119,6.09174 0.10349,13.5372 l -0.0685,13.5372 -0.79375,0.43698 c -0.43656,0.24034 -4.60375,2.37904 -9.26041,4.75266 -4.65667,2.37361 -10.66933,5.44686 -13.36146,6.82944 -2.69214,1.38257 -7.03792,3.61425 -9.65729,4.95928 -12.80356,6.57456 -20.444626,10.45141 -20.599146,10.45141 -0.09386,0 -0.170233,-6.10196 -0.169724,-13.5599 z m -5.028009,-18.0799 C 83.241235,150.1421 76.142162,146.436 68.476465,142.44599 c -1.816025,-0.94524 -3.333811,-1.81525 -3.372858,-1.93335 -0.03905,-0.11809 1.982572,-1.25422 4.492488,-2.52473 4.283216,-2.16814 10.188805,-5.18925 24.671817,-12.62134 3.34698,-1.71753 10.124768,-5.1832 15.061748,-7.70149 l 8.97632,-4.57869 3.45909,1.75351 c 1.9025,0.96443 5.00691,2.57172 6.89868,3.57175 1.89177,1.00003 5.64224,2.96361 8.33437,4.36352 8.70224,4.52515 9.90783,5.17737 9.97933,5.39874 0.0387,0.11977 -0.19655,0.34174 -0.52273,0.49327 -0.72702,0.33775 -16.56625,8.4166 -22.02431,11.23358 -3.85094,1.98752 -7.01568,3.609 -22.91379,11.74008 -4.162379,2.12884 -7.674723,3.86846 -7.80521,3.86582 -0.130486,-0.003 -1.725529,-0.78433 -3.544539,-1.73708 z m 5.329984,-6.43283 c 4.475262,-1.71916 5.725125,-5.06453 2.820909,-7.55043 -1.981649,-1.69622 -3.520174,-2.11738 -7.76774,-2.12637 l -3.717889,-0.008 -1.970653,0.99709 c -1.083859,0.5484 -2.254047,1.35986 -2.600416,1.80324 -0.810146,1.03704 -1.022764,2.7975 -0.467541,3.87118 0.806658,1.55991 3.063496,2.99389 5.534287,3.51646 1.98067,0.41891 6.491879,0.14096 8.169043,-0.50331 z m -6.771017,-2.43786 c -2.232746,-0.3254 -3.982926,-1.23896 -3.982926,-2.07901 0,-0.88001 1.550585,-1.73492 3.912174,-2.15696 3.874288,-0.69237 9.105894,1.04636 7.817904,2.59829 -0.586692,0.70692 -2.300219,1.39919 -4.111636,1.6611 -0.988685,0.14296 -1.85714,0.24776 -1.9299,0.2329 -0.07276,-0.0149 -0.840288,-0.13021 -1.705616,-0.25632 z m 21.908052,-5.67892 c 6.58734,-1.68765 7.29385,-7.01759 1.24981,-9.42854 -1.27043,-0.50677 -1.9741,-0.58886 -5.04808,-0.58886 -3.11637,0 -3.76865,0.0783 -5.11491,0.61386 -6.003294,2.38826 -5.328292,7.65035 1.20705,9.40982 1.88929,0.50865 5.70839,0.50553 7.70613,-0.006 z m -5.69825,-2.7593 c -0.82671,-0.10453 -2.07687,-0.47454 -2.77813,-0.82224 -1.01505,-0.50328 -1.27501,-0.76704 -1.27501,-1.29363 0,-1.44921 4.38187,-2.66726 7.72365,-2.14699 1.97439,0.30738 4.13808,1.29199 4.26284,1.93985 0.29178,1.51506 -4.11592,2.8057 -7.93335,2.32301 z m 23.01614,-6.02509 c 5.78011,-2.26212 5.62099,-7.17346 -0.29932,-9.23889 -2.10532,-0.73448 -7.71593,-0.65644 -9.72533,0.13529 -5.96221,2.34916 -5.35422,7.6294 1.08574,9.42925 2.11436,0.59092 7.057,0.41086 8.93891,-0.32565 z m -7.19655,-2.4405 c -1.78525,-0.31959 -3.71326,-1.3482 -3.8137,-2.03465 -0.11831,-0.80852 1.39999,-1.63414 3.91707,-2.13003 1.92681,-0.3796 2.3064,-0.3796 4.23321,0 3.63373,0.71588 4.9176,2.00152 3.10892,3.11319 -1.63996,1.00797 -5.02119,1.48548 -7.4455,1.05149 z"
       id="path1"
       inkscape:export-filename="Solid.svg"
       inkscape:export-xdpi="96"
       inkscape:export-ydpi="96" /></g></svg>
