<?xml version="1.0" encoding="UTF-8" standalone="no"?>
<!-- Created with Inkscape (http://www.inkscape.org/) -->

<svg
   width="85.823853mm"
   height="76.327187mm"
   viewBox="0 0 85.823853 76.327187"
   version="1.1"
   id="svg1"
   xml:space="preserve"
   xmlns:inkscape="http://www.inkscape.org/namespaces/inkscape"
   xmlns:sodipodi="http://sodipodi.sourceforge.net/DTD/sodipodi-0.dtd"
   xmlns="http://www.w3.org/2000/svg"
   xmlns:svg="http://www.w3.org/2000/svg"><sodipodi:namedview
     id="namedview1"
     pagecolor="#ffffff"
     bordercolor="#000000"
     borderopacity="0.25"
     inkscape:showpageshadow="2"
     inkscape:pageopacity="0.0"
     inkscape:pagecheckerboard="0"
     inkscape:deskcolor="#d1d1d1"
     inkscape:document-units="mm" /><defs
     id="defs1" /><g
     inkscape:label="Layer 1"
     inkscape:groupmode="layer"
     id="layer1"
     transform="translate(-68.90307,-81.143324)"><path
       style="fill:#ffffff"
       d="m 80.908169,157.12548 c -5.219339,-1.17879 -9.328208,-4.85151 -11.326673,-10.12437 -0.581613,-1.53456 -0.676371,-2.2087 -0.678403,-4.82641 -0.0019,-2.49166 0.10685,-3.35417 0.600668,-4.7625 1.638126,-4.6718 5.141575,-8.17564 9.816908,-9.81801 1.425605,-0.5008 2.262906,-0.60374 4.894792,-0.60179 2.775354,0.002 3.403529,0.089 4.990564,0.69108 l 1.815564,0.68872 6.465743,-4.51567 c 3.556158,-2.48362 6.370558,-4.60746 6.254228,-4.71964 -0.11634,-0.11217 -3.0255,-2.16805 -6.464822,-4.56861 l -6.253306,-4.36466 -1.816486,0.68905 c -1.58806,0.60241 -2.215745,0.68935 -4.991485,0.69141 -2.631886,0.002 -3.469187,-0.10099 -4.894792,-0.60178 -4.675333,-1.64237 -8.178782,-5.14622 -9.816908,-9.81802 -0.493818,-1.408325 -0.602602,-2.270835 -0.600668,-4.762495 0.002,-2.61771 0.09679,-3.29185 0.678403,-4.82641 0.99416,-2.62304 2.256077,-4.55755 4.104544,-6.29222 8.481957,-7.9598 22.399765,-3.87827 25.355116,7.43562 0.679621,2.60178 0.441156,6.71226 -0.520657,8.974675 -0.40212,0.94589 -0.749164,1.91952 -0.771208,2.16362 -0.03321,0.36772 5.334959,4.35855 9.807459,7.29112 0.55979,0.36705 1.28023,-0.0986 15.47813,-10.00346 8.19005,-5.713635 15.66491,-10.750915 16.61079,-11.193955 1.43042,-0.66999 2.13152,-0.82361 4.16669,-0.91296 2.70622,-0.11882 4.0968,0.1449 6.3237,1.19929 1.5418,0.73001 4.59086,3.32429 4.59086,3.90612 0,0.18165 -7.43769,5.52647 -16.52821,11.877385 -9.09052,6.35092 -17.06823,11.92776 -17.72825,12.39299 -0.66002,0.46522 -1.11021,0.92758 -1.00043,1.02747 0.10978,0.0999 5.61695,3.96399 12.23814,8.5869 6.6212,4.62291 14.50909,10.13159 17.52865,12.24151 3.01956,2.10991 5.4901,3.98423 5.4901,4.16513 0,0.58072 -3.05079,3.17558 -4.59086,3.90477 -2.2269,1.05439 -3.61748,1.31811 -6.3237,1.1993 -2.03517,-0.0894 -2.73627,-0.24298 -4.16669,-0.91297 -0.94588,-0.44304 -8.41578,-5.47686 -16.59976,-11.18626 -9.45135,-6.59355 -15.00168,-10.30832 -15.21355,-10.18225 -0.51996,0.30941 -9.829607,6.76871 -10.093745,7.00333 -0.133336,0.11844 0.01242,0.73565 0.336585,1.42528 1.903784,4.05012 1.813016,9.31354 -0.230421,13.36157 -3.08434,6.11004 -10.336066,9.56883 -16.93661,8.0781 z m 6.59367,-7.82821 c 1.959295,-0.86535 3.687692,-2.80348 4.278859,-4.79808 0.141703,-0.4781 0.261107,-1.61623 0.265343,-2.52917 0.01333,-2.87255 -1.661148,-5.57897 -4.331878,-7.00153 -1.614963,-0.8602 -5.382278,-0.86029 -6.997075,-1.6e-4 -2.917795,1.55417 -4.387049,3.90176 -4.401089,7.03211 -0.02632,5.86882 5.805545,9.67311 11.18584,7.29683 z m 0.212324,-45.7097 c 4.062805,-2.08981 5.62801,-7.446465 3.281404,-11.230065 -2.700006,-4.35341 -8.707556,-5.06115 -12.387127,-1.45931 -1.571352,1.53816 -2.298199,3.33125 -2.284556,5.63589 0.02097,3.541315 1.89415,6.170975 5.299368,7.439465 1.467775,0.54676 4.672367,0.34369 6.090911,-0.38598 z"
       id="path1" /></g></svg>
