<?xml version="1.0" encoding="UTF-8" standalone="no"?>
<!-- Created with Inkscape (http://www.inkscape.org/) -->

<svg
   width="89.12101mm"
   height="139.13084mm"
   viewBox="0 0 89.12101 139.13084"
   version="1.1"
   id="svg1"
   xml:space="preserve"
   xmlns:inkscape="http://www.inkscape.org/namespaces/inkscape"
   xmlns:sodipodi="http://sodipodi.sourceforge.net/DTD/sodipodi-0.dtd"
   xmlns="http://www.w3.org/2000/svg"
   xmlns:svg="http://www.w3.org/2000/svg"><sodipodi:namedview
     id="namedview1"
     pagecolor="#ffffff"
     bordercolor="#000000"
     borderopacity="0.25"
     inkscape:showpageshadow="2"
     inkscape:pageopacity="0.0"
     inkscape:pagecheckerboard="0"
     inkscape:deskcolor="#d1d1d1"
     inkscape:document-units="mm" /><defs
     id="defs1" /><g
     inkscape:label="Layer 1"
     inkscape:groupmode="layer"
     id="layer1"
     transform="translate(-60.439496,-67.901113)"><path
       style="fill:#ffffff"
       d="m 92.009656,205.27315 -5.855489,-1.62315 -0.969715,-0.87906 -0.969716,-0.87906 3.946245,-8.2245 3.946246,-8.22449 2.354416,-4.79763 2.354413,-4.79762 0.83033,-2.16117 0.83032,-2.16117 -2.959479,-6.40602 -2.959482,-6.40601 -1.354979,-2.7415 -1.354978,-2.7415 -3.456526,-7.02509 -3.456526,-7.02509 h -0.714834 -0.714835 l -2.772778,1.49066 -2.772778,1.49067 -1.887461,-1.90875 -1.887462,-1.90876 0.294485,-0.78131 0.294485,-0.78132 2.696937,-1.53022 2.696938,-1.53023 0.968862,-0.71124 0.968862,-0.71125 -9.832832,-7.98856 -9.832831,-7.98855 v -0.48071 -0.48071 l 0.984885,-0.64386 0.984886,-0.64386 14.576305,-5.33372 14.576307,-5.33373 1.270751,-1.26259 1.270752,-1.26258 0.534039,-2.905095 0.534039,-2.905086 -1.922696,-1.41868 -1.922695,-1.41869 -1.351989,-1.88536 -1.351989,-1.88536 -0.02552,-3.254954 -0.02552,-3.254951 0.925931,-2.884022 0.92593,-2.884023 2.539254,-2.87176 2.539255,-2.871761 2.745387,-1.269308 2.745394,-1.269308 h 3.78016 3.78016 l 2.62851,0.95534 2.62851,0.95534 2.2613,2.578903 2.2613,2.578903 -0.0599,3.836158 -0.0599,3.836157 -1.39681,3.658142 -1.39681,3.658144 -2.36017,2.33827 -2.36017,2.33827 -4.13158,1.04478 -4.13158,1.04479 -0.90618,2.630936 -0.90617,2.630955 0.0142,0.94854 0.0142,0.94855 7.18875,7.19643 7.18876,7.19644 h 0.5751 0.57511 l 5.22977,-5.82569 5.22977,-5.82568 1.99603,-2.22747 1.99603,-2.22747 h 8.97426 8.97426 l 0.4907,1.34486 0.4907,1.34486 -0.895,1.4547 -0.89501,1.4547 -4.07307,-0.2294 -4.07308,-0.22941 0.30971,1.02806 0.3097,1.02807 0.0842,1.27175 0.0842,1.27175 -1.60879,0.94459 -1.60879,0.94459 -2.86214,-2.0522 -2.86213,-2.0522 -1.7998,2.23467 -1.7998,2.23467 -5.07733,5.483 -5.07734,5.483 -0.86452,0.50353 -0.86452,0.50354 -0.78791,0.003 -0.78791,0.003 -7.47375,-7.53175 -7.473764,-7.53175 h -0.54921 -0.54921 l -0.39933,1.19941 -0.39933,1.1994 -2.838919,10.14716 -2.838916,10.14715 1.557326,1.16153 1.557327,1.16153 16.038746,11.49023 16.03873,11.49023 -1.76757,13.52595 -1.76756,13.52595 -0.0368,2.48163 -0.0368,2.48163 4.769,0.46933 4.76899,0.46934 0.41308,0.93638 0.41308,0.93639 -0.8763,1.4243 -0.8763,1.42431 h -7.00717 -7.00718 l -1.27934,-1.11285 -1.27933,-1.11285 0.40749,-1.79999 0.40749,-1.8 1.22275,-13.02212 1.22274,-13.02212 0.36056,-1.88272 0.36056,-1.88273 -10.71287,-7.70206 -10.712864,-7.70206 -3.055365,-1.95453 -3.05536,-1.95454 v 0.59413 0.59413 l 2.788432,5.80488 2.788433,5.80488 1.05597,2.05613 1.05597,2.05612 2.852824,5.56926 2.85282,5.56926 v 2.14483 2.14484 l -5.909324,12.00922 -5.909308,12.00922 v 0.92791 0.9279 l 3.435528,0.7525 3.435534,0.7525 1.01381,1.0626 1.0138,1.0626 -0.88685,1.69314 -0.88686,1.69314 -1.395734,-0.0679 -1.39573,-0.0679 z m -3.139456,-86.08932 2.231723,-8.44679 0.033,-0.51404 0.033,-0.51403 -0.984886,0.0181 -0.984885,0.0181 -9.043321,3.36277 -9.043322,3.36277 -0.144201,0.56003 -0.144202,0.56002 7.1706,5.66109 7.1706,5.66109 0.737085,-0.64116 0.737085,-0.64117 z m 17.82023,-29.173231 1.7341,-0.97641 1.69308,-3.042315 1.69309,-3.04231 0.1184,-3.3915 0.1184,-3.3915 -1.71783,-1.495719 -1.71783,-1.495719 -3.51749,-0.06685 -3.5175,-0.06685 -1.770154,1.37075 -1.77015,1.37075 -1.447237,2.741499 -1.447236,2.741499 -0.0173,3.10303 -0.0173,3.103029 1.266167,1.57246 1.266164,1.57247 1.68849,0.57582 1.688486,0.57583 1.96977,-0.39077 1.96977,-0.39077 z"
       id="path1" /></g></svg>
