<?xml version="1.0" encoding="UTF-8" standalone="no"?>
<!-- Created with Inkscape (http://www.inkscape.org/) -->

<svg
   width="86.165504mm"
   height="75.352592mm"
   viewBox="0 0 86.165504 75.352592"
   version="1.1"
   id="svg1"
   xml:space="preserve"
   xmlns="http://www.w3.org/2000/svg"
   xmlns:svg="http://www.w3.org/2000/svg"><defs
     id="defs1" /><g
     id="layer1"
     transform="translate(-63.124666,-107.55991)"><path
       style="fill:#ffffff"
       d="m 89.095396,182.6524 c -0.307323,-0.12417 -0.813338,-0.5494 -1.124479,-0.94495 -0.542432,-0.68959 -0.56571,-0.98219 -0.56571,-7.11082 v -6.39164 l -1.785938,-1.03674 c -6.742592,-3.91408 -9.421182,-10.70792 -10.379216,-26.32529 -0.147293,-2.40109 -0.268358,-6.23546 -0.269035,-8.52082 l -0.0012,-4.1552 -0.859896,-0.12328 c -5.929724,-0.85018 -8.490499,-2.24066 -10.147112,-5.50983 -1.737252,-3.4283 -0.756325,-6.89243 2.779586,-9.81606 2.612871,-2.16043 9.023646,-4.73901 12.725339,-5.11847 4.261573,-0.43685 9.658823,2.81604 11.573877,6.97551 0.696374,1.51251 0.706482,1.61985 0.903969,9.5994 0.227499,9.19224 0.568008,13.49255 1.284532,16.22246 0.812914,3.09714 1.700637,3.42063 7.007417,2.55348 6.94196,-1.13434 12.3092,-0.97138 18.37453,0.55789 9.08941,2.29173 11.26825,4.07358 16.96187,13.87138 4.37228,7.52398 6.97532,10.99976 10.21536,13.64029 3.24815,2.64714 3.28671,2.69057 3.44634,3.88097 0.13556,1.01089 0.0644,1.20248 -0.74838,2.01528 -0.70146,0.70145 -1.31433,0.99284 -2.79806,1.3303 -5.12073,1.16469 -10.8321,-0.15399 -15.84529,-3.65846 -0.945,-0.6606 -1.83154,-1.20109 -1.97009,-1.20109 -0.14793,0 -0.2519,1.58733 -0.2519,3.84577 0,4.27819 -0.18534,4.88621 -1.64444,5.39485 -0.48096,0.16767 -3.08349,0.28438 -6.34104,0.28438 -8.40384,0 -8.15411,0.2469 -8.15411,-8.06129 v -5.43246 h -3.96875 -3.96875 v 5.56939 c 0,8.22647 0.3024,7.93209 -8.122799,7.90759 -3.172305,-0.009 -6.019273,-0.11836 -6.326596,-0.24254 z m 8.940791,-11.10094 0.08465,-5.80401 0.777105,-0.81058 0.777106,-0.81057 h 7.765012 c 8.56505,0 8.75238,0.0331 9.3141,1.64444 0.16675,0.47832 0.28438,3.04308 0.28438,6.20025 v 5.38447 h 2.64584 2.64583 v -5.56939 c 0,-4.45004 0.0803,-5.7247 0.39961,-6.34215 0.49606,-0.95927 1.14119,-1.31762 2.37208,-1.31762 0.84637,0 1.266,0.29634 3.70741,2.61822 3.07177,2.92135 5.84749,4.78732 8.52934,5.7338 2.72491,0.96168 3.04647,0.87418 1.76641,-0.48067 -2.40563,-2.54617 -4.51872,-5.62751 -8.02865,-11.70748 -2.91022,-5.04113 -4.69397,-7.51553 -6.30406,-8.74493 -1.43602,-1.09649 -6.42983,-2.77938 -10.11506,-3.40874 -4.07269,-0.69553 -6.925,-0.7766 -10.58333,-0.30081 -1.81901,0.23657 -4.297215,0.54808 -5.507123,0.69223 -5.370505,0.63988 -8.952259,-1.34809 -10.24927,-5.68861 -1.103137,-3.69171 -1.690222,-10.49296 -1.70253,-19.72343 -0.0036,-2.69213 -0.132849,-5.3497 -0.287242,-5.90571 -0.358627,-1.29149 -1.927246,-3.035 -3.28821,-3.65483 -2.15363,-0.98084 -5.862649,-0.42901 -9.780075,1.45509 -2.486692,1.19598 -4.034636,2.37205 -4.553099,3.45928 -0.401635,0.84224 -0.396432,0.9481 0.08742,1.77867 0.282959,0.48572 1.042202,1.17527 1.687207,1.53234 1.023738,0.56674 1.576678,0.6613 4.352099,0.7443 5.387592,0.16111 5.426769,0.20964 5.431985,6.72928 0.01289,16.11653 1.600386,26.41218 4.701437,30.49107 0.706081,0.92873 1.841585,1.82894 4.026152,3.19189 1.67349,1.04408 3.189781,2.18522 3.369537,2.53587 0.228726,0.44617 0.328,2.3252 0.330729,6.25994 l 0.0039,5.62239 h 2.627334 2.627334 z"
       id="path1" /></g></svg>
