<?xml version="1.0" encoding="UTF-8" standalone="no"?>
<!-- Created with Inkscape (http://www.inkscape.org/) -->

<svg
   width="76.200119mm"
   height="85.989212mm"
   viewBox="0 0 76.200119 85.989212"
   version="1.1"
   id="svg1"
   xml:space="preserve"
   xmlns:inkscape="http://www.inkscape.org/namespaces/inkscape"
   xmlns:sodipodi="http://sodipodi.sourceforge.net/DTD/sodipodi-0.dtd"
   xmlns="http://www.w3.org/2000/svg"
   xmlns:svg="http://www.w3.org/2000/svg"><sodipodi:namedview
     id="namedview1"
     pagecolor="#ffffff"
     bordercolor="#000000"
     borderopacity="0.25"
     inkscape:showpageshadow="2"
     inkscape:pageopacity="0.0"
     inkscape:pagecheckerboard="0"
     inkscape:deskcolor="#d1d1d1"
     inkscape:document-units="mm" /><defs
     id="defs1" /><g
     inkscape:label="Layer 1"
     inkscape:groupmode="layer"
     id="layer1"
     transform="translate(-66.61889,-102.9917)"><path
       style="fill:#ffffff"
       d="m 75.217913,188.49397 c -1.636302,-1.00044 -1.575784,-0.6228 -1.719792,-10.73158 l -0.132291,-9.28635 -1.190625,-0.0671 c -2.181711,-0.12302 -2.914152,-0.34918 -3.881527,-1.19855 -1.711629,-1.50283 -1.674723,-1.14586 -1.674723,-16.19885 0,-13.16743 0.01871,-13.68175 0.534393,-14.69258 0.799881,-1.56789 2.189475,-2.36397 4.45849,-2.55419 l 1.886283,-0.15814 0.0039,-14.05069 c 0.003,-10.70805 0.08257,-14.20616 0.334584,-14.7042 0.181876,-0.35944 0.733509,-0.92499 1.225852,-1.25677 l 0.895168,-0.60326 h 21.123365 21.12337 l 0.78599,0.72761 c 0.43229,0.40018 4.42276,4.886 8.86771,9.96848 l 8.08173,9.24088 v 5.33897 5.33898 l 1.88628,0.15814 c 2.26902,0.19022 3.65861,0.9863 4.45849,2.55419 0.51569,1.01083 0.53439,1.52515 0.53439,14.69258 0,15.05299 0.0369,14.69602 -1.67472,16.19885 -0.96737,0.84937 -1.69982,1.07553 -3.88153,1.19855 l -1.19062,0.0671 -0.13229,9.29919 c -0.12553,8.82406 -0.1593,9.32901 -0.66084,9.88282 -1.25421,1.38493 0.17332,1.32327 -30.613,1.32221 -27.325052,-9.5e-4 -28.691109,-0.0235 -29.448037,-0.48629 z M 132.6325,176.54583 v -8.06979 H 104.71895 76.805413 l -0.07024,7.80215 c -0.03863,4.29119 -0.01239,7.95291 0.05831,8.13715 0.102814,0.26794 5.705137,0.32152 27.983777,0.26764 l 27.85524,-0.0674 z m -48.438848,-13.5262 c 3.386061,-1.11157 5.452335,-3.84243 5.438242,-7.18737 -0.01448,-3.43734 -2.040793,-5.57254 -7.339116,-7.7335 -2.831637,-1.15491 -3.767573,-1.93913 -3.767573,-3.15682 0,-2.31453 2.991479,-3.05335 7.361806,-1.81819 0.774775,0.21897 1.446441,0.35734 1.492591,0.3075 0.09629,-0.104 1.199769,-4.01272 1.199769,-4.24982 0,-0.44869 -2.815143,-1.06101 -5.479914,-1.19193 -2.60582,-0.12803 -3.192812,-0.0729 -4.829343,0.45328 -3.399519,1.09309 -5.560573,3.76779 -5.560573,6.88222 0,2.96755 1.836138,5.34861 5.241029,6.79644 5.081352,2.16071 6.147256,3.04626 5.715759,4.74868 -0.339432,1.33919 -1.282761,1.96084 -3.245613,2.13882 -1.687561,0.15302 -4.757136,-0.41694 -6.184433,-1.14834 -0.708604,-0.36311 -0.720286,-0.35496 -0.992187,0.69223 -0.151328,0.58282 -0.402153,1.5484 -0.55739,2.14573 -0.155237,0.59734 -0.223259,1.2398 -0.15116,1.42768 0.0721,0.18789 0.70938,0.53369 1.416181,0.76845 3.20722,1.06527 7.228068,1.11432 10.241925,0.12494 z m 51.746138,-0.14952 1.98437,-0.49204 0.0707,-6.67445 0.0707,-6.67445 h -4.63475 -4.63475 v 2.24895 2.24896 h 1.98437 1.98438 v 2.52185 c 0,2.97715 0.0751,2.90604 -3.05417,2.89377 -1.77818,-0.007 -2.37459,-0.12893 -3.62689,-0.74162 -2.8045,-1.37211 -4.00097,-3.5501 -4.02113,-7.31983 -0.0119,-2.23334 0.0692,-2.68189 0.72818,-4.02376 0.41215,-0.83931 1.18111,-1.8583 1.73091,-2.29376 1.36826,-1.08367 3.89511,-1.88577 5.91965,-1.87905 1.54482,0.005 4.28663,0.47099 5.25543,0.89297 0.33938,0.14782 0.52685,-0.21331 0.99219,-1.9113 0.31556,-1.15145 0.57374,-2.21523 0.57374,-2.36395 0,-0.55795 -3.76071,-1.22782 -6.87916,-1.22535 -8.21162,0.007 -13.31396,3.99541 -14.33362,11.20565 -0.94409,6.67586 2.69788,12.31336 8.9818,13.90317 2.09039,0.52886 8.21699,0.35151 10.90807,-0.31576 z m -28.34567,-3.72063 c 3.43005,-10.08301 6.91442,-20.53595 6.91442,-20.74295 0,-0.30089 -5.74903,-0.29094 -5.93519,0.0103 -0.26164,0.42335 -4.34054,14.46465 -4.92479,16.95322 -0.31327,1.33436 -0.61265,2.38303 -0.6653,2.33038 -0.0526,-0.0526 -0.34383,-1.22154 -0.64707,-2.59754 -0.30324,-1.37601 -1.47059,-5.71652 -2.594101,-9.64558 l -2.042757,-7.14375 -3.104772,-0.0745 c -1.707625,-0.041 -3.104772,0.0161 -3.104772,0.12691 0,0.19137 1.012437,3.37299 5.855888,18.40232 l 2.110343,6.54844 h 3.360251 3.36025 z m 25.11124,-29.63333 -0.0729,-4.16719 -7.78888,-0.0702 c -6.78242,-0.0611 -7.85082,-0.12628 -8.26823,-0.50403 -0.44476,-0.4025 -0.47935,-1.08003 -0.47935,-9.38863 v -8.95483 H 96.38458 76.673121 v 13.62604 13.62604 h 28.052549 28.05255 z"
       id="path1" /></g></svg>
