<?xml version="1.0" encoding="UTF-8" standalone="no"?>
<!-- Created with Inkscape (http://www.inkscape.org/) -->

<svg
   width="120.67651mm"
   height="164.72881mm"
   viewBox="0 0 120.67651 164.72881"
   version="1.1"
   id="svg1"
   xml:space="preserve"
   xmlns:inkscape="http://www.inkscape.org/namespaces/inkscape"
   xmlns:sodipodi="http://sodipodi.sourceforge.net/DTD/sodipodi-0.dtd"
   xmlns="http://www.w3.org/2000/svg"
   xmlns:svg="http://www.w3.org/2000/svg"><sodipodi:namedview
     id="namedview1"
     pagecolor="#ffffff"
     bordercolor="#000000"
     borderopacity="0.25"
     inkscape:showpageshadow="2"
     inkscape:pageopacity="0.0"
     inkscape:pagecheckerboard="0"
     inkscape:deskcolor="#d1d1d1"
     inkscape:document-units="mm" /><defs
     id="defs1" /><g
     inkscape:label="Layer 1"
     inkscape:groupmode="layer"
     id="layer1"
     transform="translate(-39.423158,-90.829206)"><g
       id="g6"><path
         style="fill:#ffffff"
         d="M 93.452974,255.03877 C 88.01666,253.62336 84.746877,251.7677 51.7584,231.37631 c -1.630721,-1.008 -4.76498,-2.94595 -6.965018,-4.30655 -2.296604,-1.42032 -4.269495,-2.95148 -4.632731,-3.59547 -0.37772,-0.66966 -0.63266,-1.96668 -0.63266,-3.21869 0,-1.87172 0.148744,-2.25538 1.384377,-3.57081 2.440697,-2.59832 3.271093,-2.35529 13.518759,3.95641 4.849044,2.9866 10.400838,6.40397 12.33732,7.59415 1.936481,1.19018 4.688323,2.88723 6.115204,3.77121 19.775244,12.25119 20.684733,12.6756 27.055146,12.62524 6.694563,-0.0529 4.090443,1.34755 46.210903,-24.85205 8.60817,-5.35443 9.52649,-5.68115 11.68024,-4.15564 1.6192,1.14689 2.46599,3.16691 2.22013,5.29619 -0.35439,3.0693 1.89269,1.4807 -30.12687,21.29866 -17.34894,10.73782 -17.59081,10.87419 -21.64549,12.20336 -3.66074,1.20003 -11.354559,1.51996 -14.824736,0.61645 z m -0.328746,-24.99366 c -5.233241,-1.31887 -5.866216,-1.66492 -26.170472,-14.30769 -5.503684,-3.42695 -11.257535,-7.00586 -12.786336,-7.95313 -6.765172,-4.19181 -8.127453,-5.13923 -9.667892,-6.72369 -5.070419,-5.21533 -6.543675,-14.21391 -3.503783,-21.40093 2.036713,-4.81528 3.955668,-6.69915 11.569684,-11.35815 3.632937,-2.22298 7.606009,-4.66151 8.82905,-5.41894 15.580167,-9.64889 25.339011,-15.40353 27.634334,-16.29553 4.01552,-1.56051 7.709412,-2.11986 12.392457,-1.87656 5.70964,0.29664 9.23684,1.514 15.93659,5.50028 6.16426,3.66767 30.60792,18.63127 34.0969,20.873 8.23891,5.29363 11.07673,16.85644 6.37936,25.99295 -2.06718,4.02072 -3.58706,5.24713 -16.01544,12.92304 -1.83456,1.13305 -8.91921,5.52162 -15.74366,9.75239 -12.98867,8.05224 -15.14146,9.17215 -19.76334,10.28115 -3.44287,0.8261 -9.9333,0.83192 -13.187452,0.0118 z m 10.915962,-10.56469 c 3.49274,-0.74081 5.79026,-1.99067 20.73004,-11.27721 7.74593,-4.81486 15.91806,-9.88254 18.16031,-11.26152 4.62734,-2.84582 6.28629,-4.17235 6.90942,-5.5249 0.79601,-1.72779 1.04134,-3.92564 0.6355,-5.69321 -0.78461,-3.41723 -0.6516,-3.30869 -14.40137,-11.752 -1.73264,-1.06396 -4.15092,-2.55759 -5.37396,-3.31918 -12.1236,-7.54936 -22.6239,-13.64744 -24.46082,-14.20567 -5.43283,-1.65103 -11.615667,-1.1099 -16.27819,1.42466 -3.26138,1.77291 -37.64149,22.8709 -38.80561,23.81379 -2.107395,1.70691 -2.951084,6.42779 -1.665037,9.31676 0.32965,0.74053 1.141569,1.81284 1.804264,2.38292 1.072436,0.92256 32.564153,20.61403 37.710816,23.58021 4.651667,2.68089 10.019766,3.579 15.034637,2.51535 z"
         id="path2"
         sodipodi:nodetypes="sssssssssssssssssssssscssssssssssssssssssssssss" /><g
         id="g5"
         transform="translate(-4.969112,78.741313)"><path
           style="fill:#ffffff;stroke:none;stroke-width:1.44468;stroke-linecap:round;stroke-linejoin:round;paint-order:markers stroke fill"
           d="m 51.793435,114.60933 c -2.847462,-0.63882 -4.815086,-2.14916 -5.70838,-4.38172 -0.517858,-1.29425 -0.59857,-4.32862 -0.59857,-22.503676 0,-22.95701 -5.29e-4,-22.95078 2.225726,-24.9004 1.659961,-1.45367 2.773153,-1.83995 5.610182,-1.94675 l 2.675676,-0.10072 0.191119,-22.55212 c 0.143402,-16.92141 0.309208,-22.75833 0.664086,-23.378 0.26013,-0.45424 1.120166,-1.22827 1.911196,-1.72008 l 1.438233,-0.8942 32.108108,-0.11527 c 22.696329,-0.0815 32.500269,0.009 33.445949,0.30755 0.83531,0.26399 1.96695,1.16877 3.01269,2.4087 0.92117,1.09224 2.29723,2.67585 3.05791,3.51913 0.76069,0.84329 2.41262,2.73537 3.67097,4.20464 1.25834,1.46926 2.37968,2.75739 2.49187,2.8625 0.11218,0.10512 1.31873,1.48118 2.68121,3.05792 1.36248,1.57674 2.5687,2.9528 2.68049,3.05791 0.11178,0.10512 1.99841,2.25522 4.1925,4.778 2.19409,2.52278 4.08981,4.67287 4.21271,4.77799 0.1229,0.10512 0.68394,0.80487 1.24676,1.55501 l 1.0233,1.36389 0.10321,8.38321 0.10321,8.38322 2.67568,0.10072 c 2.83703,0.1068 3.95022,0.49308 5.61018,1.94675 2.22628,1.94962 2.22572,1.94339 2.22572,24.9004 0,22.953036 5.3e-4,22.948206 -2.22308,24.900406 -2.485,2.18178 1.26006,2.0428 -56.64178,2.10199 -29.327318,0.03 -53.66641,-0.0227 -54.086875,-0.117 z m 18.347491,-7.01898 c 4.763326,-1.20882 6.45567,-2.05565 8.554046,-4.28033 1.552519,-1.64597 2.113798,-2.73028 2.718842,-5.252386 1.464961,-6.10664 -1.612583,-11.08029 -8.788331,-14.20291 -6.44108,-2.80292 -6.847782,-3.00814 -7.634383,-3.85246 -1.155618,-1.24041 -0.996349,-2.84967 0.412258,-4.16551 1.117918,-1.04429 1.377225,-1.10895 4.446966,-1.10895 3.094088,0 5.974508,0.51534 6.76956,1.21115 0.452382,0.39592 1.736021,0.41877 1.748184,0.0311 0.0092,-0.29237 1.359376,-5.47553 1.74244,-6.68889 0.685483,-2.17126 -11.345815,-3.46668 -16.647988,-1.7925 -6.353384,2.0061 -9.939329,7.34824 -8.804502,13.11646 0.52824,2.685 1.103791,3.6963 3.347032,5.88109 1.82884,1.78118 2.949829,2.42207 7.549004,4.31589 4.665469,1.92112 5.839611,2.76868 6.15352,4.44196 0.883838,4.71126 -6.039392,6.192716 -13.931831,2.98118 -2.030457,-0.82623 -2.005279,-0.85679 -3.104898,3.769966 -0.922049,3.87961 -0.996336,3.71578 2.091703,4.61299 4.671261,1.35719 10.278457,1.76882 13.378378,0.98213 z m 78.741314,-0.16729 c 2.31255,-0.28957 5.20207,-0.79815 6.42116,-1.13018 1.21909,-0.33203 2.29414,-0.60369 2.389,-0.60369 0.0948,0 0.17246,-4.90221 0.17246,-10.893826 v -10.89382 h -7.65815 -7.65816 l 0.10893,3.91795 0.10893,3.91796 2.96236,0.11163 2.96235,0.11164 v 3.76174 c 0,4.299056 0.0721,4.21812 -3.76356,4.22792 -4.05394,0.0103 -7.98552,-1.80174 -10.09114,-4.65108 -1.657,-2.24226 -2.24368,-4.36327 -2.25142,-8.13957 -0.006,-3.00775 0.13581,-3.7964 1.01945,-5.66266 1.10912,-2.34251 3.16146,-4.45093 5.20451,-5.34674 4.30671,-1.88835 7.34392,-1.89127 15.12033,-0.0145 0.68639,0.16565 0.887,10e-4 1.08308,-0.88905 0.13237,-0.60079 0.32834,-1.35036 0.43548,-1.6657 0.23605,-0.6947 1.2703,-4.56961 1.2703,-4.75925 0,-0.29709 -2.64993,-1.04306 -5.54247,-1.56023 -9.55643,-1.70865 -18.83355,0.85693 -23.89629,6.6085 -6.635,7.53776 -6.54692,20.75605 0.1853,27.808876 3.30801,3.46555 6.3813,4.92973 12.05269,5.74216 4.28568,0.61393 4.4769,0.61396 9.36486,0.002 z m -38.8455,-7.18079 c 1.29469,-3.836726 2.80037,-8.265916 3.34595,-9.842656 0.54559,-1.57674 1.30759,-3.89884 1.69334,-5.16023 0.38576,-1.26139 1.82868,-5.56049 3.20649,-9.55355 1.37782,-3.99306 2.50513,-7.56222 2.50513,-7.93147 0,-0.60546 -0.48175,-0.67135 -4.90793,-0.67135 h -4.90794 l -0.48775,1.62452 c -0.26826,0.89348 -0.62193,2.05453 -0.78593,2.58011 -0.16401,0.52558 -0.68124,2.24566 -1.14941,3.82239 -0.46817,1.57674 -1.06327,3.55483 -1.32245,4.39576 -0.25918,0.84092 -0.68799,2.30299 -0.95291,3.24903 -0.26492,0.94604 -0.61898,2.1501 -0.78679,2.67568 -0.62527,1.95835 -2.25974,8.26801 -2.50014,9.65154 -0.32952,1.89627 -0.79945,1.81635 -1.12361,-0.19112 -0.32017,-1.98274 -1.7235,-7.36937 -3.609808,-13.85617 -0.183404,-0.6307 -0.610161,-2.17877 -0.948351,-3.44016 -0.821804,-3.06518 -2.487713,-8.58244 -2.91424,-9.65154 -0.331248,-0.8303 -0.515258,-0.86004 -5.320419,-0.86004 -3.986054,0 -4.977307,0.10544 -4.977307,0.52946 0,0.61436 0.627422,2.70962 2.874676,9.59988 0.891366,2.73301 2.43509,7.54923 3.430487,10.7027 0.995402,3.15348 2.537235,7.96969 3.426301,10.70271 0.889072,2.733016 1.852872,5.786146 2.141792,6.784756 l 0.525301,1.81563 h 5.595768 5.59577 z m 39.03662,-46.346516 v -7.07143 h -12.17242 c -11.88711,0 -12.18949,-0.0188 -12.90058,-0.80417 -0.68394,-0.75534 -0.73478,-1.66048 -0.83717,-14.90733 l -0.10901,-14.10317 H 92.10624 61.158301 v 21.97876 21.97877 h 43.957529 43.95753 z"
           id="path1" /><path
           style="fill:#000000;stroke:none;stroke-width:5.46022;stroke-linecap:round;stroke-linejoin:round;paint-order:markers stroke fill"
           d="M 363.54644,398.41057 C 338.7744,321.28988 319.27523,259.2471 319.27523,257.54771 c 0,-2.76523 14.44849,-4.41414 27.09568,-3.09225 l 8.91761,0.93207 3.60605,10.99593 c 4.94903,15.09106 19.08847,65.68887 23.18438,82.965 3.32361,14.01867 4.35086,16.66146 5.8814,15.13092 0.43173,-0.43173 3.32475,-10.45422 6.42895,-22.27222 3.1042,-11.81799 10.14039,-36.43973 15.63598,-54.71499 l 9.99199,-33.22774 7.05518,-0.47599 c 3.88034,-0.2618 11.76846,-0.0438 17.52914,0.48443 8.42848,0.77286 10.47219,1.43009 10.4649,3.36536 -0.005,1.32272 -10.95657,34.91034 -24.33686,74.63915 l -24.32781,72.23422 -20.31933,0.40005 -20.31933,0.40004 z"
           id="path3"
           transform="scale(0.26458333)" /><path
           style="fill:#000000;stroke:none;stroke-width:5.46022;stroke-linecap:round;stroke-linejoin:round;paint-order:markers stroke fill"
           d="m 522.41707,404.46127 c -36.55004,-6.92131 -58.67342,-34.41131 -58.67342,-72.90623 0,-38.64497 22.85942,-66.89609 61.43901,-75.93022 7.53138,-1.76362 14.62922,-2.19624 28.13142,-1.71466 18.32742,0.65369 37.56179,4.38863 37.56179,7.29378 0,1.79007 -5.97569,24.58164 -6.65801,25.39395 -0.25428,0.30273 -6.33182,-0.58965 -13.50565,-1.98306 -16.57302,-3.21906 -35.3987,-2.45741 -45.03416,1.822 -8.4691,3.76139 -16.06018,11.3246 -21.0453,20.96804 -3.42684,6.62903 -3.89669,9.18855 -3.90288,21.2608 -0.004,7.78008 0.84262,16.22742 1.95465,19.50324 6.66293,19.62771 23.62413,30.19256 47.07324,29.32113 l 11.50208,-0.42744 0.40971,-14.62683 c 0.46879,-16.73576 0.77038,-16.37633 -13.77304,-16.41416 l -7.58459,-0.0197 -0.0197,-11.1963 c -0.0109,-6.15797 -0.41172,-12.65904 -0.89083,-14.44684 l -0.87112,-3.25054 h 29.25629 29.25629 l -1.0582,40.81233 c -0.58202,22.44678 -1.16793,40.93166 -1.30203,41.07752 -0.1341,0.14585 -7.05897,1.65828 -15.3886,3.36093 -19.8867,4.06505 -42.16378,4.88845 -56.87692,2.10229 z"
           id="path4"
           transform="scale(0.26458333)" /><path
           style="fill:#000000;stroke:none;stroke-width:5.46022;stroke-linecap:round;stroke-linejoin:round;paint-order:markers stroke fill"
           d="m 238.68605,406.51627 c -13.4867,-1.27488 -30.06132,-5.33153 -32.17135,-7.87396 -1.23649,-1.48989 -1.00136,-4.68341 0.95618,-12.98686 3.75492,-15.92752 4.03854,-16.16879 14.41012,-12.25829 9.17631,3.45985 27.3201,5.3882 35.77438,3.80217 2.85566,-0.53572 7.16157,-2.63124 9.56868,-4.65669 3.64241,-3.06489 4.37658,-4.74133 4.37658,-9.99372 0,-8.14532 -3.55047,-11.04243 -26.32373,-21.4796 -25.43183,-11.65561 -34.21287,-20.00195 -37.48679,-35.63103 -4.20744,-20.08552 6.0419,-37.87035 27.69342,-48.0541 5.7626,-2.71043 9.12675,-3.06129 29.61603,-3.08876 19.00462,-0.0255 24.3352,0.43982 29.97719,2.61669 3.77424,1.45622 6.86438,3.08149 6.86697,3.61171 0.0202,4.132 -6.81114,26.246 -8.10782,26.246 -0.90553,0 -4.41032,-0.97516 -7.78842,-2.16703 -3.91839,-1.38248 -11.47017,-2.16702 -20.85927,-2.16702 -14.23895,0 -14.84343,0.13169 -18.59926,4.05193 -5.78939,6.04282 -5.40592,13.41957 0.94959,18.26715 2.65737,2.02688 5.24917,3.68523 5.75955,3.68523 0.51038,0 8.34243,3.49731 17.40456,7.7718 26.66128,12.57578 36.97105,24.78597 37.00098,43.82147 0.0332,21.09436 -12.00829,36.44446 -33.67399,42.9266 -13.96175,4.17722 -21.13724,4.89922 -35.3436,3.55631 z"
           id="path5"
           transform="scale(0.26458333)" /></g></g></g></svg>
