<?xml version="1.0" encoding="UTF-8" standalone="no"?>
<!-- Created with Inkscape (http://www.inkscape.org/) -->

<svg
   width="69.762337mm"
   height="69.80307mm"
   viewBox="0 0 69.762337 69.80307"
   version="1.1"
   id="svg1"
   xml:space="preserve"
   xmlns:inkscape="http://www.inkscape.org/namespaces/inkscape"
   xmlns:sodipodi="http://sodipodi.sourceforge.net/DTD/sodipodi-0.dtd"
   xmlns="http://www.w3.org/2000/svg"
   xmlns:svg="http://www.w3.org/2000/svg"><sodipodi:namedview
     id="namedview1"
     pagecolor="#ffffff"
     bordercolor="#000000"
     borderopacity="0.25"
     inkscape:showpageshadow="2"
     inkscape:pageopacity="0.0"
     inkscape:pagecheckerboard="0"
     inkscape:deskcolor="#d1d1d1"
     inkscape:document-units="mm" /><defs
     id="defs1" /><g
     inkscape:label="Layer 1"
     inkscape:groupmode="layer"
     id="layer1"
     transform="translate(-42.682187,-107.86731)"><path
       style="fill:#ffffff"
       d="m 60.661929,177.39818 c -7.650147,-0.8725 -14.233073,-6.191 -16.647478,-13.44989 -1.162457,-3.49491 -1.33003,-6.15731 -1.332243,-21.16666 -0.0022,-15.01471 0.16391,-17.65409 1.332243,-21.16667 1.181964,-3.55356 3.391057,-6.69949 6.446262,-9.18 3.094423,-2.51235 6.316493,-3.7946 10.843589,-4.31531 2.924977,-0.33644 29.618774,-0.33644 32.543751,0 4.573967,0.5261 7.864227,1.84526 10.949117,4.38982 4.27418,3.52555 6.6176,7.92238 7.32083,13.7357 0.43699,3.61241 0.43474,29.42233 -0.003,33.07291 -0.536,4.47124 -1.81758,7.60478 -4.43406,10.84151 -3.32385,4.1118 -7.924229,6.59737 -13.436122,7.25949 -2.887742,0.3469 -30.508869,0.32971 -33.582999,-0.0209 z m 34.583229,-7.18072 c 2.448271,-0.57872 4.248252,-1.60433 6.168762,-3.51488 1.82862,-1.81914 3.10281,-4.14367 3.61272,-6.59075 0.24317,-1.16701 0.33079,-5.75731 0.33079,-17.3302 0,-14.12445 -0.048,-15.94669 -0.46743,-17.72709 -1.19015,-5.05248 -5.253453,-8.90692 -10.380489,-9.8469 -2.639381,-0.4839 -31.227286,-0.4839 -33.866667,0 -5.214723,0.95605 -9.439199,5.07073 -10.517124,10.24378 -0.471343,2.26201 -0.471343,32.3984 0,34.66041 0.6978,3.3488 2.762314,6.38251 5.660491,8.31784 3.324527,2.22003 4.805623,2.36615 23.112883,2.28019 12.256899,-0.0576 14.835034,-0.13522 16.346064,-0.4924 z m -12.11273,-16.40582 c -4.220104,-1.62933 -7.925288,-3.10664 -8.233741,-3.28291 -1.362305,-0.77847 -1.423551,-1.32161 -1.423551,-12.62423 0,-11.37997 0.03479,-11.68539 1.458828,-12.80553 0.892546,-0.70208 2.755978,-0.77075 3.8223,-0.14086 1.585437,0.93655 1.598039,1.02362 1.598039,11.04201 0,8.90187 0.01415,9.15171 0.534165,9.43002 0.293792,0.15723 3.061932,1.24528 6.151423,2.41789 3.089492,1.17261 5.942727,2.30033 6.340523,2.50604 1.514354,0.7831 2.062742,3.58005 0.973444,4.96487 -0.697067,0.88618 -1.850227,1.49006 -2.80777,1.47037 -0.407409,-0.008 -4.193556,-1.34833 -8.41366,-2.97767 z"
       id="path12" /></g></svg>
