<?xml version="1.0" encoding="UTF-8" standalone="no"?>
<!-- Created with Inkscape (http://www.inkscape.org/) -->

<svg
   width="86.054718mm"
   height="86.333824mm"
   viewBox="0 0 86.054718 86.333824"
   version="1.1"
   id="svg1"
   xml:space="preserve"
   xmlns:inkscape="http://www.inkscape.org/namespaces/inkscape"
   xmlns:sodipodi="http://sodipodi.sourceforge.net/DTD/sodipodi-0.dtd"
   xmlns="http://www.w3.org/2000/svg"
   xmlns:svg="http://www.w3.org/2000/svg"><sodipodi:namedview
     id="namedview1"
     pagecolor="#ffffff"
     bordercolor="#000000"
     borderopacity="0.25"
     inkscape:showpageshadow="2"
     inkscape:pageopacity="0.0"
     inkscape:pagecheckerboard="0"
     inkscape:deskcolor="#d1d1d1"
     inkscape:document-units="mm" /><defs
     id="defs1" /><g
     inkscape:label="Layer 1"
     inkscape:groupmode="layer"
     id="layer1"
     transform="translate(-63.03639,-110.12596)"><path
       style="fill:#ffffff"
       d="m 70.919786,195.79331 c -6.426824,-1.80282 -9.640297,-8.71073 -6.902499,-14.83809 0.779704,-1.74503 1.548439,-2.55312 18.551321,-19.50107 17.737912,-17.6806 17.737912,-17.6806 17.132705,-19.97604 -4.661705,-17.6811 12.364127,-35.12586 29.902557,-30.63831 5.42856,1.38901 5.14113,2.57917 -2.46654,10.21316 -3.27422,3.28554 -5.95313,6.11652 -5.95313,6.29106 0,0.35683 2.28823,8.26195 2.43359,8.40731 0.0513,0.0513 2.03955,0.65035 4.41827,1.33117 l 4.32495,1.23785 5.98712,-5.97012 c 3.73581,-3.72521 6.25228,-6.03413 6.6923,-6.14033 2.61076,-0.63015 4.04845,2.61257 4.05067,9.13632 0.006,16.49912 -15.94462,28.59511 -31.74743,24.07592 -1.82331,-0.52143 -1.82331,-0.52143 -19.350117,17.00393 -21.082641,21.0809 -21.04945,21.05716 -27.073767,19.36724 z"
       id="path1"
       inkscape:export-filename="Tools.svg"
       inkscape:export-xdpi="96"
       inkscape:export-ydpi="96" /></g></svg>
