<?xml version="1.0" encoding="UTF-8" standalone="no"?>
<!-- Created with Inkscape (http://www.inkscape.org/) -->

<svg
   width="67.413261mm"
   height="85.725883mm"
   viewBox="0 0 67.413261 85.725883"
   version="1.1"
   id="svg1"
   xml:space="preserve"
   xmlns:inkscape="http://www.inkscape.org/namespaces/inkscape"
   xmlns:sodipodi="http://sodipodi.sourceforge.net/DTD/sodipodi-0.dtd"
   xmlns="http://www.w3.org/2000/svg"
   xmlns:svg="http://www.w3.org/2000/svg"><sodipodi:namedview
     id="namedview1"
     pagecolor="#ffffff"
     bordercolor="#000000"
     borderopacity="0.25"
     inkscape:showpageshadow="2"
     inkscape:pageopacity="0.0"
     inkscape:pagecheckerboard="0"
     inkscape:deskcolor="#d1d1d1"
     inkscape:document-units="mm" /><defs
     id="defs1" /><g
     inkscape:label="Layer 1"
     inkscape:groupmode="layer"
     id="layer1"
     transform="translate(-70.223184,-100.23017)"><path
       style="fill:#ffffff"
       d="m 91.770833,185.78412 c -0.218281,-0.084 -2.630723,-2.37204 -5.360983,-5.08447 l -4.964108,-4.93169 -3.370267,3.3847 c -4.446069,4.46511 -5.253671,4.82677 -6.962494,3.11794 -0.910222,-0.91022 -1.258331,-49.33071 -0.38914,-54.12764 6.481098,-35.768165 56.355229,-37.729775 65.841059,-2.58961 1.28948,4.77688 1.48066,55.44205 0.21398,56.70872 -1.71845,1.71846 -2.51953,1.36114 -6.97102,-3.10941 l -3.37027,-3.3847 -5.03287,5.02708 c -6.73983,6.73209 -5.6971,6.73187 -12.43336,0.003 l -5.02969,-5.02447 -4.971032,4.96587 c -5.099478,5.09418 -5.798976,5.58433 -7.199805,5.04507 z m 1.070179,-41.61403 c 4.478383,-1.70165 6.667531,-6.90503 4.70003,-11.17149 -3.269851,-7.09056 -13.440032,-6.42265 -15.701832,1.0312 -1.962355,6.46701 4.644015,12.55606 11.001802,10.14029 z m 28.046778,-3.6e-4 c 5.19083,-1.97236 7.10265,-8.01362 3.97472,-12.55992 -4.60948,-6.69964 -15.19552,-3.39045 -15.21348,4.75573 -0.0127,5.78183 5.84893,9.85217 11.23876,7.80419 z"
       id="path1" /></g></svg>
