<?xml version="1.0" encoding="UTF-8" standalone="no"?>
<!-- Created with Inkscape (http://www.inkscape.org/) -->

<svg
   width="135.26054mm"
   height="133.26959mm"
   viewBox="0 0 135.26054 133.26959"
   version="1.1"
   id="svg1"
   xml:space="preserve"
   xmlns:inkscape="http://www.inkscape.org/namespaces/inkscape"
   xmlns:sodipodi="http://sodipodi.sourceforge.net/DTD/sodipodi-0.dtd"
   xmlns="http://www.w3.org/2000/svg"
   xmlns:svg="http://www.w3.org/2000/svg"><sodipodi:namedview
     id="namedview1"
     pagecolor="#ffffff"
     bordercolor="#000000"
     borderopacity="0.25"
     inkscape:showpageshadow="2"
     inkscape:pageopacity="0.0"
     inkscape:pagecheckerboard="0"
     inkscape:deskcolor="#d1d1d1"
     inkscape:document-units="mm" /><defs
     id="defs1" /><g
     inkscape:label="Layer 1"
     inkscape:groupmode="layer"
     id="layer1"
     transform="translate(-35.156953,-86.837003)"><path
       style="fill:#ffffff"
       d="m 99.209173,219.86857 c -1.471579,-0.29115 -3.096866,-1.14584 -3.744449,-1.96911 -0.290687,-0.36955 -0.674241,-1.2956 -0.852341,-2.0579 -1.09983,-4.70745 -3.246794,-6.45289 -9.380496,-7.62615 -4.803042,-0.91874 -6.944463,-1.99464 -7.535705,-3.78612 -0.448528,-1.35906 0.248838,-2.70853 2.885707,-5.58414 3.075807,-3.35429 3.636703,-4.58739 2.812042,-6.18211 -0.920671,-1.78038 -3.973646,-3.1674 -15.554208,-7.06654 -15.227555,-5.12707 -17.964064,-6.87123 -15.081818,-9.61263 0.565887,-0.53823 3.195409,-2.08056 6.056497,-3.55239 7.246416,-3.72778 7.813475,-4.5459 4.390308,-6.33405 -2.314869,-1.20922 -5.274927,-2.23853 -10.811853,-3.75964 -9.719412,-2.67013 -13.266974,-4.09485 -15.421357,-6.19328 -2.773738,-2.70171 -2.375904,-6.06774 1.251327,-10.58736 1.28335,-1.59908 33.845812,-35.09272 47.666234,-49.029321 6.552634,-6.60771 7.141923,-7.13172 9.005141,-8.00756 4.997771,-2.3493 10.167288,-2.23841 15.204228,0.32615 1.59928,0.81427 2.73808,1.83104 8.34301,7.44899 9.77602,9.798731 47.66674,48.648901 48.92343,50.162241 0.60421,0.72761 1.53956,2.20971 2.07856,3.29357 0.87301,1.75552 0.97933,2.18878 0.97387,3.96875 -0.007,2.39629 -0.55283,3.61084 -2.58825,5.76299 -3.29846,3.48764 -8.23092,5.87541 -22.27645,10.7839 -9.31126,3.25401 -13.2792,4.91981 -15.52048,6.51574 -1.65227,1.17652 -0.76825,2.57292 3.00671,4.74944 5.04285,2.90754 6.15171,3.62698 7.23255,4.69254 1.59681,1.57426 1.72254,2.42808 0.66582,4.52144 -0.99762,1.97627 -2.45472,3.48617 -4.23474,4.38817 -0.73017,0.37 -3.19761,1.21435 -5.4832,1.87631 -6.72663,1.94821 -9.6057,3.42213 -13.13681,6.72532 -2.81601,2.63423 -2.68768,3.33869 0.97914,5.3751 1.25768,0.69847 2.48231,1.56849 2.72139,1.93338 0.40885,0.62398 0.40337,0.70579 -0.0922,1.37589 -0.85954,1.16222 -2.95316,2.61962 -5.7715,4.01762 -5.80599,2.88001 -12.52316,4.25911 -16.710087,3.43076 z m 5.495857,-94.61861 c 3.29102,-2.0816 6.15185,-3.84926 6.35739,-3.92813 0.20554,-0.0789 2.14702,0.81106 4.3144,1.97764 2.16739,1.16657 3.96681,2.0919 3.99873,2.05628 0.0319,-0.0356 0.4386,-2.44601 0.90372,-5.35643 0.46512,-2.91042 0.92455,-5.48817 1.02096,-5.72834 0.13975,-0.34816 1.15302,0.36097 4.99864,3.49822 4.67807,3.81637 4.83322,3.91719 5.15094,3.34709 0.50467,-0.90558 0.38599,-3.59852 -0.20932,-4.74941 -0.62245,-1.20338 -20.95238,-21.954541 -22.41092,-22.875271 -3.34705,-2.11291 -7.85598,-2.35732 -11.433951,-0.6198 -1.369701,0.66514 -3.190492,2.3801 -13.125272,12.362391 -13.71414,13.77973 -15.846131,16.05365 -16.7475,17.86247 -0.853069,1.71188 -0.860713,2.43832 -0.03435,3.26468 l 0.649432,0.64943 9.007859,0.0397 c 4.954323,0.0218 9.141601,0.0516 9.305063,0.0661 0.163462,0.0145 1.851352,-3.34423 3.750868,-7.46397 2.065733,-4.48023 3.528225,-7.35111 3.639196,-7.14375 0.102042,0.19067 0.981279,3.6209 1.95386,7.62272 2.385368,9.81497 2.239332,9.30598 2.608198,9.08973 0.17511,-0.10266 3.011027,-1.88978 6.302057,-3.97138 z m -38.54855,78.92053 c -2.198917,-0.70917 -3.816214,-2.47554 -3.814345,-4.16595 0.0021,-1.88232 1.869652,-3.64511 5.048034,-4.76483 2.442895,-0.86061 6.227569,-0.87295 7.94674,-0.0259 0.671993,0.3311 1.428634,0.83054 1.681426,1.10987 0.439455,0.48559 0.421947,0.57372 -0.399037,2.00865 -2.378766,4.15765 -7.248373,6.87485 -10.462818,5.83817 z m 79.78504,-1.81961 c -2.4862,-1.25599 -3.0601,-3.76325 -1.39719,-6.10402 0.67418,-0.94901 0.91133,-1.09961 1.6718,-1.06173 0.4874,0.0243 1.66331,0.44101 2.61313,0.92605 1.95222,0.99692 3.34089,2.56932 3.62996,4.11023 0.15681,0.83583 0.0867,1.04794 -0.51881,1.56875 -1.4555,1.25196 -4.13485,1.5024 -5.99889,0.56072 z m 9.16463,-10.52043 c -2.92998,-0.27742 -5.81935,-0.97111 -6.56719,-1.57668 -0.51379,-0.41604 -0.53611,-0.53894 -0.2315,-1.27434 0.91803,-2.21632 3.09227,-4.00097 5.92125,-4.86024 1.45058,-0.44061 2.31504,-0.52743 4.4124,-0.44319 2.34522,0.0942 2.78975,0.19734 4.40609,1.02237 2.14356,1.09415 3.26347,2.48591 3.46922,4.31138 0.12866,1.14144 0.0894,1.23278 -0.75004,1.74325 -1.67233,1.01701 -6.32837,1.4876 -10.66023,1.07745 z"
       id="path1" /></g></svg>
